<?xml version="1.0" encoding="utf-8"?>
<!-- Generator: Adobe Illustrator 23.0.0, SVG Export Plug-In . SVG Version: 6.00 Build 0)  -->
<svg version="1.1" id="Layer_1" xmlns="http://www.w3.org/2000/svg" xmlns:xlink="http://www.w3.org/1999/xlink" x="0px" y="0px"
	 viewBox="0 0 10.3 11.2" style="enable-background:new 0 0 10.3 11.2;" xml:space="preserve">
<style type="text/css">
	.st0{fill:#BCABD6;}
	.st1{fill:#9683DD;}
	.st2{fill:#C0AFF9;}
</style>
<ellipse transform="matrix(0.2825 -0.9593 0.9593 0.2825 -5.1071 10.7625)" class="st0" cx="4.6" cy="8.8" rx="2.5" ry="1.8"/>
<path class="st1" d="M0,5.5C-0.3,6.6,1.6,7.1,2.6,7c0.5-0.1,1,0.3,1,0.7c0.1,1.9,2.9,1.8,2.7,0c0-0.4,0.8-0.4,1.3-0.2
	c1,0.5,2.4-0.2,2.7-1.3c0.1-0.4-0.2-0.7-0.6-0.8H9.6C8.9,5.2,7.7,5,9.2,4.1c2.7-1.7-0.5-4.3-2.8-2C6.1,2.5,6,2.8,5.9,2.5
	C4.8-2.4,0.4,1.1,2,3.7C2.2,4,1.3,4.1,1,4.3C0.5,4.6,0.2,5,0,5.5z"/>
<ellipse transform="matrix(0.2825 -0.9593 0.9593 0.2825 -0.3537 8.5993)" class="st2" cx="5.6" cy="4.5" rx="1.1" ry="1.4"/>
</svg>
