<?xml version="1.0" encoding="utf-8"?>
<!-- Generator: Adobe Illustrator 23.0.0, SVG Export Plug-In . SVG Version: 6.00 Build 0)  -->
<svg version="1.1" id="animation-left" xmlns="http://www.w3.org/2000/svg" xmlns:xlink="http://www.w3.org/1999/xlink" x="0px"
	 y="0px" viewBox="0 0 110.4 369.5" style="enable-background:new 0 0 110.4 369.5;" xml:space="preserve">
<style type="text/css">
	.st0{fill:#AEA2E5;}
	.st1{fill:#C8ADE6;}
	.st2{fill:#BFA0E2;}
	.st3{fill:#C2CE79;}
	.st4{fill:#C3B5EA;}
	.st5{fill:#EAD5FF;}
	.st6{fill:#B3A8E7;}
	.st7{fill:#A99CE4;}
	.st8{fill:#CAB1E7;}
	.st9{fill:#E4CBFF;}
	.st10{fill:#CDB6E9;}
	.st11{fill:#B592DE;}
	.st12{fill:#B7ACE8;}
	.st13{fill:#E1C4FF;}
	.st14{fill:#ECDBFF;}
	.st15{fill:#D3C9F0;}
	.st16{fill:#D8B3FF;}
	.st17{fill:#C5B8EB;}
	.st18{fill:#C1A3E3;}
	.st19{fill:#B9AFE9;}
	.st20{fill:#B5AAE7;}
	.st21{fill:#D0B9EA;}
	.st22{fill:#E7D1FF;}
	.st23{fill:#A79AE3;}
	.st24{fill:#DEBEFF;}
	.st25{fill:#E2C7FF;}
	.st26{fill:#B1A5E6;}
	.st27{fill:#CBB3E8;}
	.st28{fill:#E6CEFF;}
</style>
<g id="branch-1">
	<g id="_x31__1_">
		<g>
			<path class="st0" d="M49.9,82.7c0.5-1.2,1.1-2.4,1.6-3.4l1.5-3.1c0.5-1,0.9-2,1.5-3s1.2-2,2.4-3.1l0,0c0.3-0.2,0.6-0.2,0.9,0
				l0.1,0.1c0.8,1.4,1,2.9,0.7,4.4c-0.2,1.4-0.9,2.7-1.7,3.9c-0.8,1.2-1.7,2.2-2.8,3.1s-2.3,1.6-3.7,2c-0.3,0.1-0.6-0.1-0.7-0.4
				C49.9,83,49.9,82.9,49.9,82.7L49.9,82.7z"/>
		</g>
		<g>
			<path class="st1" d="M52.3,84.2c1.8-2.1,3.6-3.9,5.1-5.7c0.8-0.9,1.5-1.8,2.3-2.7c0.9-0.8,1.8-1.7,3.2-2.5l0,0
				c0.3-0.2,0.7-0.1,0.8,0.2c0,0,0,0.1,0.1,0.2c0.4,1.6,0.1,3.2-0.5,4.6s-1.6,2.5-2.7,3.5c-1.1,1-2.3,1.8-3.7,2.4s-2.8,1-4.3,1
				c-0.3,0-0.5-0.2-0.5-0.5C52.2,84.4,52.2,84.3,52.3,84.2L52.3,84.2z"/>
		</g>
		<g>
			<path class="st2" d="M49.8,72.2c0.1,0.4,0.2,0.9,0.3,1.4s0.2,1,0.3,1.4c0.2,0.9,0.5,1.9,0.7,2.8c0.3,0.9,0.6,1.9,0.9,2.9
				c0.1,0.5,0.2,1,0.3,1.6s0.1,1.1,0.1,1.8l0,0c0,0.3-0.3,0.6-0.7,0.6c-0.1,0-0.1,0-0.2,0c-1.3-0.5-2.3-1.3-3-2.3
				c-0.4-0.5-0.7-1-0.9-1.6c-0.3-0.5-0.5-1.1-0.7-1.7c-0.4-1.2-0.6-2.4-0.6-3.6c0-0.6,0-1.3,0.1-1.9s0.2-1.2,0.5-1.9
				c0.3-0.8,1.1-1.1,1.9-0.8c0.4,0.2,0.7,0.5,0.9,0.9L49.8,72.2z"/>
		</g>
		<g>
			<path class="st3" d="M-1.5,329.4l1.6-10.2c0.5-3.4,1-6.8,1.8-10.2L4,298.9c0.3-1.7,0.8-3.4,1.2-5l1.3-5l1.3-5
				c0.4-1.7,1-3.3,1.5-5c1-3.3,1.9-6.6,3-9.9c2.1-6.5,4.2-13.1,6.4-19.6s4.3-13,6.4-19.6l3-9.8l1.5-4.9l1.3-5l2.7-9.9
				c0.8-3.3,1.6-6.7,2.3-10c0.8-3.3,1.6-6.7,2.3-10L40,170c0.6-3.4,1.3-6.7,1.9-10.1l1.5-10.2l1.5-10.2l0.4-2.5l0.3-2.6l0.6-5.1
				c0.8-6.8,1.6-13.6,2.3-20.4l1.8-20.5c0.3-3.4,0.6-6.8,0.8-10.3l0.6-10.3L53,47.3c0.5-13.7,0.9-27.5,1.4-41.2h2
				c-0.4,13.7-0.8,27.5-1.3,41.2L54,68l-0.6,10.3c-0.2,3.4-0.5,6.9-0.8,10.3L51,109.1c-0.7,6.8-1.5,13.7-2.3,20.5l-0.6,5.1l-0.3,2.6
				l-0.4,2.6l-1.5,10.2l-1.5,10.2c-0.6,3.4-1.3,6.8-1.9,10.2l-1.9,10.2c-0.7,3.4-1.5,6.7-2.2,10.1c-0.8,3.4-1.5,6.7-2.3,10.1
				l-2.6,10l-1.3,5l-1.5,5l-2.9,9.9c-2.1,6.5-4.2,13.1-6.3,19.6c-2.2,6.5-4.3,13.1-6.3,19.6c-1,3.3-1.9,6.6-2.9,9.8
				c-0.5,1.6-1,3.3-1.4,4.9l-1.3,5l-1.3,5c-0.4,1.7-0.9,3.3-1.2,5l-2.1,10c-0.8,3.3-1.2,6.7-1.7,10.1l-1.6,10.1L-1.5,329.4z"/>
		</g>
		<g>
			<path class="st4" d="M44.5,73.3c0.5,0.7,1,1.7,1.4,2.5l1.4,2.5c0.5,0.9,1,1.7,1.4,2.6c0.2,0.5,0.4,0.9,0.6,1.5
				c0.2,0.5,0.3,1.1,0.4,1.8l0,0c0,0.3-0.2,0.6-0.6,0.7H49c-1.3-0.2-2.4-0.8-3.3-1.6c-0.9-0.8-1.5-1.7-2.2-2.7
				c-0.6-1-1.1-2.1-1.4-3.2c-0.3-1.2-0.6-2.3-0.5-3.6c0-0.8,0.7-1.5,1.6-1.4c0.5,0,0.9,0.3,1.2,0.7L44.5,73.3z"/>
		</g>
		<g>
			<path class="st5" d="M50.6,85c-0.3-0.8-0.6-1.5-0.8-2.1s-0.4-1.2-0.4-1.8c-0.1-0.6-0.1-1.3,0.2-1.9c0.3-0.7,0.8-1.4,2-2.3l1-0.1
				c1.4,0.6,2.1,1.4,2.4,2.2c0.4,0.8,0.3,1.7,0.2,2.6c-0.2,0.9-0.5,1.8-1.1,2.6c-0.6,0.8-1.5,1.7-3,1.8L50.6,85z"/>
		</g>
	</g>
	<g id="leaf_1_">
		<g>
			<path class="st3" d="M17.1,196.1c1.3,2.6,2.3,5.3,3.3,8s1.9,5.5,2.8,8.2l2.8,8.2c0.9,2.7,1.9,5.5,2.7,8.2l0,0l-0.8-0.2
				c1.7-2.2,3.3-4.3,4.9-6.6c1.6-2.2,3-4.5,4.4-6.8s2.7-4.7,4-7c1.3-2.4,2.6-4.7,4.1-7.1c0.2-0.2,0.5-0.3,0.7-0.2s0.3,0.3,0.2,0.5
				c-0.5,2.8-1.5,5.4-2.6,8s-2.5,5-4.1,7.3c-1.5,2.3-3.2,4.6-5,6.7c-1.8,2.1-3.8,4.1-6,5.8l-0.8,0.7V229c-1.4-2.6-2.6-5.2-3.8-7.8
				c-1.2-2.7-2.3-5.4-3.3-8.1c-1-2.7-2-5.5-2.8-8.3s-1.5-5.6-1.8-8.6c0-0.3,0.2-0.5,0.4-0.6C16.8,195.8,17,195.9,17.1,196.1z"/>
		</g>
		<g>
			<path class="st3" d="M32.1,135.8c1.8,1.7,3.2,3.8,4.4,6s2,4.6,2.6,7.1c0.6,2.4,0.9,4.8,1.3,7.2c0.4,2.3,1,4.6,1.7,7l-0.8-0.2l0,0
				c1.3-1.8,2.5-3.5,3.5-5.3c1.1-1.8,2-3.7,3-5.6c0.5-1,1-1.9,1.6-2.9c0.6-0.9,1.2-1.9,1.9-2.8c1.4-1.8,2.9-3.4,4.8-4.7
				c0.2-0.2,0.6-0.1,0.7,0.1c0.1,0.2,0.1,0.4,0,0.5l0,0c-1,2-2.2,3.7-3.2,5.5c-1.1,1.8-2.1,3.6-3.2,5.5c-1.1,1.9-2.2,3.8-3.6,5.6
				c-1.4,1.8-3,3.4-4.7,4.7l0,0l-0.4,0.6l-0.4-0.7c-1.2-2.1-2.1-4.5-2.9-6.8c-0.7-2.4-1.2-4.8-1.8-7c-0.6-2.3-1.4-4.4-2.3-6.6
				c-0.9-2.2-2-4.3-2.9-6.5l0,0c-0.1-0.3,0-0.6,0.3-0.7C31.7,135.7,31.9,135.7,32.1,135.8z"/>
		</g>
	</g>
	<g id="_x32__1_">
		<g>
			<g>
				<path class="st6" d="M66.4,48.5c-0.3,1.3-0.8,2.2-1.5,3.2c-0.7,0.9-1.4,1.7-2.3,2.5c-0.9,0.7-1.8,1.4-2.9,1.7
					c-1.1,0.4-2.2,0.5-3.5,0.2c-0.3-0.1-0.5-0.4-0.5-0.8v-0.1l0,0c0.3-0.6,0.6-1.1,0.9-1.5c0.3-0.4,0.6-0.8,1-1.1
					c0.7-0.7,1.4-1.2,2-1.8l2-1.8c0.7-0.6,1.4-1.3,2-1.8L64,47c0.7-0.5,1.6-0.4,2.1,0.3C66.4,47.6,66.5,48.1,66.4,48.5z"/>
			</g>
			<g>
				<path class="st7" d="M53.8,57.9c-1.3-0.5-2.4-1.2-3.3-2.1c-0.9-0.9-1.7-2-2.3-3.2s-1.1-2.5-1.1-3.8c-0.1-1.4,0.3-2.8,1.3-4
					c0.2-0.3,0.6-0.3,0.9-0.1c0,0,0,0,0.1,0.1l0,0c1,1.2,1.5,2.1,2,3s0.7,1.9,1.1,2.9l1.1,3c0.4,1.1,0.8,2.2,1.1,3.4v0.1
					c0.1,0.3-0.1,0.6-0.4,0.7C54,58,53.9,58,53.8,57.9z"/>
			</g>
			<g>
				<path class="st8" d="M61,47.1c0.1,0.7,0.1,1.2,0,1.8s-0.2,1.1-0.3,1.7c-0.3,1.1-0.9,2.1-1.5,3c-0.3,0.4-0.7,0.9-1.1,1.3
					c-0.4,0.4-0.8,0.7-1.3,1c-0.9,0.6-2,0.9-3.3,0.8c-0.4,0-0.6-0.3-0.6-0.7c0,0,0,0,0-0.1v-0.1c0.1-0.6,0.3-1.1,0.5-1.6
					s0.4-0.8,0.6-1.2c0.5-0.7,1-1.4,1.4-2c0.5-0.7,0.9-1.3,1.3-2l0.6-1c0.2-0.3,0.4-0.8,0.6-1l0.4-0.5c0.5-0.6,1.4-0.7,2-0.2
					C60.8,46.4,60.9,46.7,61,47.1z"/>
			</g>
			<g>
				<path class="st9" d="M63.4,50c-0.2,1.2-0.5,2.1-1,3s-1.1,1.7-1.7,2.5c-0.7,0.7-1.4,1.5-2.3,2c-0.9,0.5-1.9,0.8-3.2,0.7
					c-0.4,0-0.6-0.3-0.6-0.7c0,0,0,0,0-0.1l0,0c0.2-1.2,0.7-2,1.1-2.8c0.5-0.7,1-1.3,1.5-2c0.5-0.6,1.1-1.3,1.6-1.9
					c0.6-0.6,1.2-1.3,1.8-1.8l0.2-0.2c0.6-0.5,1.6-0.5,2.1,0.2C63.3,49.2,63.4,49.6,63.4,50z"/>
			</g>
			<g>
				<path class="st10" d="M52.4,57.1c-1.3,0-2.4-0.3-3.4-0.8s-2-1.2-2.8-1.9c-0.8-0.8-1.6-1.7-2-2.8s-0.5-2.4,0-3.7
					c0.1-0.4,0.5-0.5,0.9-0.4l0,0l0,0c1.3,0.5,2.1,1.1,2.8,1.7c0.7,0.6,1.2,1.4,1.7,2.1c0.5,0.7,1.1,1.5,1.6,2.3s1.1,1.7,1.6,2.7
					v0.1c0.1,0.3,0,0.6-0.2,0.8C52.6,57.1,52.5,57.1,52.4,57.1z"/>
			</g>
			<g>
				<path class="st5" d="M53.5,58.2c-1.1-0.6-1.8-1.4-2.3-2.2c-0.5-0.9-0.8-1.8-0.9-2.8c-0.1-1-0.1-2,0.4-3c0.5-0.9,1.3-1.8,2.8-2.1
					l1.2,0.4c0.9,1.2,1.3,1.9,1.5,2.6c0.2,0.7,0.1,1.3,0,2s-0.3,1.3-0.5,2.1c-0.2,0.7-0.5,1.6-1,2.5L53.5,58.2z"/>
			</g>
		</g>
		<g>
			<g>
				<path class="st11" d="M44.3,59.4c0.6,0.5,1.3,1.2,1.9,1.9l1.9,1.9c0.6,0.6,1.3,1.2,1.9,1.9c0.3,0.4,0.6,0.7,0.9,1.2
					c0.3,0.4,0.6,0.9,0.8,1.5l0,0c0.1,0.3,0,0.7-0.4,0.8h-0.1c-1.3,0.2-2.4,0-3.5-0.4c-1-0.4-1.9-1.2-2.7-1.9
					c-0.8-0.8-1.6-1.6-2.1-2.6c-0.6-1-1-2-1.3-3.3c-0.1-0.8,0.4-1.6,1.2-1.7c0.5-0.1,0.9,0.1,1.2,0.3L44.3,59.4z"/>
			</g>
			<g>
				<path class="st7" d="M52.9,69.9c0.4-1.2,0.9-2.3,1.3-3.3l1.3-3c0.4-1,0.7-1.9,1.3-2.8c0.6-0.9,1.1-1.8,2.2-2.9l0,0
					c0.2-0.2,0.6-0.2,0.9,0c0,0,0,0.1,0.1,0.1c0.9,1.3,1.2,2.7,1,4.1c-0.1,1.4-0.7,2.6-1.4,3.8c-0.7,1.1-1.5,2.2-2.5,3
					s-2.1,1.5-3.5,1.9c-0.3,0.1-0.6-0.1-0.7-0.4C52.8,70.1,52.8,70,52.9,69.9L52.9,69.9z"/>
			</g>
			<g>
				<path class="st8" d="M50,59.4c0.2,0.2,0.4,0.7,0.5,1l0.5,1.1c0.4,0.7,0.7,1.4,1.1,2.1c0.4,0.7,0.9,1.3,1.3,2.1
					c0.2,0.4,0.4,0.8,0.6,1.3c0.2,0.5,0.4,0.9,0.5,1.6v0.1c0.1,0.4-0.2,0.7-0.5,0.7h-0.1c-1.3,0.1-2.3-0.3-3.3-1
					c-0.5-0.3-0.9-0.7-1.2-1.1c-0.4-0.4-0.7-0.9-1-1.3c-0.6-0.9-1.1-2-1.3-3.1c-0.1-0.5-0.2-1.1-0.2-1.7c0-0.6,0-1.1,0.2-1.8
					c0.2-0.8,0.9-1.3,1.7-1.1c0.4,0.1,0.7,0.3,0.9,0.6L50,59.4z"/>
			</g>
			<g>
				<path class="st9" d="M47.3,61.2c0.6,0.5,1.1,1.2,1.6,1.9s1,1.3,1.5,2c0.5,0.7,1,1.3,1.4,2.1c0.4,0.8,0.8,1.6,0.9,2.8l0,0
					c0,0.4-0.2,0.7-0.6,0.7c0,0,0,0-0.1,0c-1.2,0-2.2-0.3-3.1-0.9c-0.9-0.5-1.5-1.3-2.2-2.1c-0.6-0.8-1.2-1.6-1.6-2.6
					c-0.4-0.9-0.7-1.9-0.8-3c-0.1-0.8,0.6-1.6,1.4-1.6c0.4,0,0.9,0.1,1.2,0.4L47.3,61.2z"/>
			</g>
			<g>
				<path class="st10" d="M54.6,68.9c0.6-1,1.2-1.8,1.8-2.6c0.6-0.8,1.2-1.5,1.8-2.2c0.6-0.7,1.1-1.4,1.9-2c0.8-0.6,1.5-1.1,2.9-1.6
					l0,0c0.4-0.1,0.7,0.1,0.9,0.4l0,0c0.4,1.4,0.2,2.6-0.3,3.7c-0.5,1.1-1.3,1.9-2.2,2.7c-0.9,0.8-1.9,1.4-2.9,1.8
					c-1.1,0.4-2.2,0.7-3.5,0.6c-0.3,0-0.5-0.3-0.5-0.6C54.5,69.1,54.5,69.1,54.6,68.9L54.6,68.9z"/>
			</g>
			<g>
				<path class="st5" d="M52.7,70.3c-0.4-1-0.6-1.8-0.8-2.6c-0.2-0.8-0.3-1.4-0.3-2.1s-0.1-1.3,0.1-2c0.3-0.7,0.6-1.4,1.6-2.5
					l1.2-0.4c1.4,0.5,2.2,1.4,2.6,2.3c0.4,1,0.4,2,0.2,3s-0.5,1.9-1.1,2.8c-0.6,0.8-1.3,1.6-2.4,2.1L52.7,70.3z"/>
			</g>
		</g>
	</g>
	<g id="_x33__1_">
		<g>
			<path class="st1" d="M52.3,23.4c0.2,0.2,0.4,0.5,0.5,0.8c0.2,0.3,0.3,0.6,0.5,0.9c0.3,0.6,0.6,1.2,0.9,1.8
				c0.3,0.6,0.7,1.2,0.9,1.9c0.1,0.4,0.2,0.7,0.3,1.2c0.1,0.4,0.1,0.9,0.1,1.5v0.1c0,0.4-0.3,0.7-0.7,0.7c-1.2,0-2-0.4-2.8-1
				c-0.7-0.6-1.2-1.3-1.7-2.1c-0.4-0.8-0.8-1.7-1-2.6c-0.1-0.5-0.2-0.9-0.2-1.4s0-0.9,0.1-1.5c0.2-0.8,0.9-1.3,1.6-1.1
				c0.3,0.1,0.5,0.2,0.7,0.4L52.3,23.4z"/>
		</g>
		<g>
			<path class="st6" d="M64.2,23.6c-0.1,1-0.4,1.8-0.8,2.5c-0.4,0.8-0.9,1.4-1.5,2s-1.3,1.2-2.1,1.5S58,30.1,57,29.7
				c-0.4-0.1-0.6-0.5-0.5-0.8l0,0c0.2-1.1,0.6-1.7,0.9-2.3c0.4-0.6,0.8-1,1.2-1.5s0.9-0.9,1.3-1.4c0.5-0.4,1-0.9,1.5-1.3l0.4-0.3
				c0.7-0.4,1.6-0.2,2.1,0.5C64.1,22.9,64.2,23.2,64.2,23.6z"/>
		</g>
		<g>
			<path class="st12" d="M54.7,37.9c-1.2-0.1-2.2-0.5-3.2-1c-0.9-0.5-1.8-1.2-2.6-2c-0.7-0.8-1.4-1.7-1.8-2.7
				c-0.4-1.1-0.5-2.3,0.1-3.6c0.1-0.3,0.5-0.5,0.9-0.4l0,0c1.3,0.5,2,1.1,2.7,1.7s1.1,1.3,1.6,2.1c0.5,0.7,1,1.5,1.5,2.3
				s0.9,1.7,1.3,2.8v0.1c0.1,0.3,0,0.6-0.3,0.7C54.9,37.9,54.8,37.9,54.7,37.9z"/>
		</g>
		<g>
			<path class="st13" d="M63,31c0,1-0.2,1.8-0.6,2.5c-0.3,0.8-0.8,1.5-1.4,2.1c-0.6,0.6-1.2,1.2-1.9,1.6c-0.8,0.4-1.7,0.5-2.8,0.2
				c-0.4-0.1-0.6-0.4-0.5-0.8l0,0c0.2-1.1,0.4-1.7,0.7-2.3s0.7-1,1.1-1.5c0.4-0.5,0.8-0.9,1.2-1.4c0.4-0.4,0.9-1,1.4-1.3l0.4-0.3
				c0.7-0.5,1.6-0.3,2.1,0.3C62.9,30.4,63,30.7,63,31z"/>
		</g>
		<g>
			<path class="st9" d="M61.9,37.4c0,1.1-0.2,1.9-0.5,2.8C61,41,60.5,41.8,60,42.6c-0.6,0.7-1.2,1.4-2,1.9s-1.8,0.7-3,0.5
				c-0.4-0.1-0.6-0.4-0.6-0.8l0,0c0.2-1.1,0.5-1.8,0.8-2.5c0.2-0.3,0.4-0.6,0.6-0.9c0.2-0.3,0.4-0.6,0.6-0.9l1.2-1.7
				c0.4-0.6,0.9-1.2,1.4-1.7l0.3-0.3c0.6-0.6,1.6-0.5,2.1,0.1C61.7,36.6,61.9,37,61.9,37.4z"/>
		</g>
		<g>
			<path class="st10" d="M54.8,45.3c-1.2,0.1-2.2-0.2-3.2-0.6c-1-0.4-1.8-1-2.6-1.6c-0.8-0.7-1.5-1.4-1.9-2.4
				c-0.4-0.9-0.6-2-0.3-3.4c0.1-0.4,0.5-0.6,0.8-0.5l0,0c1.3,0.2,2.2,0.7,2.9,1.2s1.2,1.2,1.8,1.8c0.5,0.7,1,1.3,1.5,2.1
				s1,1.6,1.4,2.5v0.1c0.1,0.3,0,0.6-0.3,0.8C54.9,45.3,54.8,45.3,54.8,45.3z"/>
		</g>
		<g>
			<path class="st14" d="M56.1,37.6c0.4,0.8,0.6,1.5,0.7,2.3c0.1,0.8,0.1,1.6,0.1,2.4c-0.1,0.8-0.1,1.6-0.5,2.3
				c-0.3,0.8-0.8,1.5-1.8,2.1c-0.3,0.2-0.7,0.1-1-0.2l0,0c-0.7-0.9-0.9-1.6-1.1-2.3c-0.2-0.7-0.1-1.4-0.1-2.1c0-0.7,0.1-1.4,0.2-2.1
				c0.1-0.7,0.2-1.4,0.5-2.1l0.1-0.2c0.3-0.8,1.2-1.2,2.1-0.9C55.7,37,55.9,37.3,56.1,37.6z"/>
		</g>
		<g>
			<path class="st15" d="M55.7,34.9c-0.8-0.7-1.3-1.6-1.6-2.4c-0.3-0.9-0.5-1.8-0.5-2.7c0-0.9,0.1-1.9,0.5-2.7
				c0.4-0.9,1.1-1.6,2.4-2.1c0.3-0.1,0.7,0,0.9,0.3l0,0c0.7,1.1,0.9,1.9,1,2.6s-0.1,1.4-0.2,2.1c-0.1,0.7-0.3,1.4-0.5,2.2
				s-0.5,1.5-1,2.4v0.1c-0.2,0.3-0.5,0.4-0.8,0.3C55.7,35,55.7,35,55.7,34.9z"/>
		</g>
	</g>
	<g id="_x34__1_">
		<g>
			<path class="st1" d="M57.3,1.5c0.1,0.2,0.2,0.6,0.3,0.9s0.1,0.7,0.2,1C57.9,4,58,4.7,58.1,5.3c0.1,0.7,0.3,1.3,0.3,2
				c0,0.4,0,0.7-0.1,1.2c-0.1,0.4-0.1,0.9-0.3,1.4V10c-0.1,0.3-0.5,0.5-0.9,0.4c-1.1-0.3-1.8-0.9-2.4-1.7c-0.5-0.7-0.8-1.6-1-2.5
				s-0.3-1.8-0.2-2.7c0-0.5,0.1-0.9,0.2-1.4c0.1-0.5,0.3-0.9,0.6-1.4c0.4-0.7,1.2-0.9,1.9-0.6c0.2,0.1,0.4,0.3,0.6,0.6L57.3,1.5z"/>
		</g>
		<g>
			<path class="st6" d="M60.5,2.5C61,3.4,61.1,4.1,61.2,5c0.1,0.8,0,1.7-0.3,2.5c-0.2,0.8-0.5,1.6-1,2.3s-1.3,1.2-2.4,1.4
				c-0.4,0.1-0.7-0.2-0.8-0.5l0,0c-0.3-1-0.4-1.7-0.4-2.4c0-0.6,0.2-1.2,0.3-1.8s0.2-1.2,0.4-1.7c0.2-0.6,0.3-1.2,0.6-1.8l0.2-0.5
				c0.4-0.7,1.3-1,2-0.6C60.2,2,60.4,2.2,60.5,2.5z"/>
		</g>
		<g>
			<path class="st12" d="M57.7,19.8c-1.2-0.1-2.2-0.5-3.2-1c-0.9-0.5-1.8-1.2-2.6-2c-0.7-0.8-1.4-1.7-1.8-2.7
				c-0.4-1.1-0.5-2.3,0.1-3.6c0.1-0.3,0.5-0.5,0.9-0.4l0,0c1.3,0.5,2,1.1,2.7,1.7c0.7,0.6,1.1,1.3,1.6,2.1c0.5,0.7,1,1.5,1.5,2.3
				s0.9,1.7,1.3,2.8v0.1c0.1,0.3,0,0.6-0.3,0.7C57.9,19.8,57.8,19.8,57.7,19.8z"/>
		</g>
		<g>
			<path class="st13" d="M63.9,11.3c0,1-0.2,1.8-0.6,2.5c-0.3,0.8-0.8,1.5-1.4,2.1c-0.6,0.6-1.2,1.2-1.9,1.6
				c-0.8,0.4-1.7,0.5-2.8,0.2c-0.4-0.1-0.6-0.4-0.5-0.8l0,0c0.2-1.1,0.4-1.7,0.7-2.3s0.7-1,1.1-1.5c0.4-0.5,0.8-0.9,1.2-1.4
				c0.4-0.4,0.9-1,1.4-1.3l0.4-0.3c0.7-0.5,1.6-0.3,2.1,0.3C63.8,10.6,63.9,11,63.9,11.3z"/>
		</g>
		<g>
			<path class="st9" d="M63.5,17.4c0,1.1-0.2,1.9-0.5,2.8s-0.8,1.7-1.4,2.4c-0.6,0.7-1.2,1.4-2,1.9s-1.8,0.7-3,0.5
				c-0.4-0.1-0.6-0.4-0.6-0.8l0,0c0.2-1.1,0.5-1.8,0.8-2.5c0.2-0.3,0.4-0.6,0.6-0.9c0.2-0.3,0.4-0.6,0.6-0.9l1.2-1.7
				c0.4-0.6,0.9-1.2,1.4-1.7l0.3-0.3c0.6-0.6,1.6-0.5,2.1,0.1C63.3,16.6,63.5,17,63.5,17.4z"/>
		</g>
		<g>
			<path class="st16" d="M55.8,14c-1-0.3-1.9-0.8-2.6-1.5c-0.7-0.6-1.3-1.4-1.7-2.2c-0.5-0.8-0.9-1.7-0.9-2.7s0.2-2,1.1-3
				c0.2-0.3,0.6-0.3,1-0.1l0,0c1.1,0.7,1.7,1.3,2.1,1.9c0.4,0.6,0.6,1.3,0.9,2c0.2,0.7,0.4,1.5,0.6,2.3c0.2,0.8,0.3,1.7,0.3,2.7v0.1
				c0,0.3-0.3,0.6-0.6,0.6C55.9,14.1,55.9,14.1,55.8,14z"/>
		</g>
		<g>
			<path class="st15" d="M56.9,17.7c-0.8-0.7-1.3-1.6-1.6-2.4c-0.3-0.9-0.5-1.8-0.5-2.7s0.1-1.9,0.5-2.7c0.4-0.9,1.1-1.6,2.4-2.1
				c0.3-0.1,0.7,0,0.9,0.3l0,0c0.7,1.1,0.9,1.9,1,2.6s-0.1,1.4-0.2,2.1c-0.1,0.7-0.3,1.4-0.5,2.2s-0.5,1.5-1,2.4v0.1
				c-0.2,0.3-0.5,0.4-0.8,0.3C57,17.8,57,17.7,56.9,17.7z"/>
		</g>
		<g>
			<path class="st10" d="M56.3,24.4c-1.2,0.1-2.2-0.2-3.2-0.6s-1.8-1-2.6-1.6c-0.8-0.7-1.5-1.4-1.9-2.4c-0.4-0.9-0.6-2-0.3-3.4
				c0.1-0.4,0.5-0.6,0.8-0.5l0,0c1.3,0.2,2.2,0.7,2.9,1.2s1.2,1.2,1.8,1.8c0.5,0.7,1,1.3,1.5,2.1c0.5,0.8,1,1.6,1.4,2.5v0.1
				c0.1,0.3,0,0.6-0.3,0.8C56.4,24.3,56.4,24.4,56.3,24.4z"/>
		</g>
		<g>
			<path class="st14" d="M56.7,16.6c0.4,0.8,0.6,1.5,0.7,2.3c0.1,0.8,0.1,1.6,0.1,2.4c-0.1,0.8-0.1,1.6-0.5,2.3
				c-0.3,0.8-0.8,1.5-1.8,2.1c-0.3,0.2-0.7,0.1-1-0.2l0,0c-0.7-0.9-0.9-1.6-1.1-2.3c-0.2-0.7-0.1-1.4-0.1-2.1s0.1-1.4,0.2-2.1
				c0.1-0.7,0.2-1.4,0.5-2.1l0.1-0.2c0.3-0.8,1.2-1.2,2.1-0.9C56.3,16,56.5,16.2,56.7,16.6z"/>
		</g>
	</g>
	<g id="sepal_2_">
		<g>
			<path class="st3" d="M49.4,42.7c1,0.5,1.6,1.2,2.2,1.9c0.5,0.7,1.2,1.3,2,1.3c0.9,0,1.6-0.5,2.4-0.9c0.8-0.4,1.5-0.9,2.7-0.8
				c0.3,0,0.6,0.3,0.6,0.7c0,0.1,0,0.1-0.1,0.2c-0.5,1.1-1.4,1.6-2.4,1.9c-1,0.3-2.2,0.3-3.3,0.2s-2.3-0.6-3.1-1.2
				c-0.8-0.7-1.4-1.5-1.8-2.4l0,0c-0.1-0.3,0-0.6,0.3-0.7C49.1,42.6,49.3,42.6,49.4,42.7z"/>
		</g>
		<g>
			<path class="st3" d="M48.5,67c1,0.5,1.6,1.2,2.2,1.9c0.5,0.7,1.2,1.3,2,1.3c0.9,0,1.6-0.5,2.4-0.9c0.8-0.4,1.5-0.9,2.7-0.8
				c0.3,0,0.6,0.3,0.6,0.7c0,0.1,0,0.1-0.1,0.2c-0.5,1.1-1.4,1.6-2.4,1.9s-2.2,0.3-3.3,0.2c-1.1-0.1-2.3-0.6-3.1-1.2
				c-0.8-0.7-1.4-1.5-1.8-2.4l0,0c-0.1-0.3,0-0.6,0.3-0.7C48.3,66.9,48.4,66.9,48.5,67z"/>
		</g>
		<g>
			<path class="st3" d="M50.7,53.1c0.7,0.7,1.1,1.5,1.3,2.3s0.5,1.6,1,1.7c0.2,0,0.5-0.1,0.8-0.4c0.3-0.2,0.5-0.6,0.7-0.9
				c0.5-0.6,1-1.3,2.1-1.5c0.3-0.1,0.7,0.2,0.7,0.5c0,0.1,0,0.1,0,0.2c-0.1,1.1-0.7,1.8-1.5,2.4c-0.4,0.3-0.9,0.5-1.4,0.7
				s-1.1,0.3-1.7,0.2c-0.6-0.1-1.1-0.6-1.4-0.9c-0.4-0.4-0.6-0.8-0.9-1.2c-0.4-0.8-0.7-1.6-0.7-2.6l0,0c0-0.3,0.3-0.5,0.6-0.5
				C50.5,53,50.7,53,50.7,53.1z"/>
		</g>
		<g>
			<path class="st3" d="M51.2,20.1c1,0.5,1.6,1.4,2.1,2.1s1.1,1.4,2,1.4s1.6-0.5,2.4-1c0.8-0.5,1.5-1,2.7-1c0.3,0,0.6,0.3,0.6,0.6
				c0,0.1,0,0.2,0,0.2c-0.4,1.1-1.4,1.7-2.4,2s-2.2,0.4-3.4,0.3s-2.3-0.7-3.1-1.4c-0.8-0.8-1.3-1.6-1.6-2.6l0,0
				c-0.1-0.3,0.1-0.6,0.3-0.7C51,20,51.1,20,51.2,20.1z"/>
		</g>
		<g>
			<path class="st3" d="M50.4,32.1c1,0.4,1.6,1.1,2.2,1.7c0.6,0.6,1.2,1.2,2,1.2s1.6-0.4,2.4-0.9c0.8-0.4,1.5-0.8,2.7-0.6
				c0.3,0,0.6,0.4,0.5,0.7c0,0.1,0,0.1-0.1,0.2c-0.5,1-1.4,1.5-2.4,1.7s-2.1,0.2-3.2,0.1c-1-0.1-2.2-0.5-3-1.1s-1.4-1.3-1.8-2.2l0,0
				c-0.1-0.3,0-0.6,0.3-0.7C50.1,32.1,50.3,32.1,50.4,32.1z"/>
		</g>
		<g id="sepal_1_">
			<g>
				<path class="st3" d="M44.2,81.5c1.3,0.4,2.4,1.1,3.4,1.7c1,0.7,2.1,1.2,3.3,1.3c1.2,0.1,2.4-0.3,3.6-0.7
					c1.2-0.3,2.3-0.8,3.8-0.5c0.3,0.1,0.5,0.4,0.5,0.7c0,0.1-0.1,0.2-0.1,0.3c-1,1-2.3,1.4-3.6,1.6c-1.3,0.1-2.7,0-4.1-0.1
					c-0.7-0.1-1.3-0.2-2-0.3c-0.7-0.2-1.4-0.4-2-0.7c-1.2-0.6-2.3-1.4-3.1-2.4l0,0c-0.2-0.2-0.2-0.5,0.1-0.7
					C43.8,81.5,44,81.4,44.2,81.5z"/>
			</g>
		</g>
	</g>
	<g id="bloom">
		
			<ellipse transform="matrix(0.2853 -0.9584 0.9584 0.2853 -32.6928 113.5218)" class="st1" cx="59.8" cy="78.7" rx="2.8" ry="2.2"/>
		<path class="st11" d="M66.8,77.7c-0.3,1.3-2.7,0.8-3.8,0.2c-0.6-0.3-1.3-0.2-1.5,0.2c-1.2,1.8-4.3,0.3-3.1-1.3
			c0.3-0.4-0.7-0.8-1.3-0.8c-1.4,0-2.6-1.4-2.3-2.6c0.1-0.4,0.6-0.6,1.2-0.5c0.1,0,0.1,0,0.2,0c0.8,0.1,2.3,0.6,1.1-1.1
			c-2.1-3,3-4.1,4.2-0.6c0.2,0.5,0.1,0.9,0.4,0.6c4.1-4.3,6.9,1.4,3.6,3.2c-0.4,0.2,0.6,0.7,0.9,1.2C66.7,76.7,66.9,77.2,66.8,77.7z
			"/>
		<ellipse transform="matrix(0.1275 -0.9918 0.9918 0.1275 -20.136 125.1544)" class="st17" cx="61.1" cy="74" rx="1.2" ry="1.8"/>
	</g>
	<g id="bud_2_">
		<path class="st13" d="M50.9,3.3c-0.4-1.2-3.4-0.7-1.6,1.5c-1-0.6-1.6,0.7-0.1,1.7c0.4,0.2,1.7,0.1,2.1,1.3
			c0.7,1.4,1.1,0.9,1.5,0.9c1.2,0,1.6-0.8,0.7-2.5c0.3-3-1-5.3-2.9-4.4C50.3,1.9,50.4,2.8,50.9,3.3z"/>
	</g>
	<g id="bud_1_">
		<path class="st13" d="M63.5,6.9c0.3-1.2,3.4-0.8,1.7,1.4c1-0.7,1.6,0.6,0.1,1.7c-0.3,0.2-1.7,0.2-2,1.4c-0.7,1.4-1,0.9-1.5,0.9
			c-1.2,0.1-1.6-0.8-0.8-2.4c-0.4-3,0.8-5.3,2.7-4.5C64,5.4,63.9,6.4,63.5,6.9z"/>
	</g>
</g>
<g id="branch-2">
	<g id="_x32_">
		<g>
			<path class="st18" d="M83.6,152.6c0.6-1.1,1.2-2,1.8-2.8l1.7-2.5c0.6-0.8,1.1-1.6,1.8-2.3c0.7-0.7,1.5-1.4,2.8-2.1l0,0
				c0.3-0.2,0.7,0,0.9,0.3c0,0,0,0,0,0.1c0.6,1.4,0.5,2.8,0.1,3.9c-0.4,1.2-1.2,2.2-2,3.1c-0.9,0.9-1.8,1.7-2.9,2.2
				c-1.1,0.6-2.3,1-3.6,1c-0.3,0-0.6-0.2-0.6-0.5C83.5,152.9,83.5,152.8,83.6,152.6L83.6,152.6z"/>
		</g>
		<g>
			<path class="st1" d="M84.2,154.3c0.9-0.8,1.7-1.6,2.5-2.3l2.3-2c0.8-0.7,1.5-1.3,2.3-1.9c0.9-0.6,1.8-1.1,3.3-1.5l0,0
				c0.3-0.1,0.7,0.1,0.8,0.5v0.1c0.2,1.5-0.2,2.8-0.9,3.9c-0.7,1.1-1.7,1.9-2.8,2.6c-1.1,0.7-2.3,1.2-3.5,1.5
				c-1.3,0.3-2.5,0.4-3.9,0c-0.3-0.1-0.5-0.4-0.4-0.7C84,154.5,84.1,154.4,84.2,154.3L84.2,154.3z"/>
		</g>
		<g>
			<path class="st1" d="M86,143.4c0.1,0.8,0,1.7,0.1,2.6v2.6c0,0.9,0.1,1.7,0,2.7c-0.1,0.5-0.1,0.9-0.2,1.4s-0.2,1-0.5,1.6l0,0
				c-0.1,0.3-0.5,0.5-0.8,0.3h-0.1c-1.1-0.7-1.7-1.7-2.1-2.7c-0.2-0.5-0.4-1-0.4-1.6c-0.1-0.5-0.1-1.1-0.2-1.6c0-1.1,0-2.2,0.3-3.3
				c0.1-0.5,0.3-1.1,0.5-1.6s0.5-1,0.9-1.6c0.5-0.7,1.4-0.8,2.1-0.4c0.4,0.3,0.6,0.7,0.6,1.1L86,143.4z"/>
		</g>
		<g>
			<path class="st3" d="M-5,367.3c8.6-9.2,16.2-19.3,22.7-30c6.6-10.7,12.4-21.9,17.6-33.5c10.4-23,18.8-47,26.4-71.1
				c7.6-24.2,14.4-48.6,21.1-73l19.8-73.4l1.9,0.5l-19.6,73.5c-6.6,24.5-13.3,48.9-20.9,73.2c-7.3,24.2-15.6,48.3-26,71.5
				c-5.2,11.6-11,23-17.7,33.8C13.7,349.7,6,360-2.7,369.4L-5,367.3z"/>
		</g>
		<g>
			<path class="st19" d="M80.7,142.1c0.1,0.1,0.1,0.4,0.2,0.6l0.2,0.7c0.1,0.5,0.3,0.9,0.5,1.4c0.3,0.9,0.7,1.8,1.1,2.7
				s0.9,1.7,1.4,2.7c0.2,0.5,0.4,1,0.6,1.5s0.4,1.1,0.4,1.8l0,0c0,0.3-0.2,0.6-0.5,0.7c-0.1,0-0.1,0-0.2,0c-1.4-0.2-2.5-0.9-3.4-1.7
				c-0.5-0.4-0.9-0.9-1.2-1.4c-0.4-0.5-0.7-1.1-1-1.6c-0.6-1.1-1-2.4-1.2-3.7c-0.1-0.7-0.1-1.3-0.1-2c0-0.3,0.1-0.7,0.1-1
				c0.1-0.4,0.1-0.6,0.3-1.1c0.2-0.7,1-1.1,1.6-0.8c0.3,0.1,0.5,0.3,0.6,0.5L80.7,142.1z"/>
		</g>
		<g>
			<path class="st13" d="M83.6,144.5c0.3,0.7,0.5,1.6,0.7,2.4c0.2,0.8,0.4,1.6,0.6,2.5c0.2,0.8,0.4,1.6,0.5,2.5s0.1,1.8-0.2,3l0,0
				c-0.1,0.3-0.4,0.6-0.8,0.5h-0.1c-1.2-0.5-1.9-1.2-2.5-2.1c-0.6-0.9-0.9-1.8-1.2-2.8c-0.3-1-0.4-2-0.4-3c0-1.1,0.1-2,0.5-3.2
				c0.3-0.8,1.1-1.2,1.9-0.9c0.4,0.2,0.7,0.5,0.9,0.9L83.6,144.5z"/>
		</g>
		<g>
			<path class="st5" d="M83.6,154.7c-0.3-0.8-0.4-1.4-0.6-2c-0.1-0.6-0.2-1.1-0.1-1.7c0.1-0.6,0.1-1.1,0.5-1.7
				c0.4-0.5,1.1-1,2.5-1.5l1,0.1c1.2,0.8,1.7,1.6,1.9,2.4c0.2,0.8-0.1,1.5-0.4,2.2s-0.8,1.4-1.5,2s-1.6,1.2-3.1,1L83.6,154.7z"/>
		</g>
	</g>
	<g id="leaf">
		<g>
			<path class="st3" d="M75.6,240c-2.1,1.5-4,3.1-5.8,4.8s-3.6,3.5-5.3,5.4c-1.7,1.9-3.5,3.8-5.3,5.7c-1.8,1.8-3.8,3.6-6,5.1l0,0
				l-0.5,0.6l-0.3-0.9c-0.8-2.3-1.4-4.7-2-7.1c-0.5-2.4-0.9-4.9-1.1-7.3c-0.2-2.5-0.3-5,0-7.5c0.2-1.3,0.5-2.5,1-3.8
				c0.5-1.2,1.3-2.4,2.4-3.2c0.2-0.2,0.5-0.1,0.7,0.1c0.1,0.2,0.1,0.4,0,0.5l0,0c-0.6,1-0.9,2-1.1,3.1c-0.2,1.1-0.3,2.2-0.3,3.4
				s-0.1,2.3,0,3.5c0,1.2,0.1,2.4,0.1,3.6c0.3,4.8,0.9,9.6,1.2,14.5l-0.8-0.3l0,0c1.8-1.8,3.4-3.8,5-5.8c1.6-2,3.2-4,4.9-6
				c1.7-2,3.5-3.9,5.6-5.6c2.1-1.7,4.5-3.1,7.1-3.7c0.3-0.1,0.5,0.1,0.6,0.4C75.9,239.7,75.8,239.9,75.6,240z"/>
		</g>
	</g>
	<g id="_x31_">
		<g>
			<path class="st20" d="M71.3,165.9c0.9,0.9,1.3,1.9,1.7,2.9c0.4,1,0.9,1.9,1.3,2.9s0.9,2,1.3,3.1c0.2,0.5,0.5,1.1,0.7,1.7
				c0.2,0.6,0.5,1.2,0.6,1.9l0,0c0.1,0.2-0.1,0.4-0.3,0.5c-0.1,0-0.1,0-0.2,0c-0.7-0.2-1.3-0.4-2-0.7c-0.6-0.3-1.2-0.7-1.7-1.1
				c-0.5-0.4-1-0.9-1.5-1.4s-0.9-1-1.3-1.6c-0.8-1.2-1.3-2.5-1.6-3.9c-0.3-1.4-0.3-2.9,0.7-4.4c0.4-0.5,1.1-0.7,1.6-0.3
				c0.1,0,0.1,0.1,0.2,0.1L71.3,165.9z"/>
		</g>
		<g>
			<path class="st19" d="M76.3,177.2c0.9-1.2,1.8-2.1,2.7-3c0.9-0.9,1.7-1.6,2.6-2.4c0.9-0.7,1.6-1.5,2.5-2.1c1-0.6,2-1.1,3.7-1.6
				h0.1c0.4-0.1,0.7,0.1,0.8,0.4c0.6,1.8,0.2,3.5-0.5,4.8c-0.8,1.3-2,2.3-3.2,3.1s-2.6,1.3-4,1.6s-2.9,0.4-4.4,0
				c-0.3-0.1-0.5-0.4-0.4-0.7C76.2,177.4,76.2,177.4,76.3,177.2L76.3,177.2z"/>
		</g>
		<g>
			<path class="st21" d="M79.1,166.7c0,0.3,0,0.8,0,1.1v1.2c0,0.8,0,1.5,0,2.3s0.1,1.5,0.1,2.3c0,0.4,0,0.8-0.1,1.3s-0.1,1-0.4,1.6
				v0.1c-0.1,0.3-0.5,0.5-0.8,0.4c0,0,0,0-0.1,0c-1.1-0.5-1.9-1.4-2.4-2.3c-0.5-1-0.7-2-0.8-3.1c-0.1-1.1,0-2.2,0.3-3.2
				c0.3-1.1,0.7-2,1.6-3c0.5-0.6,1.4-0.7,2-0.2c0.3,0.2,0.4,0.6,0.5,0.9L79.1,166.7z"/>
		</g>
		<g>
			<path class="st13" d="M74.1,168.2c0.6,0.7,1,1.6,1.3,2.4c0.4,0.8,0.7,1.5,1,2.3s0.6,1.5,0.7,2.5c0,0.5,0.1,0.9,0,1.5
				s-0.2,1.2-0.4,2l0,0c-0.1,0.3-0.5,0.6-0.8,0.5c-1.6-0.1-2.7-0.7-3.5-1.6c-0.4-0.4-0.7-0.9-1-1.4s-0.5-1-0.7-1.6
				c-0.3-1.1-0.5-2.3-0.5-3.4c0-1.2,0.3-2.3,1-3.6c0.4-0.7,1.3-1,2.1-0.6c0.2,0.1,0.3,0.2,0.5,0.4L74.1,168.2z"/>
		</g>
		<g>
			<path class="st13" d="M80.4,178.4c1.1-0.7,2.2-1.3,3.2-1.9l3-1.7c1-0.6,1.9-1.2,2.9-1.7c1.1-0.5,2.1-0.9,3.6-1.2l0,0
				c0.3,0,0.6,0.2,0.6,0.5c0,0.1,0,0.1,0,0.2c-0.2,1.5-0.9,2.8-1.9,3.7c-0.5,0.5-1,0.9-1.6,1.3c-0.6,0.3-1.2,0.7-1.8,0.9
				c-1.2,0.5-2.5,0.9-3.9,1.1c-1.3,0.1-2.7,0.1-4-0.3c-0.3-0.1-0.4-0.3-0.3-0.6C80.2,178.6,80.2,178.5,80.4,178.4L80.4,178.4z"/>
		</g>
		<g>
			<path class="st5" d="M77.9,178.7c1-0.8,1.9-1.4,2.9-1.9c0.9-0.5,1.8-1,2.7-1.4c0.9-0.4,1.7-0.9,2.7-1.1c1-0.2,2-0.3,3.6-0.1l0,0
				c0.4,0.1,0.6,0.4,0.6,0.8c-0.2,1.6-1,2.7-1.9,3.6c-1,0.8-2.1,1.3-3.3,1.6c-1.2,0.3-2.4,0.5-3.6,0.4s-2.4-0.3-3.6-0.9
				c-0.3-0.1-0.4-0.5-0.3-0.8C77.7,178.8,77.7,178.8,77.9,178.7L77.9,178.7z"/>
		</g>
		<g>
			<path class="st22" d="M80.3,169.6l0.1,0.6c0,0.2,0.1,0.4,0.1,0.5l0.2,0.8c0.1,0.5,0.2,0.8,0.2,1.2c0.1,0.7,0.2,1.4,0.1,2.1
				c-0.1,0.3-0.2,0.7-0.3,1.1c-0.1,0.4-0.3,0.8-0.5,1.2s-0.4,0.9-0.8,1.4c-0.3,0.5-0.6,1-1.2,1.5l0,0c-0.2,0.2-0.5,0.2-0.7,0.1
				c-1.2-0.8-2-1.7-2.5-2.8c-0.2-0.5-0.4-1.1-0.5-1.6c-0.1-0.6-0.1-1.1-0.1-1.7c0.1-1.2,0.7-2.4,1.5-3.4c0.4-0.5,0.9-1,1.6-1.3
				s1.5-0.4,2.5-0.1c0.1,0,0.2,0.1,0.2,0.2L80.3,169.6z"/>
		</g>
	</g>
	<g id="_x33_">
		<g>
			<path class="st23" d="M85,125.7c0.2,0.2,0.4,0.6,0.5,0.9c0.2,0.3,0.3,0.6,0.5,0.9c0.3,0.6,0.6,1.3,0.9,1.9c0.3,0.6,0.6,1.3,0.9,2
				c0.1,0.4,0.2,0.7,0.3,1.2c0.1,0.4,0.1,0.9,0,1.5v0.1c0,0.4-0.4,0.6-0.7,0.6c-1.2-0.1-2-0.5-2.8-1.1c-0.7-0.6-1.2-1.4-1.6-2.2
				s-0.7-1.7-0.9-2.6c-0.1-0.5-0.1-0.9-0.1-1.4s0-0.9,0.2-1.5c0.2-0.8,0.9-1.3,1.7-1.1c0.3,0.1,0.6,0.2,0.8,0.5L85,125.7z"/>
		</g>
		<g>
			<path class="st19" d="M89.6,135.2c0.5-1,1-1.8,1.4-2.5c0.5-0.8,0.9-1.4,1.4-2.1c0.5-0.7,0.8-1.3,1.4-1.9c0.6-0.6,1.2-1.1,2.5-1.7
				h0.1c0.3-0.2,0.7,0,0.9,0.3c0.7,1.2,0.7,2.5,0.4,3.6c-0.3,1.1-1,2-1.8,2.8s-1.7,1.4-2.6,1.9c-1,0.4-2,0.7-3.2,0.7
				c-0.3,0-0.6-0.3-0.5-0.6C89.5,135.4,89.6,135.3,89.6,135.2L89.6,135.2z"/>
		</g>
		<g>
			<path class="st1" d="M89.8,125.3c0.1,0.2,0.2,0.6,0.3,0.9c0.1,0.3,0.2,0.6,0.3,0.9c0.2,0.6,0.3,1.2,0.5,1.8
				c0.1,0.6,0.3,1.2,0.4,1.9c0,0.3,0.1,0.7,0,1.1c0,0.4-0.1,0.8-0.2,1.4v0.1c-0.1,0.4-0.4,0.6-0.8,0.5c-1.1-0.2-1.9-0.7-2.5-1.4
				s-0.9-1.5-1.2-2.3c-0.3-0.8-0.4-1.7-0.3-2.6c0-0.9,0.2-1.7,0.7-2.7c0.3-0.7,1.2-1,1.9-0.6c0.2,0.1,0.4,0.3,0.6,0.5L89.8,125.3z"
				/>
		</g>
		<g>
			<path class="st24" d="M86.7,126.8c0.2,0.2,0.3,0.6,0.5,0.9c0.1,0.3,0.3,0.7,0.4,1c0.3,0.7,0.5,1.3,0.7,2s0.5,1.3,0.7,2
				c0.1,0.4,0.1,0.8,0.1,1.2s0,0.9-0.1,1.5v0.1c-0.1,0.4-0.4,0.6-0.8,0.6c-1.2-0.2-2-0.7-2.6-1.4c-0.7-0.7-1.1-1.5-1.4-2.4
				c-0.4-0.9-0.6-1.8-0.7-2.7c0-0.5-0.1-0.9,0-1.4c0-0.5,0.1-0.9,0.3-1.5c0.2-0.8,1-1.2,1.8-1c0.3,0.1,0.6,0.3,0.7,0.5L86.7,126.8z"
				/>
		</g>
		<g>
			<path class="st13" d="M91.1,134.8c0.7-0.7,1.4-1.3,2-1.8l1.8-1.5c0.6-0.5,1.2-0.9,1.8-1.3c0.7-0.3,1.5-0.7,2.7-0.8l0,0
				c0.3,0,0.6,0.2,0.7,0.5c0.2,1.3-0.2,2.3-0.8,3.1c-0.6,0.9-1.4,1.5-2.3,1.9c-0.9,0.5-1.9,0.8-2.9,1c-1,0.1-2,0.1-3.1-0.3
				c-0.3-0.1-0.4-0.4-0.3-0.7C91,135,91,134.9,91.1,134.8L91.1,134.8z"/>
		</g>
		<g>
			<path class="st25" d="M90.3,135.2c0.5-0.7,1.1-1.2,1.6-1.6c0.5-0.4,1-0.8,1.5-1.1s1-0.6,1.6-0.7c0.6-0.1,1.3-0.1,2.5,0.2h0.1
				c0.3,0.1,0.6,0.4,0.6,0.7c0.2,1.2-0.2,2.1-0.8,2.8c-0.6,0.7-1.3,1-2.1,1.3c-0.8,0.2-1.6,0.4-2.4,0.3c-0.8-0.1-1.6-0.3-2.5-0.8
				c-0.3-0.2-0.4-0.6-0.2-0.9C90.2,135.3,90.2,135.3,90.3,135.2L90.3,135.2z"/>
		</g>
		<g>
			<path class="st22" d="M91.4,128c0.2,0.7,0.4,1.1,0.5,1.4c0.1,0.4,0.1,0.6,0.2,0.9c0.1,0.6,0.1,1.2-0.1,1.8
				c-0.1,0.6-0.3,1.3-0.6,2c-0.3,0.7-0.6,1.5-1.2,2.3l0,0c-0.2,0.2-0.5,0.3-0.7,0.1l0,0c-0.8-0.7-1.3-1.4-1.7-2.2
				c-0.3-0.8-0.5-1.7-0.5-2.6c0-0.9,0.2-1.8,0.8-2.7c0.2-0.4,0.6-0.9,1.1-1.2s1.1-0.5,1.9-0.3c0.1,0,0.2,0.1,0.2,0.2L91.4,128z"/>
		</g>
	</g>
	<g id="_x34_">
		<g>
			<path class="st1" d="M90.2,112c0.3,0.5,0.6,1.3,0.9,1.9c0.3,0.7,0.5,1.3,0.7,2s0.5,1.3,0.7,2c0.1,0.4,0.1,0.8,0.1,1.2
				c0,0.4,0,0.9-0.1,1.5v0.1c-0.1,0.4-0.4,0.6-0.8,0.6c-1.1-0.2-2-0.7-2.6-1.4c-0.7-0.7-1-1.5-1.4-2.3c-0.3-0.8-0.6-1.7-0.7-2.7
				c-0.1-0.9-0.1-1.8,0.3-2.9c0.2-0.8,1.1-1.2,1.8-1c0.4,0.1,0.6,0.3,0.8,0.6L90.2,112z"/>
		</g>
		<g>
			<path class="st23" d="M93,121.7c0.5-0.9,1-1.7,1.4-2.5c0.5-0.7,0.9-1.4,1.4-2s0.8-1.3,1.4-1.8s1.3-1.1,2.5-1.6h0.1
				c0.3-0.2,0.7,0,0.9,0.3c0.7,1.2,0.7,2.4,0.3,3.5c-0.3,1.1-1,2-1.8,2.7s-1.7,1.4-2.6,1.8c-1,0.4-2,0.7-3.2,0.6
				c-0.3,0-0.6-0.3-0.5-0.6C92.9,121.9,92.9,121.9,93,121.7L93,121.7z"/>
		</g>
		<g>
			<path class="st26" d="M95,112.3c0.1,0.6,0.2,1.3,0.2,1.9s0,1.2,0.1,1.9c0,0.6,0,1.2,0,1.9c-0.1,0.3-0.1,0.7-0.3,1.1
				c-0.1,0.4-0.3,0.8-0.6,1.3v0.1c-0.2,0.3-0.6,0.4-0.9,0.3c-1-0.4-1.7-1.1-2.1-1.9s-0.5-1.7-0.6-2.5c-0.1-0.9,0-1.7,0.2-2.6
				s0.6-1.6,1.2-2.5c0.5-0.6,1.4-0.7,2.1-0.2c0.3,0.2,0.4,0.5,0.5,0.8L95,112.3z"/>
		</g>
		<g>
			<path class="st9" d="M91.3,113.8c0.3,0.5,0.6,1.3,0.9,1.9c0.3,0.7,0.5,1.3,0.7,2s0.5,1.3,0.7,2c0.1,0.4,0.1,0.8,0.1,1.2
				c0,0.4,0,0.9-0.1,1.5v0.1c-0.1,0.4-0.4,0.6-0.8,0.6c-1.1-0.2-2-0.7-2.6-1.4c-0.7-0.7-1-1.5-1.4-2.3c-0.3-0.8-0.6-1.7-0.7-2.7
				c-0.1-0.9-0.1-1.8,0.3-2.9c0.2-0.8,1.1-1.2,1.8-1c0.4,0.1,0.6,0.3,0.8,0.6L91.3,113.8z"/>
		</g>
		<g>
			<path class="st27" d="M94.2,122c0.7-0.9,1.4-1.6,2.1-2.3c0.7-0.7,1.4-1.3,2.1-1.8c0.7-0.6,1.4-1.2,2.2-1.6
				c0.8-0.4,1.7-0.7,3.1-0.9l0,0c0.4,0,0.7,0.2,0.8,0.6c0.2,1.4-0.3,2.6-0.9,3.5c-0.7,0.9-1.6,1.6-2.6,2.2c-1,0.5-2,1-3.1,1.2
				s-2.2,0.3-3.4,0.1c-0.3-0.1-0.5-0.4-0.4-0.7C94.1,122.1,94.1,122.1,94.2,122L94.2,122z"/>
		</g>
		<g>
			<path class="st28" d="M95.1,122.6c0.5-0.8,1.1-1.4,1.6-1.9s1-1,1.5-1.4s1-0.9,1.6-1.1c0.7-0.3,1.4-0.5,2.6-0.5h0.1
				c0.4,0,0.7,0.2,0.8,0.6c0.3,1.2,0.1,2.3-0.4,3.1c-0.5,0.8-1.3,1.4-2.1,1.8c-0.8,0.4-1.7,0.7-2.6,0.9c-0.9,0.1-1.9,0.1-2.9-0.4
				c-0.3-0.1-0.4-0.5-0.3-0.8C95,122.7,95,122.7,95.1,122.6L95.1,122.6z"/>
		</g>
		<g>
			<path class="st5" d="M93.7,123.3c-0.8-0.8-1.2-1.5-1.6-2.2c-0.3-0.7-0.5-1.5-0.6-2.2s-0.1-1.4,0.3-2.1s1-1.4,2.3-2
				c0.3-0.2,0.7-0.1,1,0.1c1.3,0.8,1.8,1.5,2.1,2.3c0.3,0.7,0.2,1.4,0,2.2c-0.2,0.7-0.4,1.4-0.8,2.1s-0.9,1.4-1.8,2.1
				C94.4,123.6,93.9,123.5,93.7,123.3z"/>
		</g>
	</g>
	<g id="_x35_">
		<g>
			<path class="st6" d="M107.2,105.9c-0.4,0.9-0.8,1.6-1.4,2.2s-1.2,1.2-1.9,1.6c-0.7,0.4-1.5,0.8-2.3,0.9s-1.8,0.1-2.7-0.5
				c-0.3-0.2-0.5-0.6-0.3-0.9l0,0c0.4-1,0.9-1.6,1.4-2.1s1-0.8,1.6-1.2c0.5-0.4,1.1-0.7,1.6-1c0.6-0.3,1.2-0.7,1.8-0.9l0.4-0.1
				c0.8-0.3,1.6,0.2,1.9,1C107.4,105.3,107.3,105.6,107.2,105.9z"/>
		</g>
		<g>
			<path class="st7" d="M97.4,110.9c-1-0.6-1.7-1.4-2.2-2.3s-0.9-1.9-1-2.9c-0.2-1-0.2-2.1,0.1-3.1c0.3-1,1-2,2.2-2.5
				c0.3-0.2,0.7,0,0.9,0.3l0,0c0.7,1.1,1,1.9,1.2,2.7c0.2,0.8,0.1,1.5,0.1,2.2c0,0.8,0,1.5-0.1,2.4c-0.1,0.8-0.1,1.7-0.3,2.7v0.1
				c-0.1,0.3-0.4,0.5-0.7,0.5C97.5,111,97.4,110.9,97.4,110.9z"/>
		</g>
		<g>
			<path class="st8" d="M104.4,103.7c0,1-0.3,1.8-0.6,2.6c-0.4,0.8-0.9,1.5-1.4,2.1c-0.6,0.6-1.2,1.2-2,1.5s-1.7,0.4-2.8,0
				c-0.3-0.1-0.5-0.5-0.5-0.8l0,0c0.2-1.1,0.5-1.7,0.9-2.3c0.3-0.5,0.8-0.9,1.1-1.4c0.4-0.4,0.8-0.9,1.2-1.3
				c0.4-0.4,0.9-0.9,1.4-1.2l0.5-0.3c0.7-0.5,1.6-0.3,2.1,0.4C104.3,103.1,104.4,103.4,104.4,103.7z"/>
		</g>
		<g>
			<path class="st9" d="M105.5,106.6c-0.3,1-0.7,1.7-1.2,2.4c-0.5,0.7-1.1,1.3-1.8,1.9c-0.7,0.5-1.4,1-2.3,1.3
				c-0.8,0.3-1.8,0.4-2.9,0c-0.4-0.1-0.6-0.5-0.4-0.9l0,0c0.3-1.1,0.7-1.7,1.2-2.3c0.5-0.6,1-1,1.5-1.5s1.1-0.9,1.6-1.3
				c0.6-0.4,1.2-0.9,1.8-1.2l0.3-0.2c0.8-0.4,1.7,0,2,0.7C105.6,105.8,105.6,106.2,105.5,106.6z"/>
		</g>
		<g>
			<path class="st10" d="M96.1,110.7c-1.1-0.2-2-0.8-2.8-1.4c-0.8-0.7-1.4-1.4-1.9-2.3s-0.9-1.8-0.9-2.8s0.2-2.1,1.1-3.1
				c0.2-0.3,0.7-0.3,1-0.1l0,0c1.1,0.7,1.6,1.4,2.1,2c0.4,0.7,0.6,1.4,0.9,2.1c0.2,0.7,0.5,1.5,0.7,2.3s0.4,1.7,0.5,2.7v0.1
				c0,0.3-0.2,0.6-0.5,0.6C96.3,110.7,96.2,110.7,96.1,110.7z"/>
		</g>
		<g>
			<path class="st5" d="M96.7,111.9c-0.9-0.7-1.3-1.6-1.6-2.5c-0.3-0.9-0.4-1.8-0.3-2.7c0.1-0.9,0.3-1.8,0.9-2.5s1.5-1.3,3-1.3
				l1.1,0.7c0.7,1.3,0.9,2,1,2.7s-0.2,1.2-0.4,1.7c-0.2,0.5-0.5,1.1-0.9,1.7s-0.9,1.2-1.6,2L96.7,111.9z"/>
		</g>
	</g>
	<g id="bud">
		<g>
			<path class="st1" d="M107,81.2c0.1,0.5,0,1.2,0,1.8c0,0.6-0.1,1.2-0.2,1.8c-0.1,0.6-0.1,1.2-0.4,1.8c-0.1,0.3-0.2,0.6-0.5,1
				c-0.2,0.3-0.4,0.7-0.8,1.1l0,0c-0.3,0.3-0.7,0.3-0.9,0.1c-0.9-0.6-1.4-1.3-1.6-2.1c-0.3-0.8-0.2-1.6-0.2-2.4
				c0.1-0.8,0.3-1.6,0.6-2.4c0.3-0.8,0.7-1.4,1.5-2.1c0.6-0.6,1.5-0.5,2.1,0.1c0.2,0.2,0.3,0.5,0.4,0.8V81.2z"/>
		</g>
		<g>
			<path class="st6" d="M110.3,82.7c0.2,0.9,0.1,1.6,0,2.3c-0.2,0.7-0.4,1.4-0.8,2s-0.8,1.3-1.4,1.7c-0.6,0.4-1.4,0.7-2.5,0.6
				c-0.4,0-0.6-0.3-0.7-0.7v-0.1c-0.1-1-0.1-1.6,0-2.2s0.4-1,0.6-1.5s0.5-0.9,0.8-1.4c0.3-0.4,0.6-1,1-1.3l0.4-0.4
				c0.6-0.6,1.6-0.5,2.1,0.1C110.1,82.2,110.2,82.4,110.3,82.7z"/>
		</g>
		<g>
			<path class="st23" d="M102.1,97c-1-0.4-1.8-1-2.4-1.7s-1.1-1.5-1.5-2.4s-0.7-1.8-0.6-2.8s0.4-2,1.3-2.9c0.3-0.3,0.7-0.3,1-0.1
				l0,0c1.1,0.8,1.5,1.4,1.9,2.1s0.5,1.4,0.7,2.1s0.3,1.5,0.4,2.3s0.1,1.7,0,2.7v0.1c0,0.3-0.3,0.6-0.6,0.5
				C102.3,97.1,102.2,97.1,102.1,97z"/>
		</g>
		<g>
			<path class="st13" d="M109.7,89.7c-0.2,0.9-0.5,1.5-0.9,2.1s-1,1.1-1.5,1.5c-0.6,0.4-1.2,0.8-2,0.9c-0.7,0.1-1.6,0-2.5-0.5
				c-0.3-0.2-0.4-0.6-0.3-0.9v-0.1c0.3-1,0.6-1.5,0.9-2c0.3-0.4,0.8-0.7,1.1-1c0.4-0.3,0.8-0.6,1.2-0.9c0.4-0.3,0.9-0.6,1.5-0.7
				l0.6-0.2c0.8-0.2,1.6,0.2,1.9,1C109.8,89.2,109.8,89.5,109.7,89.7z"/>
		</g>
		<g>
			<path class="st9" d="M108.5,94.2c-0.2,0.9-0.5,1.6-1,2.3c-0.4,0.7-1,1.3-1.6,1.8s-1.3,1-2.1,1.2c-0.8,0.2-1.8,0.2-2.7-0.3
				c-0.3-0.2-0.5-0.5-0.4-0.9v-0.1c0.3-1,0.7-1.6,1.1-2.1s0.8-0.8,1.3-1.3c0.4-0.4,0.9-0.8,1.4-1.2c0.5-0.4,1-0.8,1.6-1l0.4-0.2
				c0.8-0.3,1.7,0,2,0.8C108.5,93.6,108.6,93.9,108.5,94.2z"/>
		</g>
		<g>
			<path class="st16" d="M102.2,91.6c-0.8-0.6-1.4-1.2-1.8-2c-0.4-0.7-0.7-1.5-0.8-2.3c-0.1-0.8-0.2-1.7,0.1-2.5
				c0.3-0.8,0.8-1.6,1.9-2.2c0.3-0.2,0.7-0.1,0.9,0.2l0,0c0.9,0.9,1.2,1.5,1.5,2.2c0.2,0.6,0.2,1.3,0.2,1.9c0,0.7-0.1,1.3-0.2,2.1
				c-0.2,0.7-0.4,1.5-0.7,2.3v0.1C103,91.7,102.6,91.8,102.2,91.6C102.3,91.7,102.2,91.6,102.2,91.6z"/>
		</g>
		<g>
			<path class="st15" d="M103.1,91.9c-0.5-0.8-0.8-1.7-0.8-2.5c-0.1-0.8,0-1.7,0.2-2.5s0.5-1.6,1.1-2.2s1.4-1.1,2.7-1.1
				c0.4,0,0.7,0.2,0.8,0.5l0,0c0.4,1.2,0.4,1.9,0.4,2.6c-0.1,0.7-0.4,1.2-0.7,1.8c-0.3,0.6-0.6,1.1-1.1,1.7
				c-0.4,0.6-0.9,1.2-1.6,1.8l-0.1,0.1C103.8,92.2,103.4,92.2,103.1,91.9C103.2,91.9,103.1,91.9,103.1,91.9z"/>
		</g>
		<g>
			<path class="st10" d="M100.5,101.2c-1-0.2-1.8-0.7-2.5-1.3c-0.7-0.6-1.2-1.3-1.7-2.1c-0.4-0.8-0.8-1.6-0.8-2.5s0.2-1.9,1-2.8
				c0.2-0.3,0.6-0.4,1-0.2l0,0c1.1,0.6,1.7,1.1,2.2,1.7c0.4,0.6,0.6,1.3,0.8,1.9c0.2,0.7,0.4,1.4,0.5,2.1c0.1,0.8,0.2,1.6,0.2,2.5
				v0.1C101.2,100.9,100.9,101.2,100.5,101.2C100.6,101.3,100.6,101.2,100.5,101.2z"/>
		</g>
		<g>
			<path class="st14" d="M104.3,93.1c0.2,0.8,0.2,1.5,0.1,2.2s-0.3,1.4-0.5,2.1c-0.3,0.7-0.5,1.3-1,1.9s-1.2,1.1-2.2,1.3
				c-0.4,0.1-0.7-0.1-0.9-0.4l0,0c-0.4-1-0.5-1.7-0.5-2.3c0-0.7,0.2-1.2,0.4-1.8c0.2-0.6,0.4-1.2,0.7-1.8c0.3-0.6,0.6-1.2,1.1-1.7
				l0.1-0.1c0.6-0.7,1.6-0.7,2.3-0.1C104,92.5,104.2,92.8,104.3,93.1z"/>
		</g>
	</g>
	<g id="sepal">
		<g id="bud_copy_31_1_">
			<path class="st13" d="M84.4,138.8c0.1-1.1-2.4-1.5-1.7,0.8c-0.5-0.8-1.4,0.1-0.6,1.4c0.2,0.3,1.2,0.6,1.2,1.7
				c0.1,1.4,0.5,1,0.8,1.2c0.9,0.4,1.4-0.3,1.3-1.9c1.2-2.5,0.9-4.7-0.8-4.5C84.4,137.4,84.2,138.2,84.4,138.8z"/>
		</g>
		<g id="bud_copy_31">
			<path class="st13" d="M93.3,141.1c0.4-1,2.8-0.2,1.1,1.5c0.9-0.5,1.2,0.8-0.1,1.5c-0.3,0.2-1.4-0.1-1.8,1c-0.7,1.2-1,0.7-1.3,0.6
				c-0.9-0.1-1.1-0.9-0.3-2.3c0.1-2.7,1.4-4.6,2.8-3.7C93.9,139.9,93.7,140.7,93.3,141.1z"/>
		</g>
		<g>
			<path class="st3" d="M90.4,119.3c0.8,0.5,1.1,1.3,1.4,2s0.6,1.3,1.2,1.5s1.3-0.2,1.9-0.5s1.3-0.6,2.3-0.4
				c0.3,0.1,0.6,0.5,0.5,0.8v0.1c-0.4,1-1.3,1.3-2.2,1.5c-0.9,0.1-1.9,0-2.9-0.3c-0.9-0.3-1.8-1-2.3-1.7s-0.8-1.5-0.8-2.3l0,0
				c0-0.3,0.2-0.6,0.5-0.6C90.2,119.2,90.3,119.2,90.4,119.3z"/>
		</g>
		<g>
			<path class="st3" d="M98.3,97.4c0.7,0.5,0.9,1.1,1.1,1.6c0.2,0.6,0.3,1.1,0.8,1.2s0.9-0.3,1.4-0.6c0.5-0.3,1-0.6,1.9-0.3l0,0
				c0.4,0.1,0.6,0.5,0.5,0.9c-0.3,0.9-0.9,1.2-1.7,1.4c-0.8,0.1-1.7,0-2.5-0.3s-1.5-0.9-1.9-1.5s-0.6-1.2-0.5-2l0,0
				c0-0.3,0.3-0.5,0.6-0.5C98.1,97.3,98.2,97.3,98.3,97.4z"/>
		</g>
		<g>
			<path class="st3" d="M82.1,151.8c0.8,0.5,1.1,1.2,1.5,1.8c0.3,0.6,0.6,1.2,1.2,1.4s1.3-0.2,1.9-0.5s1.3-0.6,2.2-0.2l0,0
				c0.3,0.1,0.5,0.5,0.4,0.8v0.1c-0.5,0.9-1.3,1.2-2.1,1.3c-0.9,0.1-1.8-0.1-2.7-0.4c-0.9-0.3-1.7-0.9-2.3-1.5
				c-0.5-0.7-0.9-1.4-0.9-2.2l0,0c0-0.3,0.2-0.6,0.5-0.6C81.9,151.7,82,151.7,82.1,151.8z"/>
		</g>
		<g>
			<path class="st3" d="M86.8,132.7c0.8,0.5,1.3,1.2,1.6,1.8c0.4,0.7,0.7,1.3,1.4,1.3c0.6,0.1,1.2-0.4,1.8-0.9
				c0.6-0.4,1.2-0.9,2.3-0.8c0.4,0,0.6,0.3,0.6,0.7v0.1c-0.3,1-1,1.5-1.9,1.8s-1.9,0.4-2.9,0.2s-1.9-0.8-2.5-1.5s-1-1.4-1.1-2.3l0,0
				c0-0.3,0.2-0.6,0.5-0.6C86.6,132.6,86.7,132.6,86.8,132.7z"/>
		</g>
		<g>
			<path class="st3" d="M74.4,174.8c0.8,0.7,1.1,1.7,1.4,2.5s0.6,1.7,1.3,1.8c0.7,0.2,1.5-0.3,2.2-0.7s1.5-0.9,2.7-0.8
				c0.3,0,0.6,0.3,0.6,0.7c0,0.1,0,0.1,0,0.2c-0.5,1.1-1.4,1.5-2.4,1.8s-2.2,0.3-3.4-0.1c-1.1-0.4-1.9-1.4-2.5-2.2
				c-0.5-0.9-0.8-1.8-0.8-2.8l0,0c0-0.3,0.2-0.5,0.5-0.5C74.2,174.7,74.3,174.7,74.4,174.8z"/>
		</g>
	</g>
</g>
</svg>
