<?xml version="1.0" encoding="utf-8"?>
<!-- Generator: Adobe Illustrator 23.0.0, SVG Export Plug-In . SVG Version: 6.00 Build 0)  -->
<svg version="1.1" id="animation-right" xmlns="http://www.w3.org/2000/svg" xmlns:xlink="http://www.w3.org/1999/xlink" x="0px"
	 y="0px" viewBox="0 0 110.7 347" style="enable-background:new 0 0 110.7 347;" xml:space="preserve">
<style type="text/css">
	.st0{fill:#9E99E1;}
	.st1{fill:#BC97D2;}
	.st2{fill:#B78BE8;}
	.st3{fill:#C2CE79;}
	.st4{fill:#AAA5E5;}
	.st5{fill:#BEAFE8;}
	.st6{fill:#E2D0EE;}
	.st7{fill:#D1B5E5;}
	.st8{fill:#D6BCE8;}
	.st9{fill:#DECAED;}
	.st10{fill:#E6D6F1;}
	.st11{fill:#A7A1E4;}
	.st12{fill:#ACA8E6;}
	.st13{fill:#A69AFF;}
	.st14{fill:#BE97EB;}
	.st15{fill:#E6D7F1;}
	.st16{fill:#9690DF;}
	.st17{fill:#D1B6E5;}
	.st18{fill:#D8C0E9;}
	.st19{fill:#A29CE3;}
	.st20{fill:#DAC4EA;}
	.st21{fill:#9F9AE2;}
	.st22{fill:#CAABDB;}
	.st23{fill:#AFAAE7;}
	.st24{fill:#A5A0E4;}
	.st25{fill:#9892E0;}
	.st26{fill:#BF9BD4;}
	.st27{fill:#E2D0EF;}
	.st28{fill:#A9A4E5;}
	.st29{fill:#A094FF;}
	.st30{fill:#D0C5EE;}
	.st31{fill:#9A94E0;}
	.st32{fill:#C1B2E9;}
	.st33{fill:#B68AE8;}
	.st34{fill:#A8A3E4;}
	.st35{fill:#CAAAEE;}
	.st36{fill:#CEC2EE;}
	.st37{fill:#E2D1EF;}
	.st38{fill:#D2B7E6;}
	.st39{fill:#A48ED6;}
	.st40{fill:#CCAFDD;}
	.st41{fill:#D7BEE8;}
	.st42{fill:#958FDF;}
	.st43{fill:#D4BAE7;}
	.st44{fill:#B19EDC;}
	.st45{fill:#DBC5EA;}
	.st46{fill:#A183CC;}
</style>
<g id="branch-4">
	<g id="_x37_">
		<g>
			<path class="st0" d="M64.2,77.5c-1.3-0.3-2.4-1-3.3-1.7c-1-0.8-1.8-1.7-2.4-2.8c-0.6-1-1.2-2.2-1.4-3.5c-0.2-1.2,0-2.6,0.8-3.9
				c0.2-0.3,0.6-0.4,0.9-0.2c0,0,0,0,0,0l0,0c1.2,0.9,1.8,1.8,2.3,2.6c0.5,0.8,0.9,1.7,1.3,2.6l1.2,2.8c0.4,1,0.8,2,1.2,3.1l0,0.1
				c0.1,0.3-0.1,0.6-0.4,0.7C64.4,77.6,64.3,77.6,64.2,77.5z"/>
		</g>
		<g>
			<path class="st1" d="M62.6,79c-1.4,0.1-2.6-0.3-3.8-0.8c-1.2-0.5-2.2-1.3-3.1-2.2c-0.9-0.9-1.8-1.9-2.2-3.1
				c-0.5-1.2-0.6-2.6-0.1-4c0.1-0.3,0.5-0.5,0.8-0.4c0,0,0,0,0.1,0l0,0c1.4,0.7,2.2,1.4,2.9,2.1c0.7,0.7,1.3,1.5,1.9,2.3l1.9,2.4
				c0.6,0.8,1.3,1.7,2,2.7l0,0.1c0.2,0.2,0.1,0.6-0.1,0.8C62.8,79,62.7,79,62.6,79z"/>
		</g>
		<g>
			<path class="st2" d="M67.2,66.7c0.3,0.6,0.4,1.1,0.5,1.7c0.1,0.6,0.2,1.1,0.2,1.7c0,1.1-0.1,2.2-0.4,3.3
				c-0.2,0.5-0.3,1.1-0.5,1.6c-0.2,0.5-0.4,1-0.7,1.5c-0.6,0.9-1.4,1.7-2.6,2.2c-0.3,0.1-0.7,0-0.8-0.4c0,0,0-0.1,0-0.1l0,0
				c-0.2-0.6-0.2-1.2-0.2-1.7c0-0.5,0-1,0.1-1.4c0.1-0.9,0.4-1.7,0.5-2.6l0.5-2.5c0.2-0.8,0.3-1.8,0.6-2.5l0.1-0.4
				c0.2-0.8,1.1-1.2,1.8-1C66.7,66,67.1,66.4,67.2,66.7z"/>
		</g>
		<g>
			<path class="st3" d="M107.8,315.6c-7.2-25.1-15.8-49.9-22.6-75.3c-7-25.3-12-51.2-15.3-77.2c-0.8-6.5-1.6-13-2.3-19.6l-1.7-19.6
				c-0.5-6.5-0.8-13.1-1.2-19.6l-0.3-4.9c-0.1-1.6-0.2-3.3-0.2-4.9l-0.3-9.8l-0.3-9.8l-0.2-4.9c0-1.6,0-3.3,0-4.9l-0.1-19.7
				c-0.1-6.6,0.1-13.1,0.2-19.7L63.7,6l2,0.1l-0.3,19.6c-0.1,6.5-0.3,13.1-0.1,19.6l0.2,19.6c0,1.6,0,3.3,0.1,4.9l0.2,4.9l0.3,9.8
				l0.3,9.8c0,1.6,0.1,3.3,0.2,4.9l0.3,4.9c0.4,6.5,0.8,13.1,1.3,19.6l1.8,19.5c0.7,6.5,1.6,13,2.3,19.5
				c3.5,25.9,8.5,51.6,15.5,76.8c6.8,25.2,15.5,50,22.8,75.2L107.8,315.6z"/>
		</g>
		<g>
			<path class="st4" d="M74.4,68.5c0.1,0.5,0.1,0.8,0.1,1.1c0,0.3,0,0.7-0.1,1c-0.1,0.7-0.3,1.3-0.5,1.9c-0.5,1.2-1.1,2.4-1.9,3.4
				c-0.4,0.5-0.8,1-1.3,1.4c-0.4,0.5-1,0.8-1.5,1.2c-1.1,0.6-2.3,1.1-3.7,1c-0.3,0-0.6-0.3-0.6-0.6c0-0.1,0-0.1,0-0.2l0,0
				c0.2-0.7,0.5-1.2,0.8-1.7c0.3-0.5,0.6-1,0.9-1.4c0.6-0.9,1.3-1.6,1.9-2.4c0.6-0.8,1.1-1.6,1.6-2.4c0.2-0.4,0.5-0.8,0.7-1.2
				l0.3-0.6c0.1-0.2,0.2-0.5,0.3-0.5l0.8-0.7c0.5-0.5,1.4-0.4,1.8,0.1C74.3,68,74.4,68.2,74.4,68.5z"/>
		</g>
		<g>
			<path class="st5" d="M70.4,69.4c0.2,1.2,0.1,2.2-0.1,3.2c-0.2,1-0.6,2-1,2.9c-0.5,0.9-1,1.8-1.7,2.5c-0.7,0.7-1.7,1.3-2.9,1.5
				c-0.4,0.1-0.7-0.2-0.8-0.5c0,0,0-0.1,0-0.1l0,0c-0.1-1.2,0.1-2.1,0.4-3c0.3-0.8,0.7-1.6,1-2.4c0.4-0.8,0.7-1.5,1.1-2.3
				c0.4-0.7,0.8-1.6,1.2-2.2l0.2-0.3c0.5-0.7,1.4-0.9,2.1-0.4C70.1,68.5,70.3,68.9,70.4,69.4z"/>
		</g>
		<g>
			<path class="st6" d="M63.9,79.7c-1.5-0.1-2.2-0.9-2.8-1.6c-0.6-0.7-0.9-1.5-1.1-2.3c-0.1-0.8-0.3-1.5,0.1-2.3
				c0.3-0.7,1-1.4,2.3-2l1,0.1c1.3,0.8,1.8,1.4,2.1,2c0.3,0.6,0.3,1.2,0.2,1.7c-0.1,0.6-0.2,1.1-0.4,1.6c-0.2,0.5-0.5,1.1-1,1.9
				L63.9,79.7z"/>
		</g>
	</g>
	<g id="leaf_1_">
		<g>
			<path class="st3" d="M108.6,252.5c-0.2,2.6-0.8,5.1-1.5,7.6c-0.7,2.5-1.6,4.9-2.4,7.4c-0.9,2.4-1.9,4.8-2.9,7.2
				c-1,2.4-2.1,4.7-3.4,7l0,0l-0.3,0.6l-0.5-0.5c-1.8-1.7-3.3-3.6-4.8-5.5c-1.4-2-2.7-4.1-3.8-6.2c-1.1-2.2-2.2-4.4-3-6.7
				c-0.8-2.3-1.4-4.7-1.6-7.1c0-0.3,0.2-0.5,0.5-0.6c0.2,0,0.4,0.1,0.5,0.3c1.2,2.1,2.2,4.3,3.2,6.4c1,2.1,1.9,4.3,3,6.4
				c1,2.1,2.1,4.2,3.3,6.3c1.1,2.1,2.3,4.1,3.6,6.1l-0.9,0.1l0,0c0.7-2.5,1.5-4.9,2.3-7.4l2.4-7.3c0.8-2.4,1.6-4.9,2.5-7.3
				c0.9-2.4,1.8-4.8,3-7.1c0.1-0.3,0.4-0.3,0.7-0.2C108.5,252.1,108.6,252.3,108.6,252.5z"/>
		</g>
	</g>
	<g id="_x31__2_">
		<g>
			<path class="st1" d="M71.2,190.6c0.1,0.1,0.2,0.3,0.4,0.4c0.1,0.2,0.2,0.3,0.4,0.5c0.3,0.3,0.5,0.6,0.7,0.9
				c0.5,0.6,1,1.2,1.6,1.8c0.6,0.6,1.2,1.1,1.7,1.8c0.3,0.4,0.6,0.7,0.8,1.1c0.3,0.4,0.6,0.9,0.8,1.5l0,0c0.1,0.3,0,0.7-0.4,0.8
				c0,0-0.1,0-0.1,0c-1.2,0.3-2.4,0.1-3.4-0.3c-0.5-0.2-1-0.5-1.4-0.8c-0.5-0.3-0.9-0.7-1.3-1.1c-0.8-0.8-1.5-1.7-2-2.8
				c-0.3-0.5-0.4-1.1-0.6-1.6c-0.1-0.3-0.1-0.6-0.2-0.9c0-0.3,0-0.6,0-1c0-0.7,0.6-1.2,1.3-1.2c0.2,0,0.4,0.1,0.6,0.1L71.2,190.6z"
				/>
		</g>
		<g>
			<path class="st7" d="M78.3,199.7c-0.2-1.2-0.3-2.3-0.4-3.3c0-1.1-0.1-2.1,0-3.1c0-1,0-2,0.1-2.9c0.1-1,0.4-1.9,0.9-3.1l0-0.1
				c0.2-0.5,0.7-0.7,1.2-0.5c0.1,0,0.1,0.1,0.2,0.1c1.2,0.8,1.8,2.1,2.1,3.3c0.3,1.2,0.2,2.4,0,3.6c-0.2,1.2-0.6,2.3-1.1,3.4
				c-0.5,1.1-1.1,2.1-2,3c-0.2,0.2-0.6,0.2-0.8,0C78.4,200,78.3,199.9,78.3,199.7L78.3,199.7z"/>
		</g>
		<g>
			<path class="st8" d="M76,202c-0.6-1-1-2-1.5-3c-0.4-1-0.8-1.9-1.1-2.9c-0.3-0.9-0.7-1.8-0.9-2.8c-0.2-1-0.3-1.9-0.2-3.2l0-0.1
				c0-0.5,0.5-0.9,1-0.8c0.1,0,0.1,0,0.2,0c1.4,0.4,2.4,1.4,3.1,2.4c0.7,1.1,1,2.2,1.2,3.4c0.2,1.2,0.3,2.4,0.1,3.5
				c-0.1,1.2-0.4,2.3-0.9,3.5c-0.1,0.3-0.5,0.4-0.7,0.3C76.2,202.2,76.1,202.1,76,202L76,202z"/>
		</g>
		<g>
			<path class="st8" d="M68.5,192.5c1,0.6,2,1.4,2.8,2.1c0.9,0.7,1.8,1.5,2.6,2.2c0.9,0.8,1.8,1.5,2.6,2.4c0.4,0.5,0.8,1,1.1,1.6
				c0.3,0.6,0.7,1.3,0.9,2.2l0,0c0.1,0.4-0.1,0.7-0.5,0.8c-1.8,0.5-3.2,0.3-4.6-0.2c-0.7-0.3-1.3-0.6-1.8-1
				c-0.6-0.4-1.1-0.9-1.7-1.3c-1-1-2-2.1-2.7-3.3c-0.7-1.3-1.3-2.6-1.5-4.3c-0.1-0.8,0.5-1.6,1.3-1.7c0.3,0,0.7,0,1,0.2L68.5,192.5z
				"/>
		</g>
		<g>
			<path class="st8" d="M78.2,201.5c1.1-2.3,2.1-4.4,2.9-6.5c0.4-1,0.7-2.1,1.1-3.1c0.4-1,0.8-2.1,1.6-3.2l0.1-0.1
				c0.3-0.4,0.9-0.6,1.3-0.3c0.1,0.1,0.2,0.2,0.3,0.3c0.7,1.3,0.9,2.8,0.7,4.1c-0.2,1.4-0.7,2.7-1.4,3.9c-0.7,1.2-1.5,2.3-2.5,3.2
				c-1,0.9-2.1,1.7-3.5,2.2c-0.2,0.1-0.5,0-0.6-0.3C78.1,201.8,78.1,201.6,78.2,201.5L78.2,201.5z"/>
		</g>
		<g>
			<path class="st6" d="M79.1,202.9c0.6-1.3,1.3-2.4,2-3.4c0.7-1,1.4-2,2.1-3c0.7-0.9,1.3-1.9,2.2-2.7c0.9-0.8,1.7-1.6,3.3-2.4l0,0
				c0.3-0.2,0.7,0,0.9,0.3c0,0,0,0,0,0.1c0.6,1.6,0.4,3.2-0.1,4.6c-0.5,1.4-1.4,2.5-2.4,3.5c-1,1-2.1,1.9-3.3,2.5
				c-1.2,0.7-2.6,1.2-4.1,1.4c-0.3,0-0.6-0.2-0.6-0.5C79,203.1,79,203,79.1,202.9L79.1,202.9z"/>
		</g>
		<g>
			<path class="st9" d="M73.6,196.8c1,0.7,1.5,0.9,1.9,1.3c0.5,0.4,1.1,0.7,1.5,1.3c0.5,0.6,0.8,1.3,1.1,2.2
				c0.2,0.4,0.3,0.9,0.4,1.5c0.1,0.5,0.2,1.1,0.2,1.9l0,0c0,0.3-0.2,0.5-0.4,0.5c-1.4,0.3-2.6,0.2-3.7-0.2c-1-0.4-2-1-2.7-1.9
				c-0.7-0.9-1.2-2.1-1.4-3.5c-0.1-0.7-0.2-1.4,0.1-2.1c0.2-0.8,0.7-1.4,1.6-1.9c0.1,0,0.2,0,0.2,0L73.6,196.8z"/>
		</g>
		<g>
			<path class="st10" d="M80.2,194.1c1.9,0.3,2.7,1.7,3,2.9c0.4,1.2,0.5,2.5,0.2,3.7c-0.3,1.1-0.8,2.1-1.6,3c-0.8,0.8-1.7,1.5-3,2
				c-0.3,0.1-0.5-0.1-0.6-0.3l0,0c-0.2-0.6-0.4-1.2-0.5-1.7c-0.1-0.5-0.2-1-0.2-1.5c0-0.5-0.1-0.9,0-1.3c0-0.4,0-0.8,0-1.2
				c0.1-0.7,0.3-1.4,0.5-2c0.1-0.6,0.4-1.2,1.1-2.4l0.4-0.8C79.6,194.2,79.9,194.1,80.2,194.1z"/>
		</g>
	</g>
	<g id="_x32__2_">
		<g>
			<path class="st11" d="M82.3,158c0.7,1.5,0.5,2.8,0,4c-0.4,1.2-1,2.4-1.9,3.3c-0.4,0.5-0.9,0.9-1.4,1.3c-0.5,0.4-1,0.8-1.5,1.1
				c-1.1,0.6-2.3,1-3.7,1.1c-0.2,0-0.4-0.2-0.4-0.4c0-0.1,0-0.1,0-0.2l0,0c0.2-0.6,0.5-1.2,0.8-1.7c0.2-0.5,0.5-1,0.8-1.5l1.5-2.6
				c0.5-0.8,1-1.6,1.5-2.4c0.5-0.8,1-1.6,2.1-2.3l0.4-0.2c0.6-0.4,1.3-0.2,1.7,0.4C82.2,157.9,82.2,157.9,82.3,158z"/>
		</g>
		<g>
			<path class="st12" d="M73,167.9c-1.5-0.2-2.7-0.7-3.9-1.5c-1.1-0.7-2.1-1.7-2.9-2.8c-0.8-1.1-1.5-2.3-1.6-3.7
				c-0.2-1.4,0.1-2.9,1.2-4.3c0.2-0.3,0.6-0.3,0.9-0.2l0,0c1.5,0.9,2.3,1.7,2.9,2.5c0.7,0.8,1,1.7,1.4,2.6c0.4,0.9,0.8,1.9,1.3,2.9
				c0.4,1.1,0.8,2.2,1.1,3.5l0,0.1c0.1,0.3-0.1,0.6-0.4,0.7C73.1,167.9,73,167.9,73,167.9z"/>
		</g>
		<g>
			<path class="st13" d="M76.2,155.6c0.5,1.1,0.6,2.1,0.7,3.1c0,1-0.1,2.1-0.4,3.1c-0.3,1-0.6,2-1.3,2.8c-0.6,0.8-1.5,1.5-2.7,1.8
				c-0.4,0.1-0.7-0.1-0.8-0.5c0,0,0,0,0-0.1l0,0c-0.2-1.2-0.1-2.1-0.1-2.9c0.1-0.8,0.4-1.5,0.5-2.3l0.5-2.3c0.2-0.7,0.3-1.6,0.6-2.3
				l0.1-0.4c0.3-0.8,1.1-1.2,1.9-0.9C75.7,155,76,155.3,76.2,155.6z"/>
		</g>
		<g>
			<path class="st8" d="M79.6,159.3c0.4,1.2,0.4,2.3,0.3,3.4c-0.1,1.1-0.5,2.1-1,3.1c-0.2,0.5-0.5,0.9-0.8,1.4
				c-0.3,0.4-0.7,0.9-1.1,1.2c-0.9,0.7-2,1.1-3.6,0.9c-0.4,0-0.6-0.3-0.7-0.6l0-0.1c-0.2-0.8-0.2-1.4-0.2-1.9c0-0.6,0.1-1,0.2-1.4
				c0.1-0.4,0.3-0.8,0.5-1.1c0.2-0.4,0.4-0.7,0.6-1.1c0.4-0.7,0.8-1.4,1.3-2c0.5-0.7,1-1.4,1.7-2l0.4-0.3c0.7-0.6,1.7-0.5,2.2,0.2
				C79.5,158.9,79.6,159.1,79.6,159.3z"/>
		</g>
		<g>
			<path class="st8" d="M69.9,168c-1.3,0-2.5-0.4-3.5-1c-1.1-0.6-2-1.3-2.9-2.2c-0.8-0.9-1.6-1.8-2-3c-0.4-1.1-0.6-2.4-0.2-3.8
				c0.1-0.3,0.4-0.5,0.7-0.4c0,0,0.1,0,0.1,0l0,0c1.3,0.6,2,1.3,2.7,2.1c0.7,0.7,1.2,1.5,1.8,2.3l1.8,2.4c0.6,0.8,1.2,1.7,1.9,2.7
				l0,0.1c0.1,0.2,0.1,0.5-0.1,0.7C70.1,167.9,70,168,69.9,168z"/>
		</g>
		<g>
			<path class="st6" d="M71.7,169c-1.2,0.2-2.3,0.1-3.3-0.2c-1-0.3-2-0.8-2.8-1.5c-0.8-0.6-1.7-1.4-2.1-2.4c-0.5-1-0.6-2.2-0.1-3.6
				c0.1-0.3,0.5-0.5,0.8-0.5l0,0c1.5,0.2,2.3,0.6,3,1.1c0.7,0.5,1.2,1.1,1.8,1.7c0.5,0.6,1.1,1.3,1.6,2c0.5,0.7,1.1,1.6,1.6,2.6
				l0,0.1c0.1,0.3,0,0.7-0.3,0.8C71.8,168.9,71.8,169,71.7,169z"/>
		</g>
		<g>
			<path class="st9" d="M72.4,158.3c1,0,1.7,0.4,2.2,0.9c0.5,0.5,0.8,1.1,1,1.6c0.5,1.1,0.7,2.4,0.5,3.4c-0.2,1.1-0.6,2.1-1.3,3
				c-0.7,0.9-1.6,1.6-3,2.2c-0.3,0.1-0.5,0-0.7-0.2l0,0c-0.4-0.6-0.7-1.2-0.9-1.7c-0.2-0.5-0.4-1-0.5-1.5c-0.1-0.5-0.2-0.9-0.2-1.3
				c-0.1-0.4,0-0.8,0-1.2c0-0.8,0.4-1.4,0.7-2.1c0.2-0.4,0.3-0.7,0.5-1.1l0.5-0.7c0.1-0.1,0.2-0.3,0.3-0.4l0.3-0.5l0.1-0.2
				C72.2,158.3,72.3,158.3,72.4,158.3z"/>
		</g>
	</g>
	<g id="_x33__1_">
		<g>
			<path class="st11" d="M62,138.3c1.2,0.5,2,1.2,2.7,1.9c0.8,0.7,1.6,1.4,2.3,2.1c0.8,0.8,1.6,1.5,2.4,2.3c0.4,0.4,0.9,0.8,1.3,1.3
				c0.4,0.4,0.9,0.9,1.3,1.5l0,0c0.1,0.2,0.1,0.4-0.1,0.6c-0.1,0-0.1,0.1-0.2,0.1c-0.7,0.1-1.4,0.1-2.1,0.1c-0.7-0.1-1.4-0.1-2-0.3
				c-0.6-0.2-1.3-0.4-1.9-0.7c-0.6-0.3-1.2-0.6-1.8-1c-1.2-0.8-2.2-1.8-3-3c-0.8-1.2-1.4-2.5-1.1-4.3c0.1-0.6,0.7-1,1.3-0.9
				c0.1,0,0.1,0,0.2,0.1L62,138.3z"/>
		</g>
		<g>
			<path class="st12" d="M69,148.4c-0.2-1.3-0.2-2.5-0.1-3.5c0-1.1,0.1-2,0.2-3c0.1-0.9,0.1-1.8,0.4-2.7c0.3-0.9,0.8-1.8,1.8-3.2
				l0-0.1c0.2-0.3,0.6-0.4,0.9-0.2c1.6,0.7,2.4,2.1,2.7,3.4c0.3,1.3,0.1,2.7-0.3,3.9c-0.4,1.2-1,2.4-1.8,3.4c-0.8,1-1.8,1.9-3.1,2.4
				c-0.3,0.1-0.7,0-0.8-0.3C69.1,148.6,69.1,148.5,69,148.4L69,148.4z"/>
		</g>
		<g>
			<path class="st1" d="M66.8,137.8c0.2,0.3,0.3,0.7,0.4,1.1l0.4,1.1c0.3,0.7,0.6,1.4,0.9,2.1c0.3,0.7,0.7,1.4,1,2.1
				c0.1,0.4,0.3,0.8,0.4,1.3c0.1,0.5,0.2,0.9,0.3,1.6l0,0.1c0,0.4-0.2,0.7-0.6,0.7c0,0,0,0-0.1,0c-1.2,0-2.3-0.5-3.1-1.2
				c-0.9-0.7-1.4-1.6-1.9-2.6c-0.5-1-0.8-2-1-3.1c-0.1-1.1-0.1-2.1,0.3-3.4c0.2-0.8,1-1.2,1.8-1c0.4,0.1,0.6,0.3,0.8,0.6L66.8,137.8
				z"/>
		</g>
		<g>
			<path class="st8" d="M62.8,140.2c0.8,0.5,1.5,1.1,2.1,1.6c0.6,0.6,1.2,1.2,1.8,1.8c0.6,0.6,1.2,1.2,1.7,2
				c0.2,0.4,0.5,0.8,0.6,1.4c0.2,0.5,0.3,1.1,0.4,2l0,0c0,0.4-0.2,0.7-0.5,0.8c-1.5,0.6-2.8,0.4-3.9,0c-0.5-0.2-1-0.5-1.5-0.9
				c-0.5-0.4-0.8-0.8-1.2-1.2c-0.8-0.9-1.4-1.9-1.8-3c-0.4-1.1-0.7-2.2-0.5-3.7c0.1-0.8,0.8-1.4,1.7-1.4c0.2,0,0.4,0.1,0.6,0.2
				L62.8,140.2z"/>
		</g>
		<g>
			<path class="st8" d="M71.1,148c0.3-1.1,0.7-2.1,1.1-3.1l1.1-2.8c0.4-0.9,0.7-1.8,1.1-2.7c0.5-0.9,1-1.7,2-2.7l0,0
				c0.2-0.2,0.6-0.2,0.8,0c0,0,0,0.1,0.1,0.1c0.8,1.2,1,2.5,0.9,3.7c-0.1,1.2-0.6,2.4-1.2,3.4c-0.6,1.1-1.3,2-2.2,2.8
				c-0.9,0.8-1.9,1.5-3.1,1.9c-0.3,0.1-0.5-0.1-0.6-0.3C71.1,148.3,71.1,148.2,71.1,148L71.1,148z"/>
		</g>
		<g>
			<path class="st6" d="M70.1,150.3c0.2-1.2,0.5-2.3,0.8-3.3c0.3-1,0.7-2,1.1-2.9c0.4-0.9,0.7-1.8,1.3-2.6c0.6-0.8,1.3-1.6,2.6-2.5
				l0,0c0.3-0.2,0.7-0.1,1,0.2c0.9,1.3,1.1,2.7,1,3.9c-0.2,1.3-0.7,2.4-1.4,3.4c-0.7,1-1.4,2-2.4,2.7c-0.9,0.8-2,1.4-3.3,1.8
				c-0.3,0.1-0.6-0.1-0.7-0.4C70.1,150.5,70.1,150.4,70.1,150.3L70.1,150.3z"/>
		</g>
		<g>
			<path class="st9" d="M68.6,140.9l0.3,0.5c0.1,0.2,0.2,0.3,0.3,0.4l0.5,0.6c0.3,0.4,0.5,0.7,0.6,1c0.4,0.6,0.8,1.2,0.9,1.9
				c0.1,0.3,0.2,0.7,0.2,1.1c0.1,0.4,0.1,0.8,0,1.3c0,0.5-0.1,1-0.2,1.5c-0.1,0.5-0.2,1.2-0.5,1.9l0,0c-0.1,0.3-0.3,0.4-0.6,0.4
				c-1.5-0.2-2.5-0.8-3.4-1.6c-0.4-0.4-0.8-0.8-1.1-1.3c-0.3-0.5-0.6-1-0.8-1.6c-0.4-1.1-0.3-2.4,0.1-3.7c0.2-0.6,0.4-1.3,0.9-1.8
				c0.5-0.5,1.2-1,2.2-1c0.1,0,0.2,0.1,0.3,0.2L68.6,140.9z"/>
		</g>
	</g>
	<g id="_x34__1_">
		<g>
			<path class="st11" d="M77.5,122.3c0.7,1.5,0.5,2.8,0,4c-0.4,1.2-1,2.4-1.9,3.3c-0.4,0.5-0.9,0.9-1.4,1.3c-0.5,0.4-1,0.8-1.5,1.1
				c-1.1,0.6-2.3,1-3.7,1.1c-0.2,0-0.4-0.2-0.4-0.4c0-0.1,0-0.1,0-0.2l0,0c0.2-0.6,0.5-1.2,0.8-1.7c0.2-0.5,0.5-1,0.8-1.5l1.5-2.6
				c0.5-0.8,1-1.6,1.5-2.4c0.5-0.8,1-1.6,2.1-2.3l0.4-0.2c0.6-0.4,1.3-0.2,1.7,0.4C77.5,122.2,77.5,122.3,77.5,122.3z"/>
		</g>
		<g>
			<path class="st12" d="M68.3,132.3c-1.5-0.2-2.7-0.7-3.9-1.5c-1.1-0.7-2.1-1.7-2.9-2.8c-0.8-1.1-1.5-2.3-1.6-3.7
				c-0.2-1.4,0.1-2.9,1.2-4.3c0.2-0.3,0.6-0.3,0.9-0.2l0,0c1.5,0.9,2.3,1.7,2.9,2.5c0.7,0.8,1,1.7,1.4,2.6c0.4,0.9,0.8,1.9,1.3,2.9
				c0.4,1.1,0.8,2.2,1.1,3.5l0,0.1c0.1,0.3-0.1,0.6-0.4,0.7C68.4,132.3,68.3,132.3,68.3,132.3z"/>
		</g>
		<g>
			<path class="st13" d="M71.5,120c0.5,1.1,0.6,2.1,0.7,3.1c0,1-0.1,2.1-0.4,3.1c-0.3,1-0.6,2-1.3,2.8c-0.6,0.8-1.5,1.5-2.7,1.8
				c-0.4,0.1-0.7-0.1-0.8-0.5c0,0,0,0,0-0.1l0,0c-0.2-1.2-0.1-2.1-0.1-2.9c0.1-0.8,0.4-1.5,0.5-2.3l0.5-2.3c0.2-0.7,0.3-1.6,0.6-2.3
				l0.1-0.4c0.3-0.8,1.1-1.2,1.9-0.9C71,119.3,71.3,119.6,71.5,120z"/>
		</g>
		<g>
			<path class="st8" d="M74.9,123.7c0.4,1.2,0.4,2.3,0.3,3.4c-0.1,1.1-0.5,2.1-1,3.1c-0.2,0.5-0.5,0.9-0.8,1.4
				c-0.3,0.4-0.7,0.9-1.1,1.2c-0.9,0.7-2,1.1-3.6,0.9c-0.4,0-0.6-0.3-0.7-0.6l0-0.1c-0.2-0.8-0.2-1.4-0.2-1.9c0-0.6,0.1-1,0.2-1.4
				c0.1-0.4,0.3-0.8,0.5-1.1c0.2-0.4,0.4-0.7,0.6-1.1c0.4-0.7,0.8-1.4,1.3-2c0.5-0.7,1-1.4,1.7-2l0.4-0.3c0.7-0.6,1.7-0.5,2.2,0.2
				C74.8,123.3,74.9,123.5,74.9,123.7z"/>
		</g>
		<g>
			<path class="st8" d="M65.1,132.4c-1.3,0-2.5-0.4-3.5-1c-1.1-0.6-2-1.3-2.9-2.2c-0.8-0.9-1.6-1.8-2-3c-0.4-1.1-0.6-2.4-0.2-3.8
				c0.1-0.3,0.4-0.5,0.7-0.4c0,0,0.1,0,0.1,0l0,0c1.3,0.6,2,1.3,2.7,2.1c0.7,0.7,1.2,1.5,1.8,2.3l1.8,2.4c0.6,0.8,1.2,1.7,1.9,2.7
				l0,0.1c0.1,0.2,0.1,0.5-0.1,0.7C65.3,132.3,65.2,132.4,65.1,132.4z"/>
		</g>
		<g>
			<path class="st6" d="M67,133.4c-1.2,0.2-2.3,0.1-3.3-0.2c-1-0.3-2-0.8-2.8-1.5c-0.8-0.6-1.7-1.4-2.1-2.4c-0.5-1-0.6-2.2-0.1-3.6
				c0.1-0.3,0.5-0.5,0.8-0.5l0,0c1.5,0.2,2.3,0.6,3,1.1c0.7,0.5,1.2,1.1,1.8,1.7c0.5,0.6,1.1,1.3,1.6,2c0.5,0.7,1.1,1.6,1.6,2.6
				l0,0.1c0.1,0.3,0,0.7-0.3,0.8C67.1,133.3,67,133.4,67,133.4z"/>
		</g>
		<g>
			<path class="st9" d="M67.7,122.7c1,0,1.7,0.4,2.2,0.9c0.5,0.5,0.8,1.1,1,1.6c0.5,1.1,0.7,2.4,0.5,3.4c-0.2,1.1-0.6,2.1-1.3,3
				c-0.7,0.9-1.6,1.6-3,2.2c-0.3,0.1-0.5,0-0.7-0.2l0,0c-0.4-0.6-0.7-1.2-0.9-1.7c-0.2-0.5-0.4-1-0.5-1.5c-0.1-0.5-0.2-0.9-0.2-1.3
				c-0.1-0.4,0-0.8,0-1.2c0-0.8,0.4-1.4,0.7-2.1c0.2-0.4,0.3-0.7,0.5-1.1l0.5-0.7c0.1-0.1,0.2-0.3,0.3-0.4l0.3-0.5l0.1-0.2
				C67.5,122.7,67.6,122.7,67.7,122.7z"/>
		</g>
	</g>
	<g id="_x35__1_">
		<g>
			<path class="st12" d="M64.6,101.1c0.2,0.3,0.4,0.8,0.5,1.2c0.2,0.4,0.3,0.8,0.5,1.2c0.4,0.8,0.7,1.6,1.1,2.4l1.3,2.3
				c0.2,0.4,0.4,0.9,0.6,1.4c0.2,0.5,0.4,1,0.5,1.8l0,0.1c0.1,0.4-0.2,0.7-0.6,0.8c0,0-0.1,0-0.1,0c-1.4,0.1-2.6-0.4-3.6-1.1
				c-0.3-0.2-0.5-0.4-0.7-0.6c-0.2-0.2-0.4-0.5-0.6-0.7c-0.4-0.5-0.8-1-1.1-1.5c-0.6-1.1-1.1-2.3-1.3-3.5c-0.1-0.6-0.2-1.3-0.2-1.9
				c0-0.7,0.1-1.2,0.3-2c0.2-0.8,1.1-1.3,2-1.1c0.4,0.1,0.7,0.4,0.9,0.7L64.6,101.1z"/>
		</g>
		<g>
			<path class="st1" d="M68,112.2c-0.1-1.2-0.1-2.3,0-3.3c0.1-1.1,0.2-2.1,0.4-3.1c0.1-1,0.3-2,0.6-2.9c0.3-0.9,0.7-1.8,1.5-2.9
				l0-0.1c0.3-0.4,0.9-0.5,1.3-0.2c0,0,0.1,0.1,0.1,0.1c1,1.1,1.3,2.3,1.4,3.5c0.1,1.2-0.2,2.4-0.6,3.4c-0.4,1.1-0.9,2.1-1.5,3.1
				c-0.6,1-1.4,1.9-2.3,2.7c-0.2,0.2-0.6,0.2-0.8-0.1C68.1,112.5,68,112.4,68,112.2L68,112.2z"/>
		</g>
		<g>
			<path class="st11" d="M59.5,102.3c1.1,0.8,1.8,1.8,2.4,2.7c0.7,0.9,1.4,1.8,2,2.8l2.1,2.9c0.4,0.5,0.8,1,1.1,1.6
				c0.4,0.5,0.8,1.1,1.1,1.8l0,0c0.1,0.2,0,0.4-0.2,0.6c-0.1,0-0.1,0-0.2,0c-1.5-0.1-2.9-0.5-4.2-1.2c-0.7-0.3-1.3-0.7-1.9-1.2
				c-0.6-0.4-1.1-0.9-1.7-1.4c-1-1.1-1.9-2.3-2.5-3.7c-0.6-1.4-1-2.9-0.4-4.6c0.2-0.6,0.9-0.9,1.5-0.7c0.1,0,0.2,0.1,0.3,0.2
				L59.5,102.3z"/>
		</g>
		<g>
			<path class="st14" d="M66.7,114.2c-0.4-1.1-0.7-2.2-0.9-3.2c-0.2-1-0.3-2.1-0.5-3.1c-0.1-1-0.3-2-0.2-2.9c0-1,0.2-1.9,0.7-3.2
				l0-0.1c0.2-0.5,0.7-0.7,1.2-0.5c0.1,0,0.1,0,0.2,0.1c1.2,0.8,1.9,1.9,2.3,3c0.4,1.1,0.4,2.3,0.4,3.5c-0.1,1.2-0.3,2.3-0.6,3.4
				c-0.4,1.1-0.8,2.2-1.5,3.2c-0.2,0.2-0.5,0.3-0.8,0.1C66.8,114.4,66.7,114.4,66.7,114.2L66.7,114.2z"/>
		</g>
		<g>
			<path class="st8" d="M59.3,106c0.9,0.5,1.8,1.1,2.5,1.7c0.8,0.6,1.5,1.2,2.2,1.8c0.7,0.6,1.4,1.2,2.1,2c0.3,0.4,0.6,0.8,0.8,1.4
				c0.3,0.5,0.5,1.2,0.7,2l0,0c0.1,0.4-0.1,0.7-0.4,0.8c-1.6,0.6-2.9,0.6-4.1,0.2c-0.6-0.2-1.1-0.5-1.6-0.9c-0.5-0.3-1-0.8-1.4-1.2
				c-0.9-0.9-1.7-1.8-2.3-2.9c-0.6-1.1-1-2.3-1.1-3.8c0-0.9,0.6-1.6,1.5-1.6c0.3,0,0.5,0,0.8,0.2L59.3,106z"/>
		</g>
		<g>
			<path class="st8" d="M67.7,113.9c0.6-1.1,1.1-2.1,1.6-3c0.5-1,1-1.9,1.4-2.9c0.4-1,0.8-1.9,1.3-2.9c0.5-0.9,1-1.9,2-2.9l0.1-0.1
				c0.4-0.4,1-0.4,1.4,0c0.1,0.1,0.2,0.2,0.2,0.4c0.5,1.3,0.5,2.7,0.2,3.9c-0.3,1.3-0.9,2.4-1.6,3.5c-0.7,1.1-1.6,2-2.6,2.9
				c-1,0.8-2.1,1.5-3.4,1.8c-0.3,0.1-0.5-0.1-0.6-0.3C67.6,114.2,67.6,114.1,67.7,113.9L67.7,113.9z"/>
		</g>
		<g>
			<path class="st6" d="M68.1,115.5c0.6-1.1,1.2-2.1,1.9-3c0.6-0.9,1.3-1.7,1.9-2.5c0.7-0.8,1.3-1.6,2.1-2.3
				c0.8-0.7,1.7-1.3,3.3-1.8l0,0c0.4-0.1,0.7,0.1,0.9,0.4l0,0c0.5,1.5,0.3,3-0.2,4.2c-0.5,1.2-1.4,2.2-2.4,3c-1,0.8-2,1.6-3.2,2.1
				c-1.2,0.5-2.4,0.9-3.8,0.8c-0.3,0-0.6-0.3-0.6-0.6C68,115.7,68,115.6,68.1,115.5L68.1,115.5z"/>
		</g>
		<g>
			<path class="st9" d="M65.2,108.5c0.9,0.8,1.3,1.3,1.6,1.8c0.4,0.5,0.9,1,1.1,1.7c0.2,0.6,0.3,1.4,0.4,2.3c0,0.4,0,0.9-0.1,1.5
				c-0.1,0.5-0.2,1.1-0.4,1.8l0,0c-0.1,0.3-0.3,0.4-0.6,0.4c-1.4-0.1-2.5-0.6-3.3-1.2c-0.8-0.6-1.5-1.5-1.9-2.5
				c-0.4-1-0.4-2.2-0.2-3.4c0.1-0.6,0.2-1.2,0.6-1.8c0.4-0.6,0.9-1.1,1.8-1.5c0.1,0,0.3,0,0.4,0.1L65.2,108.5z"/>
		</g>
		<g>
			<path class="st15" d="M70.6,107.1c1.7,0.8,2.1,2.1,2.2,3.3c0.2,1.2,0.1,2.4-0.3,3.4c-0.4,1-1,1.9-1.8,2.7
				c-0.8,0.7-1.8,1.3-3.1,1.6c-0.3,0.1-0.5-0.1-0.6-0.4l0,0c-0.2-0.7-0.3-1.2-0.3-1.7c-0.1-0.5-0.1-1-0.1-1.5c0-0.9,0.1-1.7,0.2-2.5
				c0.2-0.7,0.5-1.4,0.8-2c0.3-0.7,0.6-1.2,1.6-2.2l0.6-0.6C70.1,107,70.4,107,70.6,107.1z"/>
		</g>
	</g>
	<g id="_x38_">
		<g>
			<path class="st16" d="M73.6,55.3c0,0.6-0.1,1-0.3,1.5c-0.1,0.5-0.3,0.9-0.5,1.3c-0.4,0.8-1,1.6-1.6,2.3C70.5,61,69.8,61.7,69,62
				c-0.9,0.4-1.8,0.6-3,0.3c-0.4-0.1-0.6-0.4-0.5-0.8l0-0.1c0.1-0.6,0.3-1,0.5-1.4c0.2-0.4,0.4-0.7,0.6-1.1c0.4-0.6,0.9-1.1,1.4-1.7
				c0.5-0.5,0.9-1,1.4-1.6c0.2-0.3,0.5-0.5,0.7-0.8c0.2-0.2,0.5-0.5,0.8-0.7l0.6-0.4c0.7-0.4,1.6-0.2,2,0.5
				C73.5,54.7,73.6,55,73.6,55.3z"/>
		</g>
		<g>
			<path class="st12" d="M63.9,62.9c-1.2-0.3-2.1-0.9-2.9-1.6c-0.8-0.7-1.5-1.6-2-2.5c-0.5-1-0.9-2-0.9-3.2c0-1.1,0.4-2.3,1.4-3.3
				c0.3-0.3,0.7-0.3,1,0l0,0c1,0.9,1.5,1.6,1.9,2.4c0.4,0.7,0.6,1.4,0.8,2.2c0.3,0.8,0.5,1.6,0.8,2.4c0.2,0.9,0.5,1.8,0.7,2.8l0,0.1
				c0.1,0.3-0.2,0.6-0.5,0.7C64.1,62.9,64,62.9,63.9,62.9z"/>
		</g>
		<g>
			<path class="st11" d="M69.3,52.8c0.2,1.1,0.1,1.9-0.1,2.8c-0.2,0.9-0.6,1.7-1.1,2.4c-0.5,0.7-1,1.4-1.8,1.9
				c-0.7,0.5-1.7,0.8-2.8,0.6c-0.4,0-0.6-0.4-0.6-0.7l0-0.1c0-0.6,0.1-1,0.2-1.4c0.1-0.4,0.2-0.7,0.3-1.1c0.3-0.6,0.6-1.1,0.9-1.7
				c0.3-0.5,0.6-1.1,1-1.6c0.2-0.3,0.3-0.5,0.5-0.8c0.2-0.3,0.4-0.6,0.6-0.7L67,52c0.6-0.5,1.5-0.4,2,0.2
				C69.1,52.4,69.2,52.6,69.3,52.8z"/>
		</g>
		<g>
			<path class="st17" d="M71.7,55.6c0,0.6,0,1-0.1,1.5c-0.1,0.5-0.2,0.9-0.4,1.4c-0.4,0.9-0.8,1.7-1.4,2.4c-0.6,0.7-1.2,1.4-2,1.9
				c-0.8,0.5-1.8,0.7-2.9,0.6c-0.4-0.1-0.6-0.4-0.6-0.8l0-0.1c0.1-0.6,0.2-1,0.3-1.5c0.1-0.4,0.3-0.8,0.5-1.1
				c0.4-0.7,0.8-1.2,1.2-1.8c0.4-0.6,0.8-1.1,1.3-1.7c0.2-0.3,0.4-0.6,0.7-0.8c0.2-0.3,0.5-0.6,0.7-0.8l0.6-0.4
				c0.6-0.5,1.5-0.4,2,0.3C71.6,55,71.7,55.3,71.7,55.6z"/>
		</g>
		<g>
			<path class="st8" d="M62,62.1c-1.1,0.1-2.1-0.2-3-0.6c-0.9-0.4-1.8-1-2.5-1.7c-0.7-0.7-1.4-1.5-1.7-2.5c-0.3-1-0.4-2.1,0.2-3.2
				c0.1-0.3,0.5-0.4,0.8-0.3l0,0c1.2,0.5,1.8,1,2.4,1.6c0.6,0.6,1,1.2,1.4,1.8l1.3,1.9c0.4,0.7,0.9,1.4,1.4,2.3l0,0.1
				c0.1,0.2,0,0.6-0.2,0.7C62.1,62.1,62,62.1,62,62.1z"/>
		</g>
		<g>
			<path class="st18" d="M62.7,62.8c-0.9,0.3-1.8,0.2-2.6,0.1c-0.8-0.2-1.5-0.5-2.2-1c-0.7-0.5-1.3-1-1.6-1.8
				c-0.3-0.8-0.5-1.7,0-2.9c0.1-0.3,0.5-0.5,0.8-0.5l0.1,0c1.2,0.1,1.8,0.3,2.4,0.5c0.6,0.3,0.9,0.7,1.3,1.1
				c0.4,0.4,0.8,0.9,1.1,1.5c0.4,0.6,0.7,1.2,1.1,2l0,0.1C63.2,62.3,63.1,62.6,62.7,62.8C62.7,62.8,62.7,62.8,62.7,62.8z"/>
		</g>
		<g>
			<path class="st9" d="M64.4,54.3c0.8,0,1.4,0.4,1.8,0.9c0.4,0.4,0.6,0.9,0.7,1.4c0.3,1,0.3,2,0,2.8c-0.3,0.9-0.7,1.6-1.2,2.3
				c-0.6,0.7-1.3,1.3-2.2,1.7c-0.2,0.1-0.5,0-0.6-0.3c0,0,0,0,0,0l0,0c-0.4-1-0.4-1.8-0.5-2.6c0-0.8,0-1.4,0-2.1
				c0-0.6,0.2-1.2,0.4-1.7c0.1-0.3,0.2-0.5,0.4-0.8c0.2-0.3,0.5-0.7,0.9-1.2l0.1-0.2C64.2,54.4,64.3,54.3,64.4,54.3z"/>
		</g>
	</g>
	<g id="_x36__1_">
		<g>
			<path class="st1" d="M73,31.3c0.1,1.1,0,2-0.3,2.9c-0.3,0.9-0.7,1.7-1.2,2.5c-0.5,0.7-1.1,1.5-1.8,2c-0.8,0.5-1.7,0.9-2.8,0.8
				c-0.4,0-0.7-0.3-0.7-0.7l0-0.1c0-0.6,0.1-1,0.2-1.5c0.1-0.4,0.2-0.8,0.4-1.2c0.3-0.7,0.7-1.3,1-1.9c0.4-0.6,0.7-1.2,1.1-1.8
				c0.4-0.6,0.8-1.2,1.2-1.7l0.3-0.4c0.6-0.6,1.5-0.6,2.1-0.1C72.9,30.7,73,31,73,31.3z"/>
		</g>
		<g>
			<path class="st16" d="M64,40.5c-1.2-0.1-2.1-0.6-3-1.2c-0.9-0.6-1.6-1.4-2.2-2.3c-0.6-0.9-1.1-1.9-1.2-3c-0.1-1.1,0.1-2.3,1-3.4
				c0.2-0.3,0.6-0.3,0.9-0.1l0.1,0c1.1,0.8,1.6,1.4,2.1,2.1c0.5,0.6,0.7,1.3,1.1,2c0.3,0.7,0.6,1.5,1,2.3c0.3,0.8,0.7,1.7,0.9,2.7
				l0,0.1c0.1,0.3-0.1,0.6-0.4,0.7C64.2,40.5,64.1,40.5,64,40.5z"/>
		</g>
		<g>
			<path class="st19" d="M68.3,29.7c0.5,1,0.7,1.8,0.7,2.7c0.1,0.9,0,1.8-0.3,2.6c-0.3,0.8-0.5,1.7-1.1,2.4
				c-0.5,0.7-1.3,1.3-2.4,1.5c-0.4,0.1-0.7-0.1-0.8-0.5l0-0.1c-0.2-0.5-0.2-1-0.3-1.4c-0.1-0.4,0-0.8,0-1.1c0-0.7,0.2-1.3,0.3-1.9
				c0.1-0.6,0.3-1.2,0.4-1.8c0.2-0.6,0.3-1.3,0.6-1.8l0.3-0.5c0.4-0.7,1.2-1,2-0.7C67.9,29.2,68.1,29.4,68.3,29.7z"/>
		</g>
		<g>
			<path class="st20" d="M71.6,32.9c0.1,1.1,0,2-0.3,2.9c-0.3,0.9-0.7,1.7-1.2,2.5c-0.5,0.7-1.1,1.5-1.8,2c-0.8,0.5-1.7,0.9-2.8,0.8
				c-0.4,0-0.7-0.3-0.7-0.7l0-0.1c0-0.6,0.1-1,0.2-1.5c0.1-0.4,0.2-0.8,0.4-1.2c0.3-0.7,0.7-1.3,1-1.9c0.4-0.6,0.7-1.2,1.1-1.8
				c0.4-0.6,0.8-1.2,1.2-1.7l0.3-0.4c0.6-0.6,1.5-0.6,2.1-0.1C71.4,32.3,71.6,32.6,71.6,32.9z"/>
		</g>
		<g>
			<path class="st21" d="M63.3,40.8c-1.2,0.2-2.3,0-3.4-0.2c-1.1-0.3-2.1-0.7-3-1.3c-0.9-0.6-1.8-1.3-2.5-2.3c-0.6-1-1-2.2-0.8-3.6
				c0.1-0.4,0.4-0.6,0.8-0.6l0,0c1.4,0.2,2.2,0.6,3.1,1c0.8,0.4,1.4,1.1,2.1,1.7c0.7,0.6,1.4,1.2,2,1.9c0.7,0.7,1.4,1.5,2,2.4l0,0
				c0.2,0.3,0.1,0.6-0.1,0.8C63.4,40.8,63.4,40.8,63.3,40.8z"/>
		</g>
		<g>
			<path class="st22" d="M62.9,41.3c-1,0.2-2,0.1-2.9-0.2c-0.9-0.3-1.7-0.8-2.4-1.4c-0.7-0.6-1.4-1.3-1.7-2.2
				c-0.3-0.9-0.4-1.9,0.2-3.1c0.2-0.3,0.5-0.5,0.9-0.4l0.1,0c1.2,0.3,1.9,0.6,2.5,1c0.6,0.4,0.9,0.9,1.3,1.4
				c0.4,0.5,0.8,1.1,1.2,1.7c0.4,0.6,0.8,1.3,1.2,2.2l0,0.1c0.1,0.3,0,0.7-0.3,0.8C63,41.2,63,41.2,62.9,41.3z"/>
		</g>
		<g>
			<path class="st6" d="M63.6,41.2c-0.7-0.8-1.1-1.6-1.4-2.4c-0.3-0.8-0.4-1.5-0.4-2.2c0-0.7,0-1.4,0.5-2.1c0.4-0.7,1.1-1.3,2.5-1.8
				c0.3-0.1,0.7-0.1,1,0.1c1.2,0.9,1.7,1.7,1.9,2.4c0.2,0.8,0,1.5-0.1,2.2c-0.2,0.7-0.5,1.4-1,2c-0.5,0.7-1.1,1.3-2,1.9
				C64.3,41.5,63.8,41.4,63.6,41.2z"/>
		</g>
		<g>
			<g>
				<path class="st1" d="M75.4,85.1c0.1,1.3-0.1,2.3-0.4,3.3c-0.3,1-0.8,2-1.3,2.9c-0.6,0.9-1.2,1.8-2.1,2.4
					c-0.8,0.7-1.9,1.1-3.1,1.2c-0.4,0-0.7-0.2-0.7-0.6c0,0,0-0.1,0-0.1l0-0.1c0-0.6,0.2-1.2,0.3-1.6c0.1-0.5,0.3-0.9,0.5-1.3
					c0.4-0.8,0.8-1.5,1.3-2.3l1.3-2.2c0.4-0.7,0.9-1.5,1.4-2.2l0.2-0.3c0.5-0.7,1.4-0.8,2.1-0.3C75.1,84.3,75.3,84.7,75.4,85.1z"/>
			</g>
			<g>
				<path class="st16" d="M65.2,95.9c-1.3-0.3-2.4-0.8-3.3-1.6c-1-0.7-1.8-1.7-2.4-2.7c-0.7-1-1.2-2.2-1.3-3.4
					c-0.1-1.2,0.1-2.6,1-3.8c0.2-0.3,0.6-0.3,0.9-0.1c0,0,0,0,0,0l0,0c1.1,1,1.6,1.8,2.2,2.6c0.5,0.8,0.8,1.6,1.2,2.5l1.2,2.7
					c0.4,0.9,0.8,1.9,1.2,3l0,0.1c0.1,0.3-0.1,0.6-0.4,0.7C65.4,96,65.3,96,65.2,95.9z"/>
			</g>
			<g>
				<path class="st19" d="M70,83.3c0.5,1.1,0.7,2,0.7,3.1c0,1-0.1,2-0.3,3c-0.3,1-0.6,1.9-1.2,2.7c-0.6,0.8-1.4,1.5-2.6,1.9
					c-0.3,0.1-0.7-0.1-0.8-0.4c0,0,0,0,0,0l0-0.1c-0.2-0.6-0.2-1.1-0.2-1.6c0-0.5,0-0.9,0-1.3c0.1-0.8,0.3-1.5,0.5-2.3l0.5-2.3
					c0.2-0.7,0.3-1.6,0.6-2.2l0.1-0.4c0.3-0.8,1.1-1.2,1.9-0.9C69.5,82.6,69.8,82.9,70,83.3z"/>
			</g>
			<g>
				<path class="st20" d="M73.7,87c0.1,1.3-0.1,2.3-0.4,3.3c-0.3,1-0.8,2-1.3,2.9c-0.6,0.9-1.2,1.8-2.1,2.4
					c-0.8,0.7-1.9,1.1-3.1,1.2c-0.4,0-0.7-0.2-0.7-0.6c0,0,0-0.1,0-0.1l0-0.1c0-0.6,0.2-1.2,0.3-1.6c0.1-0.5,0.3-0.9,0.5-1.3
					c0.4-0.8,0.8-1.5,1.3-2.3l1.3-2.2c0.4-0.7,0.9-1.5,1.4-2.2l0.2-0.3c0.5-0.7,1.4-0.8,2.1-0.3C73.5,86.2,73.7,86.6,73.7,87z"/>
			</g>
			<g>
				<path class="st23" d="M64.3,96.3c-1.3-0.1-2.3-0.5-3.3-1c-1-0.5-1.9-1.2-2.7-1.9c-0.8-0.8-1.6-1.6-2.1-2.6
					c-0.5-1-0.8-2.2-0.5-3.6c0.1-0.4,0.4-0.6,0.8-0.5c0,0,0,0,0,0l0,0c1.4,0.3,2.3,0.9,3.1,1.5c0.8,0.6,1.4,1.4,2,2.1
					c0.6,0.8,1.2,1.6,1.8,2.4c0.5,0.9,1.1,1.8,1.5,2.8l0,0c0.1,0.3,0,0.6-0.3,0.7C64.5,96.3,64.4,96.3,64.3,96.3z"/>
			</g>
			<g>
				<path class="st22" d="M64,96.9c-1.2,0.1-2.2-0.1-3.2-0.4c-1-0.4-1.9-0.9-2.6-1.6c-0.8-0.7-1.5-1.5-1.8-2.5
					c-0.4-1-0.4-2.2,0.1-3.4c0.2-0.3,0.5-0.5,0.9-0.4l0,0c1.3,0.4,2,0.9,2.6,1.4c0.6,0.5,1,1.1,1.5,1.7c0.5,0.6,0.9,1.3,1.4,2
					c0.5,0.7,1,1.5,1.4,2.4l0,0.1c0.1,0.3,0,0.6-0.2,0.8C64.1,96.9,64.1,96.9,64,96.9z"/>
			</g>
			<g>
				<path class="st6" d="M64.8,96.9c-0.7-1-1.1-1.9-1.3-2.8c-0.2-0.9-0.3-1.8-0.3-2.6c0-0.9,0.1-1.7,0.5-2.5
					c0.5-0.8,1.1-1.6,2.6-2.2c0.3-0.2,0.7-0.1,1,0.1c1.2,1,1.6,2,1.8,2.9c0.2,0.9,0,1.7-0.2,2.6c-0.2,0.8-0.6,1.6-1.1,2.4
					c-0.5,0.8-1.1,1.6-2.1,2.3C65.5,97.2,65,97.2,64.8,96.9C64.8,96.9,64.8,96.9,64.8,96.9z"/>
			</g>
		</g>
	</g>
	<g id="_x39_">
		<g>
			<path class="st24" d="M57.4,21.7c0.5,0.4,1.1,1.1,1.6,1.6l1.5,1.7c0.5,0.6,1,1.1,1.4,1.7c0.4,0.7,0.8,1.4,1.1,2.5l0,0
				c0.1,0.4-0.1,0.7-0.5,0.8c0,0,0,0,0,0c-1.2,0.3-2.2,0.1-3.1-0.4c-0.9-0.4-1.6-1.1-2.3-1.7c-0.7-0.7-1.2-1.5-1.7-2.3
				c-0.4-0.9-0.8-1.7-0.9-2.9c-0.1-0.8,0.5-1.6,1.3-1.6c0.4,0,0.8,0.1,1.1,0.3L57.4,21.7z"/>
		</g>
		<g>
			<path class="st25" d="M63.8,31.1C64,30,64.3,29,64.6,28c0.3-0.9,0.6-1.8,0.9-2.7c0.3-0.9,0.5-1.7,1-2.5c0.5-0.8,1-1.6,2.1-2.6
				l0,0c0.3-0.2,0.7-0.2,0.9,0c0,0,0,0,0,0c0.9,1.1,1.2,2.4,1.2,3.6c0,1.2-0.5,2.3-1,3.4c-0.6,1-1.3,2-2.1,2.8
				c-0.9,0.8-1.8,1.4-3.1,1.8c-0.3,0.1-0.6-0.1-0.7-0.4C63.8,31.4,63.8,31.3,63.8,31.1L63.8,31.1z"/>
		</g>
		<g>
			<path class="st26" d="M61.9,21.7c0.2,0.2,0.4,0.6,0.5,0.9c0.2,0.3,0.3,0.6,0.5,0.9c0.3,0.6,0.6,1.2,0.9,1.8
				c0.3,0.6,0.7,1.2,0.9,1.9c0.1,0.4,0.3,0.7,0.3,1.1c0.1,0.4,0.2,0.9,0.2,1.5l0,0.1c0,0.4-0.3,0.7-0.6,0.7
				c-1.2,0.1-2.1-0.3-2.9-0.9c-0.8-0.6-1.3-1.4-1.8-2.2c-0.5-0.8-0.8-1.8-1-2.7c-0.2-1-0.2-1.9,0.1-3c0.2-0.8,1-1.2,1.7-1
				c0.3,0.1,0.6,0.3,0.8,0.5L61.9,21.7z"/>
		</g>
		<g>
			<path class="st20" d="M59.8,23.4c0.5,0.5,1,1.1,1.4,1.6c0.4,0.6,0.8,1.2,1.2,1.7c0.4,0.6,0.8,1.2,1.1,1.9
				c0.3,0.7,0.5,1.5,0.5,2.6v0c0,0.4-0.3,0.7-0.7,0.7c-1.1,0.1-2-0.3-2.8-0.8c-0.7-0.5-1.3-1.2-1.8-1.9c-0.5-0.7-0.9-1.5-1.2-2.3
				c-0.3-0.8-0.5-1.7-0.5-2.7c0-0.8,0.7-1.5,1.5-1.5c0.4,0,0.8,0.1,1,0.4L59.8,23.4z"/>
		</g>
		<g>
			<path class="st22" d="M65.2,30.3c0.4-0.9,0.8-1.7,1.2-2.4c0.4-0.7,0.9-1.4,1.3-2c0.4-0.6,0.8-1.2,1.4-1.7c0.6-0.5,1.3-1,2.6-1.3
				l0,0c0.4-0.1,0.7,0.1,0.9,0.4c0.6,1.2,0.5,2.3,0.2,3.3c-0.3,1-1,1.8-1.7,2.5c-0.7,0.7-1.5,1.3-2.5,1.7c-0.9,0.4-1.9,0.7-3.1,0.6
				c-0.3,0-0.6-0.3-0.5-0.6C65.1,30.5,65.2,30.4,65.2,30.3L65.2,30.3z"/>
		</g>
		<g>
			<path class="st27" d="M63.7,31.6c-0.5-0.9-0.8-1.6-1-2.3c-0.2-0.7-0.3-1.3-0.4-1.9c0-0.6-0.1-1.2,0.1-1.8
				c0.3-0.6,0.7-1.3,1.7-2.3l1.2-0.3c1.4,0.4,2.1,1.2,2.5,2.1c0.4,0.9,0.3,1.8,0.2,2.7c-0.2,0.9-0.5,1.7-1,2.5
				c-0.5,0.8-1.2,1.4-2.3,1.9L63.7,31.6z"/>
		</g>
		<g>
			<path class="st0" d="M57.9,42.7c0.6,0.4,1.1,1,1.6,1.5c0.5,0.5,1,1.1,1.5,1.6c0.5,0.6,1,1.1,1.4,1.7c0.2,0.3,0.4,0.7,0.6,1.1
				c0.2,0.4,0.3,0.9,0.5,1.5l0,0.1c0.1,0.4-0.2,0.8-0.6,0.9c-1.2,0.3-2.3,0.2-3.2-0.2c-0.9-0.4-1.6-1.1-2.3-1.7
				c-0.7-0.7-1.3-1.5-1.7-2.4c-0.4-0.9-0.7-1.8-0.8-2.9c-0.1-0.9,0.6-1.7,1.5-1.8c0.4,0,0.8,0.1,1.1,0.3L57.9,42.7z"/>
		</g>
		<g>
			<path class="st25" d="M64.1,52.1c0.2-1.1,0.5-2.1,0.8-3.1c0.3-0.9,0.6-1.8,0.9-2.7c0.3-0.9,0.5-1.7,1-2.5c0.5-0.8,1-1.6,2.1-2.6
				l0,0c0.3-0.2,0.7-0.2,0.9,0c0,0,0,0,0,0c0.9,1.1,1.2,2.4,1.2,3.6c0,1.2-0.5,2.3-1,3.4c-0.6,1-1.3,2-2.1,2.8
				c-0.9,0.8-1.8,1.4-3.1,1.8c-0.3,0.1-0.6-0.1-0.7-0.4C64.1,52.4,64.1,52.3,64.1,52.1L64.1,52.1z"/>
		</g>
		<g>
			<path class="st26" d="M62.3,42.7c0.2,0.2,0.4,0.6,0.5,0.9c0.2,0.3,0.3,0.6,0.5,0.9c0.3,0.6,0.6,1.2,0.9,1.8
				c0.3,0.6,0.7,1.2,0.9,1.9c0.1,0.4,0.3,0.7,0.3,1.1c0.1,0.4,0.2,0.9,0.2,1.5l0,0.1c0,0.4-0.3,0.7-0.6,0.7
				c-1.2,0.1-2.1-0.3-2.9-0.9c-0.8-0.6-1.3-1.4-1.8-2.2c-0.5-0.8-0.8-1.8-1-2.7c-0.2-1-0.2-1.9,0.1-3c0.2-0.8,1-1.2,1.7-1
				c0.3,0.1,0.6,0.3,0.8,0.5L62.3,42.7z"/>
		</g>
		<g>
			<path class="st20" d="M60.1,44.4c0.5,0.5,1,1.1,1.4,1.6c0.4,0.6,0.8,1.2,1.2,1.7c0.4,0.6,0.8,1.2,1.1,1.9
				c0.3,0.7,0.5,1.5,0.5,2.6l0,0c0,0.4-0.3,0.7-0.7,0.7c-1.1,0.1-2-0.3-2.8-0.8c-0.7-0.5-1.3-1.2-1.8-1.9c-0.5-0.7-0.9-1.5-1.2-2.3
				c-0.3-0.8-0.5-1.7-0.5-2.7c0-0.8,0.7-1.5,1.5-1.5c0.4,0,0.8,0.1,1,0.4L60.1,44.4z"/>
		</g>
		<g>
			<path class="st22" d="M65.5,51.2c0.4-0.9,0.8-1.7,1.2-2.4c0.4-0.7,0.9-1.4,1.3-2c0.4-0.6,0.8-1.2,1.4-1.7c0.6-0.5,1.3-1,2.6-1.3
				l0,0c0.4-0.1,0.7,0.1,0.9,0.4c0.6,1.2,0.5,2.3,0.2,3.3c-0.3,1-1,1.8-1.7,2.5c-0.7,0.7-1.5,1.3-2.5,1.7c-0.9,0.4-1.9,0.7-3.1,0.6
				c-0.3,0-0.6-0.3-0.5-0.6C65.5,51.5,65.5,51.4,65.5,51.2L65.5,51.2z"/>
		</g>
		<g>
			<path class="st27" d="M64,52.6c-0.5-0.9-0.8-1.6-1-2.3c-0.2-0.7-0.3-1.3-0.4-1.9c0-0.6-0.1-1.2,0.1-1.8c0.3-0.6,0.7-1.3,1.7-2.3
				l1.2-0.3c1.4,0.4,2.1,1.2,2.5,2.1c0.4,0.9,0.3,1.8,0.2,2.7c-0.2,0.9-0.5,1.7-1,2.5c-0.5,0.8-1.2,1.4-2.3,1.9L64,52.6z"/>
		</g>
	</g>
	<g id="bud_3_">
		<g>
			<path class="st1" d="M68,1.2c0.4,0.9,0.5,1.7,0.5,2.5c0,0.8-0.1,1.6-0.4,2.4c-0.3,0.8-0.6,1.5-1.1,2.1c-0.5,0.6-1.3,1.1-2.3,1.3
				c-0.4,0.1-0.7-0.1-0.8-0.5l0-0.1c-0.2-0.5-0.3-0.9-0.3-1.3c-0.1-0.4-0.1-0.7,0-1.1c0.1-0.6,0.2-1.2,0.4-1.8
				c0.2-0.6,0.3-1.1,0.5-1.7C64.5,2.6,64.7,2,65,1.5L65.4,1c0.4-0.7,1.4-0.9,2-0.4C67.7,0.7,67.8,0.9,68,1.2z"/>
		</g>
		<g>
			<path class="st24" d="M64.7,1.4C64.9,1.9,65,2.5,65.1,3c0.1,0.5,0.1,1.1,0.2,1.6c0,0.5,0.1,1,0,1.6c-0.1,0.6-0.3,1.2-0.8,2.1l0,0
				c-0.2,0.3-0.6,0.4-0.9,0.4c-1-0.3-1.6-0.9-2-1.5C61.1,6.5,61,5.7,60.9,5c-0.1-0.7-0.1-1.5,0.1-2.2c0.2-0.7,0.4-1.4,0.9-2.1
				c0.5-0.7,1.4-0.9,2.1-0.4c0.2,0.2,0.4,0.4,0.5,0.6L64.7,1.4z"/>
		</g>
		<g>
			<path class="st28" d="M62.8,17.1c0.3-0.9,0.7-1.7,1.1-2.5c0.4-0.7,0.8-1.4,1.3-2c0.5-0.6,0.8-1.2,1.5-1.7
				c0.6-0.5,1.3-0.9,2.6-1.2l0,0c0.4-0.1,0.7,0.1,0.9,0.4c0.5,1.2,0.4,2.3,0.1,3.2c-0.3,0.9-1,1.7-1.7,2.3c-0.7,0.6-1.5,1.2-2.3,1.6
				c-0.9,0.4-1.8,0.6-2.9,0.6c-0.3,0-0.6-0.3-0.6-0.6C62.7,17.3,62.7,17.2,62.8,17.1L62.8,17.1z"/>
		</g>
		<g>
			<path class="st8" d="M62.5,6.8c0.4,0.3,0.7,0.8,1,1.3c0.3,0.4,0.5,0.9,0.8,1.3c0.2,0.5,0.5,0.9,0.6,1.4c0.1,0.6,0.2,1.2,0.1,2.2
				l0,0.1c0,0.4-0.3,0.6-0.6,0.7c-1,0.2-1.8-0.1-2.5-0.5c-0.6-0.4-1.1-1-1.5-1.6c-0.4-0.6-0.7-1.3-0.8-2c-0.2-0.7-0.2-1.4-0.1-2.3
				c0.1-0.8,0.9-1.4,1.8-1.2c0.3,0,0.5,0.2,0.7,0.3L62.5,6.8z"/>
		</g>
		<g>
			<path class="st20" d="M61.5,12.4c0.4,0.5,0.8,1.1,1.1,1.6c0.3,0.5,0.6,1.1,0.8,1.6c0.2,0.6,0.5,1,0.7,1.7
				c0.1,0.6,0.2,1.3,0.1,2.4l0,0.1c0,0.4-0.3,0.6-0.7,0.7c-1.1,0.1-2-0.3-2.6-0.8c-0.7-0.5-1.1-1.2-1.5-1.9
				c-0.4-0.7-0.7-1.5-0.8-2.3c-0.1-0.8-0.2-1.6,0-2.5c0.2-0.8,1-1.4,1.8-1.2c0.3,0.1,0.6,0.2,0.8,0.5L61.5,12.4z"/>
		</g>
		<g>
			<path class="st29" d="M64.6,12.3c0-0.9,0.1-1.7,0.2-2.4c0.2-0.7,0.3-1.4,0.6-2c0.3-0.6,0.4-1.2,0.9-1.7c0.5-0.5,1-1,2.2-1.5l0,0
				c0.3-0.1,0.7,0,0.9,0.2c0.8,1,1,1.9,0.9,2.8C70.4,8.6,70,9.3,69.5,10c-0.5,0.7-1,1.3-1.7,1.8c-0.7,0.5-1.5,0.9-2.5,1.1
				c-0.3,0.1-0.7-0.2-0.7-0.5C64.6,12.4,64.6,12.4,64.6,12.3L64.6,12.3z"/>
		</g>
		<g>
			<path class="st30" d="M63.9,11.6c-0.4-0.8-0.6-1.6-0.8-2.3c-0.2-0.7-0.3-1.4-0.3-2c0-0.6-0.1-1.3,0.1-1.9
				c0.2-0.7,0.5-1.3,1.4-2.2l0,0c0.2-0.3,0.6-0.3,0.9-0.2c1.1,0.5,1.7,1.3,2,2.1c0.3,0.8,0.3,1.7,0.2,2.5c-0.1,0.8-0.4,1.6-0.8,2.4
				c-0.4,0.7-0.9,1.4-1.8,2c-0.3,0.2-0.7,0.1-0.9-0.2C63.9,11.8,63.9,11.7,63.9,11.6L63.9,11.6z"/>
		</g>
		<g>
			<path class="st22" d="M63.4,19.7c0.4-0.9,0.8-1.6,1.2-2.2c0.4-0.6,0.8-1.2,1.3-1.7c0.5-0.5,0.9-1.1,1.5-1.4
				c0.7-0.4,1.4-0.7,2.7-0.7l0,0c0.4,0,0.7,0.2,0.8,0.6c0.4,1.2,0.2,2.2-0.2,3c-0.4,0.8-1,1.4-1.7,2c-0.7,0.5-1.5,1-2.3,1.3
				c-0.9,0.3-1.8,0.4-2.9,0.2c-0.3-0.1-0.5-0.4-0.5-0.7c0,0,0-0.1,0-0.1L63.4,19.7z"/>
		</g>
		<g>
			<path class="st10" d="M66.1,13.2c0.2,0.6,0.3,1.3,0.3,1.9c0,0.6,0,1.3,0,1.9c-0.1,0.6-0.1,1.2-0.4,1.9c-0.3,0.6-0.6,1.2-1.4,2
				l0,0c-0.3,0.3-0.7,0.3-1,0.1c-0.9-0.6-1.3-1.3-1.5-2c-0.2-0.7-0.2-1.4-0.2-2.1c0-0.7,0.1-1.4,0.3-2.1c0.2-0.7,0.5-1.3,0.9-2
				c0.5-0.7,1.5-0.9,2.2-0.4c0.3,0.2,0.5,0.5,0.6,0.8L66.1,13.2z"/>
		</g>
	</g>
	<g id="sepal">
		<g>
			<path class="st3" d="M67.5,39.3c-0.5,0.7-1.1,1.2-2,1.5c-0.8,0.3-1.9,0.4-2.8,0.2c-0.9-0.2-1.9-0.6-2.6-1.2
				c-0.7-0.6-1.2-1.3-1.1-2.3c0-0.4,0.4-0.6,0.7-0.6c0,0,0.1,0,0.1,0c1,0.3,1.4,0.9,1.8,1.5c0.4,0.6,0.7,1.3,1.4,1.4
				c0.6,0.2,1.2-0.2,1.8-0.6c0.6-0.4,1.3-0.8,2.2-0.8c0.3,0,0.6,0.2,0.6,0.5C67.7,39.1,67.6,39.2,67.5,39.3L67.5,39.3z"/>
		</g>
		<g>
			<path class="st3" d="M69.1,18.1c-0.2,0.8-0.6,1.5-1.2,2.1c-0.6,0.6-1.6,1.1-2.5,1.3c-0.9,0.2-1.9,0.2-2.8,0
				c-0.9-0.3-1.6-0.7-2-1.7c-0.1-0.3,0.1-0.7,0.4-0.8c0,0,0.1,0,0.1,0c1-0.2,1.6,0.3,2.2,0.6c0.6,0.4,1.2,0.9,1.8,0.8
				c0.7,0,1-0.6,1.4-1.2c0.4-0.6,0.9-1.3,1.7-1.7c0.3-0.1,0.6,0,0.7,0.3C69.1,17.9,69.1,18,69.1,18.1L69.1,18.1z"/>
		</g>
		<g>
			<path class="st3" d="M66.8,49.5c0,0.8-0.3,1.5-0.7,2.1c-0.2,0.3-0.5,0.6-0.8,0.9c-0.3,0.3-0.7,0.7-1.3,0.8
				c-0.6,0.1-1.2-0.1-1.6-0.3c-0.4-0.2-0.8-0.5-1.1-0.8c-0.6-0.6-1-1.3-0.8-2.3c0.1-0.4,0.4-0.6,0.8-0.5c0,0,0,0,0.1,0l0,0
				c1,0.3,1.3,0.9,1.6,1.5c0.1,0.3,0.3,0.6,0.4,0.8c0.1,0.2,0.3,0.4,0.4,0.4c0.1,0,0.3-0.2,0.5-0.5c0.1-0.3,0.3-0.6,0.4-0.9
				c0.3-0.6,0.6-1.3,1.4-1.8c0.3-0.2,0.6-0.1,0.8,0.2C66.7,49.3,66.8,49.4,66.8,49.5L66.8,49.5z"/>
		</g>
		<g>
			<path class="st3" d="M68.3,77c-0.3,0.8-0.8,1.5-1.5,2c-0.7,0.5-1.7,1-2.8,1c-1,0-2-0.3-2.8-0.7c-0.8-0.5-1.4-1.1-1.5-2.2
				c0-0.4,0.2-0.7,0.6-0.7c0,0,0.1,0,0.1,0c1.1,0.1,1.6,0.7,2.1,1.2c0.5,0.5,1,1.1,1.6,1.2c0.6,0.1,1.1-0.5,1.6-1.1
				c0.5-0.5,1.1-1.2,2-1.5c0.3-0.1,0.6,0.1,0.7,0.3C68.4,76.8,68.4,76.9,68.3,77L68.3,77z"/>
		</g>
		<g>
			<path class="st3" d="M70.7,116.1c-0.4,0.8-0.9,1.4-1.7,1.9c-0.8,0.5-1.8,0.8-2.8,0.7c-1-0.1-2-0.4-2.8-1
				c-0.7-0.6-1.3-1.2-1.3-2.3c0-0.4,0.3-0.6,0.7-0.6c0,0,0.1,0,0.1,0c1,0.2,1.5,0.8,1.9,1.4c0.4,0.6,0.8,1.2,1.5,1.3
				c0.6,0.1,1.2-0.4,1.7-0.9c0.5-0.5,1.2-1.1,2.1-1.3c0.3-0.1,0.6,0.1,0.7,0.4C70.8,115.9,70.8,116,70.7,116.1L70.7,116.1z"/>
		</g>
		<g id="sepal_1_">
			<g>
				<path class="st3" d="M85,203.1c-0.5,0.9-1.3,1.6-2.3,2.2c-1,0.6-2.2,0.8-3.2,1c-1.1,0.2-2.2,0.4-3.4,0.3
					c-1.1-0.1-2.2-0.4-2.9-1.4c-0.2-0.3-0.2-0.6,0.1-0.8c0.1-0.1,0.1-0.1,0.2-0.1c1.2-0.3,2.1,0,3,0.3c0.9,0.3,1.8,0.7,2.8,0.6
					c1-0.1,1.7-0.6,2.5-1.2c0.7-0.6,1.5-1.3,2.6-1.6c0.3-0.1,0.6,0.1,0.7,0.4C85.1,202.8,85,202.9,85,203.1L85,203.1z"/>
			</g>
		</g>
	</g>
	<g id="bloom_3_">
		<ellipse transform="matrix(3.512351e-03 -1 1 3.512351e-03 -2.5299 139.9513)" class="st1" cx="69" cy="71.2" rx="2.5" ry="1.8"/>
		<path class="st31" d="M63.7,69.3c0,1.2,2,1.1,2.9,0.7c0.5-0.2,1,0,1.2,0.4c0.7,1.8,3.3,0.9,2.6-0.7c-0.2-0.4,0.7-0.6,1.2-0.5
			c1.1,0.2,2.2-0.9,2.2-2c0-0.4-0.4-0.6-0.8-0.6c0,0-0.1,0-0.1,0c-0.7,0-1.9,0.2-0.7-1.1c2.1-2.4-1.7-4-3.2-1.1
			c-0.2,0.4-0.2,0.8-0.4,0.4c-2.4-4.4-5.6,0.2-3.3,2.3c0.3,0.3-0.6,0.6-0.9,0.9C63.9,68.4,63.6,68.8,63.7,69.3z"/>
		
			<ellipse transform="matrix(3.512351e-03 -1 1 3.512351e-03 1.6639 135.3941)" class="st32" cx="68.8" cy="66.9" rx="1.1" ry="1.4"/>
	</g>
	<g id="bloom_2_">
		<path class="st33" d="M70.8,160.8c-1.5-0.7-0.8-1.8,0-2.6c0.4-0.4,0.4-1.1-0.1-1.5c-2-1.8,0.1-2.5,1.8-2.5c0.6,0,1-0.4,1-1
			c0.1-1.3,1.8-2,3.2-1.3c0.5,0.2,0.7,0.8,0.5,1.3c0,0,0,0.1-0.1,0.2c-0.2,0.7-0.9,2,1.1,1.4c3.6-1,2.2,3.2,0.2,4.2
			c-0.5,0.2-0.7,0.8-0.5,1.3c0.9,2.2-2.4,5.1-4.2,1.4c-0.2-0.5-0.7-0.7-1.3-0.6C72,161.1,71.4,161.1,70.8,160.8z"/>
		<ellipse transform="matrix(0.6778 -0.7352 0.7352 0.6778 -91.4385 105.7591)" class="st32" cx="75" cy="157.2" rx="1" ry="1.4"/>
	</g>
	<g id="bud_2_">
		<path class="st8" d="M68.8,20.3c0.3-1.1,2.7-0.7,1.3,1.3c0.8-0.6,1.3,0.6,0.1,1.5c-0.3,0.2-1.4,0.2-1.6,1.2
			c-0.6,1.3-0.8,0.8-1.2,0.8c-0.9,0.1-1.3-0.7-0.6-2.2c-0.3-2.7,0.7-4.8,2.2-4.1C69.2,19,69.2,19.9,68.8,20.3z"/>
	</g>
	<g id="bud">
		<path class="st8" d="M58.5,20.9c-0.3-1.1-2.7-0.6-1.3,1.3c-0.8-0.6-1.3,0.6-0.1,1.5c0.3,0.2,1.4,0.1,1.7,1.2
			c0.6,1.3,0.9,0.8,1.2,0.8c0.9,0.1,1.3-0.7,0.6-2.2c0.3-2.7-0.7-4.7-2.3-4C58.1,19.6,58.1,20.4,58.5,20.9z"/>
	</g>
</g>
<g id="branch-3">
	<g id="Layer_57_copy_30">
		<g>
			<path class="st3" d="M48.6,221.6c-0.4,1-1,1.8-1.9,2.5c-0.9,0.7-2,1.1-3.1,1.5c-1.1,0.3-2.2,0.7-3.3,0.8
				c-1.1,0.1-2.2-0.1-3.1-0.9c-0.2-0.2-0.3-0.6,0-0.8c0.1-0.1,0.1-0.1,0.2-0.1c1.1-0.5,2.1-0.3,3-0.2c0.9,0.2,1.9,0.4,2.9,0.2
				c0.9-0.2,1.6-0.9,2.2-1.6c0.6-0.7,1.3-1.5,2.4-2c0.3-0.1,0.6,0,0.7,0.3C48.7,221.3,48.7,221.4,48.6,221.6L48.6,221.6z"/>
		</g>
	</g>
	<g id="_x32__1_">
		<g>
			<path class="st34" d="M25.4,177.6c-0.4-1.1-0.7-2.2-0.9-3.2c-0.2-1-0.4-2-0.5-3c-0.1-1-0.3-1.9-0.3-2.9c0-1,0.2-1.9,0.6-3.2
				l0-0.1c0.2-0.5,0.7-0.7,1.2-0.5c0.1,0,0.1,0,0.2,0.1c1.2,0.7,1.9,1.9,2.3,3c0.4,1.1,0.4,2.3,0.4,3.5c0,1.2-0.2,2.3-0.5,3.4
				c-0.3,1.1-0.8,2.2-1.5,3.2c-0.2,0.3-0.5,0.3-0.8,0.1C25.5,177.8,25.4,177.7,25.4,177.6L25.4,177.6z"/>
		</g>
		<g>
			<path class="st12" d="M23.6,179c-0.7-1-1.3-1.9-1.8-2.8c-0.5-0.9-0.9-1.9-1.3-2.8c-0.4-0.9-0.8-1.8-1-2.8c-0.2-1-0.4-1.9-0.2-3.3
				l0-0.1c0-0.5,0.5-0.9,1-0.8c0.1,0,0.1,0,0.2,0c1.4,0.4,2.3,1.3,3,2.3c0.7,1,1,2.1,1.3,3.2c0.3,1.1,0.4,2.3,0.4,3.4
				c0,1.2-0.2,2.3-0.6,3.5c-0.1,0.3-0.4,0.4-0.7,0.3C23.8,179.1,23.7,179.1,23.6,179L23.6,179z"/>
		</g>
		<g>
			<path class="st3" d="M107.2,346.9c-4.8-3.3-8.6-7.6-12.1-11.9c-3.5-4.4-6.6-9-9.5-13.8c-5.9-9.5-11-19.3-15.8-29.3
				c-9.7-19.9-18.1-40.4-26-61.1c-7.9-20.7-15.2-41.5-22-62.6c-3.4-10.5-6.7-21.1-9.7-31.7c-1.5-5.3-3-10.6-4.4-16
				c-0.7-2.7-1.4-5.4-2-8.1c-0.3-1.4-0.6-2.7-0.9-4.1c-0.3-1.4-0.5-2.7-0.6-4.3l2,0c0,1.2,0.3,2.6,0.5,3.9c0.3,1.3,0.5,2.7,0.9,4
				c0.6,2.7,1.3,5.3,2,8c1.4,5.3,2.9,10.6,4.5,15.9c3.1,10.6,6.4,21.1,9.8,31.6c6.9,21,14.2,41.8,22.2,62.4
				c8,20.6,16.4,41,26.1,60.8c4.8,9.9,10,19.6,15.8,28.9c2.9,4.6,6,9.2,9.4,13.4c3.4,4.2,7.1,8.3,11.4,11.2L107.2,346.9z"/>
		</g>
		<g>
			<path class="st11" d="M16.1,168.3c1.3,0.5,2.2,1.2,3.1,1.9c0.9,0.7,1.8,1.4,2.7,2.1l2.9,2.2c0.5,0.4,1,0.8,1.5,1.2
				c0.5,0.4,1.1,0.8,1.6,1.4l0,0c0.2,0.2,0.2,0.4,0,0.6c-0.1,0.1-0.1,0.1-0.2,0.1c-1.5,0.4-2.9,0.3-4.4,0.1
				c-0.7-0.1-1.4-0.3-2.1-0.6c-0.7-0.2-1.4-0.6-2-0.9c-1.3-0.7-2.4-1.7-3.4-2.9c-1-1.1-1.8-2.5-1.7-4.3c0-0.6,0.6-1.1,1.2-1.1
				c0.1,0,0.2,0,0.3,0.1L16.1,168.3z"/>
		</g>
		<g>
			<path class="st8" d="M17,171.9c1,0.2,2,0.6,2.9,0.9c0.9,0.3,1.8,0.7,2.6,1.1c0.8,0.4,1.7,0.7,2.5,1.3c0.4,0.3,0.8,0.6,1.2,1.1
				c0.4,0.5,0.8,1,1.2,1.7l0,0c0.2,0.3,0.1,0.7-0.2,0.9c-1.3,1.1-2.6,1.4-3.9,1.3c-0.6,0-1.2-0.2-1.8-0.4c-0.6-0.2-1.2-0.4-1.7-0.7
				c-1.1-0.6-2.1-1.3-3-2.2c-0.9-0.9-1.6-1.9-2.1-3.3c-0.3-0.8,0.1-1.7,1-2c0.3-0.1,0.5-0.1,0.8-0.1L17,171.9z"/>
		</g>
		<g>
			<path class="st8" d="M27.2,177.1c0.2-1.2,0.5-2.3,0.7-3.4c0.2-1.1,0.4-2.1,0.5-3.2c0.1-1,0.2-2.1,0.4-3.1c0.2-1,0.5-2.1,1.1-3.3
				l0-0.1c0.3-0.5,0.9-0.7,1.3-0.4c0.1,0.1,0.2,0.2,0.3,0.3c0.9,1.1,1.2,2.4,1.3,3.7c0.1,1.3-0.2,2.6-0.5,3.8
				c-0.4,1.2-0.9,2.4-1.7,3.5c-0.7,1.1-1.6,2-2.8,2.7c-0.2,0.1-0.5,0.1-0.7-0.2C27.2,177.4,27.2,177.3,27.2,177.1L27.2,177.1z"/>
		</g>
		<g>
			<path class="st35" d="M28.1,178.5c0.2-1.3,0.6-2.4,1-3.4c0.4-1,0.8-2,1.2-3c0.4-0.9,0.8-1.9,1.3-2.8c0.6-0.9,1.3-1.7,2.6-2.6l0,0
				c0.3-0.2,0.7-0.1,0.9,0.2l0,0c0.9,1.3,1.1,2.8,0.9,4.1c-0.2,1.3-0.7,2.5-1.4,3.6c-0.7,1.1-1.5,2.1-2.5,2.9
				c-1,0.8-2.1,1.5-3.4,1.9c-0.3,0.1-0.6-0.1-0.7-0.4C28,178.7,28,178.6,28.1,178.5L28.1,178.5z"/>
		</g>
		<g>
			<path class="st36" d="M23.4,172.6c1.1,0.6,1.6,0.9,2.1,1.3c0.5,0.4,1.1,0.7,1.5,1.3c0.4,0.5,0.7,1.2,1,2.1
				c0.1,0.4,0.2,0.9,0.3,1.4c0.1,0.5,0.1,1.1,0.1,1.9l0,0c0,0.3-0.2,0.5-0.4,0.5c-1.4,0.3-2.5,0.2-3.5-0.2c-1-0.4-1.9-1-2.6-1.8
				c-0.7-0.8-1-2-1.2-3.2c-0.1-0.6-0.1-1.3,0-1.9c0.2-0.7,0.5-1.3,1.3-1.9c0.1-0.1,0.2-0.1,0.4,0L23.4,172.6z"/>
		</g>
		<g>
			<path class="st37" d="M28.2,169.8c1.8,0.3,2.6,1.4,3.1,2.5c0.5,1.1,0.8,2.3,0.7,3.4c-0.1,1.1-0.5,2.1-1,3.1
				c-0.6,0.9-1.3,1.8-2.5,2.4c-0.2,0.1-0.5,0.1-0.7-0.2l0,0c-0.4-0.6-0.6-1.1-0.8-1.6c-0.2-0.5-0.4-1-0.5-1.4
				c-0.3-0.9-0.4-1.7-0.5-2.4c-0.1-0.8,0.1-1.5,0.2-2.2c0.1-0.7,0.3-1.4,0.9-2.5l0.4-0.7C27.6,169.8,27.9,169.7,28.2,169.8z"/>
		</g>
	</g>
	<g id="_x31__1_">
		<g>
			<path class="st38" d="M41.3,179.5c1.2,1.6,1.2,3.1,0.9,4.5c-0.3,1.4-0.8,2.8-1.5,4c-0.4,0.6-0.8,1.2-1.3,1.7
				c-0.5,0.5-1,1-1.5,1.4c-1.1,0.8-2.4,1.5-3.8,1.8c-0.3,0.1-0.5-0.1-0.6-0.4c0-0.1,0-0.1,0-0.2l0,0c0.1-0.7,0.3-1.4,0.5-2
				c0.2-0.6,0.4-1.2,0.6-1.7l1.2-3.1c0.4-1,0.8-1.9,1.2-2.9c0.4-0.9,0.8-1.9,1.8-2.8l0.5-0.4C39.9,178.8,40.7,178.9,41.3,179.5
				C41.2,179.4,41.3,179.5,41.3,179.5z"/>
		</g>
		<g>
			<path class="st39" d="M33.9,192.8c-1.5,0.4-3,0.2-4.4-0.1c-1.4-0.4-2.7-1.1-3.9-2.1c-0.6-0.5-1.1-1-1.6-1.6
				c-0.4-0.6-0.9-1.3-1.1-2c-0.5-1.4-0.5-3.1,0.4-4.7c0.2-0.3,0.6-0.4,0.9-0.3l0.1,0c1.7,0.8,2.5,1.5,3.4,2.2c0.8,0.7,1.3,1.5,2,2.3
				l2.1,2.5c0.7,0.9,1.6,1.8,2.4,3l0.1,0.1c0.2,0.3,0.1,0.6-0.1,0.8C34,192.8,33.9,192.8,33.9,192.8z"/>
		</g>
		<g>
			<path class="st1" d="M34,179.8c0.8,1,1.3,1.9,1.6,3c0.3,1.1,0.4,2.2,0.3,3.3c-0.1,1.1-0.2,2.2-0.7,3.2c-0.5,1-1.2,1.9-2.4,2.4
				c-0.3,0.2-0.7,0-0.9-0.3c0,0,0,0,0-0.1l0-0.1c-0.2-0.6-0.3-1.1-0.4-1.6c-0.1-0.5-0.1-0.9-0.1-1.3c0-0.8,0.1-1.6,0.1-2.4
				c0-0.8,0-1.6,0-2.4l0-1.2c0-0.4-0.1-0.9,0-1.2l0.1-0.6c0.1-0.8,0.8-1.4,1.6-1.3C33.5,179.4,33.8,179.6,34,179.8z"/>
		</g>
		<g>
			<path class="st8" d="M38.1,181.9c0.7,1.3,0.9,2.4,1,3.6c0,1.2-0.1,2.4-0.5,3.5c-0.2,0.5-0.4,1.1-0.7,1.6c-0.2,0.5-0.6,1-1,1.4
				c-0.8,0.9-1.9,1.5-3.5,1.7c-0.4,0-0.7-0.2-0.8-0.5l0,0c-0.3-0.8-0.4-1.4-0.4-2c-0.1-0.6,0-1.1,0-1.5c0.1-0.9,0.5-1.7,0.7-2.5
				c0.3-0.8,0.6-1.6,1-2.4c0.4-0.8,0.8-1.7,1.3-2.4l0.4-0.5c0.5-0.7,1.4-0.8,2.1-0.3C37.9,181.6,38,181.8,38.1,181.9z"/>
		</g>
		<g>
			<path class="st8" d="M29.9,193.7c-1.4,0.1-2.8-0.2-4-0.7c-1.3-0.5-2.5-1.1-3.6-1.9c-0.6-0.4-1.1-0.9-1.6-1.3
				c-0.5-0.5-0.9-1-1.3-1.6c-0.7-1.2-1.2-2.6-1-4.1c0-0.3,0.3-0.5,0.6-0.5c0.1,0,0.1,0,0.2,0l0,0c1.4,0.6,2.3,1.3,3.3,2
				c0.9,0.7,1.6,1.5,2.5,2.3c0.8,0.8,1.7,1.6,2.5,2.4c0.9,0.8,1.8,1.6,2.7,2.6l0,0c0.2,0.2,0.2,0.5,0,0.7
				C30.1,193.6,30,193.7,29.9,193.7z"/>
		</g>
		<g>
			<path class="st6" d="M32.7,194.2c-1.3,0.3-2.6,0.3-3.8,0.1c-1.2-0.2-2.4-0.6-3.5-1.2c-1.1-0.6-2.1-1.3-2.9-2.3
				c-0.8-1-1.3-2.3-1.2-3.9c0-0.4,0.4-0.7,0.7-0.6l0,0c1.6,0.1,2.5,0.4,3.5,0.8c0.9,0.4,1.6,1,2.5,1.6c0.8,0.6,1.6,1.2,2.4,1.9
				c0.8,0.7,1.6,1.5,2.4,2.5l0,0c0.2,0.2,0.2,0.6-0.1,0.8C32.9,194.1,32.8,194.2,32.7,194.2z"/>
		</g>
		<g>
			<path class="st9" d="M30.2,182.7c0.9-0.4,1.8-0.2,2.5,0.1c0.7,0.3,1.2,0.8,1.6,1.3c0.8,1,1.4,2.2,1.5,3.4c0.1,0.6,0,1.2-0.1,1.8
				c-0.1,0.6-0.3,1.1-0.5,1.7c-0.5,1.1-1.2,2-2.5,2.9c-0.2,0.1-0.5,0.1-0.7-0.1l0,0c-0.5-0.6-0.9-1.1-1.2-1.6
				c-0.3-0.5-0.6-0.9-0.8-1.4c-0.2-0.4-0.4-0.8-0.5-1.3c-0.2-0.4-0.2-0.8-0.3-1.1c-0.1-0.7,0-1.4,0.1-2.2c0-0.4,0.1-0.7,0.2-1.2
				l0.2-0.8c0-0.1,0.1-0.3,0.1-0.5l0.1-0.6l0-0.2C30,182.9,30.1,182.8,30.2,182.7z"/>
		</g>
		<g>
			<path class="st3" d="M38.1,190.4c-0.4,1-1,1.8-1.9,2.5c-0.9,0.7-2,1.1-3.1,1.5c-1.1,0.3-2.2,0.7-3.3,0.8
				c-1.1,0.1-2.2-0.1-3.1-0.9c-0.2-0.2-0.3-0.6,0-0.8c0.1-0.1,0.1-0.1,0.2-0.1c1.1-0.5,2.1-0.3,3-0.2c0.9,0.2,1.9,0.4,2.9,0.2
				c0.9-0.2,1.6-0.9,2.2-1.6c0.6-0.7,1.3-1.5,2.4-2c0.3-0.1,0.6,0,0.7,0.3C38.1,190.1,38.1,190.2,38.1,190.4L38.1,190.4z"/>
		</g>
	</g>
	<g id="_x33_">
		<g>
			<path class="st12" d="M22.4,162.8c-1.4-0.1-2.5-0.5-3.7-1.1c-1.1-0.6-2.1-1.4-2.9-2.3c-0.8-0.9-1.6-1.9-2-3.2
				c-0.4-1.2-0.5-2.6,0-4c0.1-0.3,0.5-0.5,0.8-0.4c0,0,0,0,0.1,0l0,0c1.3,0.7,2.1,1.4,2.8,2.2c0.7,0.7,1.2,1.6,1.8,2.4l1.7,2.6
				c0.6,0.9,1.2,1.8,1.8,2.9l0,0.1c0.1,0.3,0,0.6-0.2,0.7C22.6,162.8,22.5,162.8,22.4,162.8z"/>
		</g>
		<g>
			<path class="st1" d="M20.6,162.8c-1.4,0.3-2.7,0.2-3.9-0.1c-1.3-0.3-2.5-0.8-3.5-1.6c-1.1-0.7-2.1-1.6-2.8-2.7
				c-0.7-1.1-1.1-2.4-0.9-4c0-0.4,0.4-0.6,0.7-0.6c0,0,0.1,0,0.1,0l0,0c1.5,0.4,2.4,1,3.3,1.5c0.9,0.6,1.6,1.3,2.3,2
				c0.8,0.7,1.5,1.3,2.3,2.1c0.8,0.7,1.7,1.5,2.6,2.3l0.1,0.1c0.2,0.2,0.2,0.6,0,0.8C20.8,162.7,20.7,162.7,20.6,162.8z"/>
		</g>
		<g>
			<path class="st12" d="M22.9,150.5c0.8,1.1,1.1,2.1,1.4,3.2c0.3,1.1,0.4,2.2,0.3,3.3c0,0.6-0.1,1.1-0.2,1.7
				c-0.1,0.5-0.2,1.1-0.4,1.6c-0.4,1-1.1,2-2.1,2.8c-0.3,0.2-0.7,0.1-0.9-0.2c0,0,0-0.1-0.1-0.1l0,0c-0.3-0.6-0.4-1.1-0.5-1.6
				c-0.1-0.5-0.2-1-0.2-1.5c-0.1-0.9,0-1.8,0-2.7l0-2.7c0-0.9,0-1.8,0-2.6l0-0.4c0.1-0.8,0.8-1.4,1.6-1.4
				C22.2,149.9,22.6,150.1,22.9,150.5z"/>
		</g>
		<g>
			<path class="st4" d="M28.4,150.4c0.2,0.4,0.2,0.7,0.3,1c0.1,0.3,0.1,0.6,0.1,0.9c0,0.6,0,1.2-0.1,1.8c-0.2,1.2-0.7,2.3-1.2,3.3
				l-0.5,0.7c-0.2,0.2-0.3,0.5-0.5,0.7c-0.3,0.5-0.8,0.8-1.2,1.2c-0.9,0.7-1.9,1.2-3.2,1.3c-0.4,0-0.7-0.2-0.7-0.6c0,0,0-0.1,0-0.1
				l0,0c0.1-0.7,0.2-1.2,0.4-1.7c0.1-0.5,0.3-0.9,0.5-1.4c0.4-0.8,0.9-1.5,1.3-2.3c0.4-0.7,0.7-1.5,1.1-2.2c0.2-0.4,0.3-0.7,0.4-1.1
				l0.2-0.6c0.1-0.2,0.1-0.4,0.2-0.5l1.8-1c0.4-0.2,0.8-0.1,1.1,0.3C28.4,150.3,28.4,150.3,28.4,150.4z"/>
		</g>
		<g>
			<path class="st5" d="M26.2,151.5c0.4,1.1,0.5,2.1,0.5,3.2c0,1-0.1,2.1-0.4,3.1c-0.3,1-0.6,2-1.2,2.9c-0.6,0.9-1.4,1.7-2.5,2.2
				c-0.3,0.1-0.7,0-0.9-0.3c0,0,0-0.1,0-0.1l0,0c-0.3-1.2-0.3-2.1-0.2-3.1c0.1-0.9,0.3-1.7,0.5-2.6c0.2-0.8,0.4-1.7,0.6-2.5
				c0.2-0.8,0.4-1.7,0.7-2.5l0.1-0.3c0.3-0.8,1.2-1.2,1.9-0.9C25.8,150.8,26.1,151.1,26.2,151.5z"/>
		</g>
		<g>
			<path class="st6" d="M22.1,163.2c-1.5,0.2-2.3-0.5-3.1-1.1c-0.7-0.6-1.2-1.3-1.5-2.1c-0.3-0.7-0.6-1.5-0.4-2.3
				c0.2-0.8,0.6-1.6,1.9-2.5l1-0.1c1.4,0.5,2.1,1,2.5,1.6c0.4,0.5,0.5,1.1,0.6,1.7c0.1,0.6,0,1.1-0.1,1.8c-0.1,0.6-0.3,1.2-0.6,2.1
				L22.1,163.2z"/>
		</g>
	</g>
	<g id="_x34_">
		<g>
			<path class="st26" d="M25.6,139.2c0.3,1.1,0.2,2,0.1,3c-0.2,0.9-0.5,1.8-0.9,2.7c-0.5,0.8-0.9,1.6-1.6,2.3
				c-0.7,0.6-1.6,1.1-2.8,1.2c-0.4,0-0.7-0.2-0.7-0.6l0-0.1c-0.1-0.6,0-1.1,0-1.5c0-0.5,0.1-0.8,0.2-1.2c0.2-0.7,0.6-1.4,0.8-2
				l0.9-1.9c0.3-0.6,0.6-1.4,1-1.9l0.3-0.4c0.5-0.7,1.4-0.8,2.1-0.4C25.4,138.6,25.6,138.9,25.6,139.2z"/>
		</g>
		<g>
			<path class="st12" d="M17.7,149.7c-1.2,0-2.3-0.3-3.3-0.7c-1-0.5-1.9-1.1-2.7-1.9c-0.8-0.8-1.5-1.7-1.8-2.8
				c-0.3-1.1-0.3-2.4,0.4-3.6c0.2-0.3,0.6-0.4,0.9-0.3l0.1,0c1.2,0.6,1.9,1.2,2.5,1.8c0.6,0.6,1,1.3,1.5,1.9
				c0.5,0.7,0.9,1.4,1.4,2.2c0.5,0.8,1,1.6,1.5,2.6l0,0.1c0.1,0.3,0,0.6-0.3,0.8C17.8,149.6,17.7,149.7,17.7,149.7z"/>
		</g>
		<g>
			<path class="st26" d="M20.8,138.1c0.5,1,0.6,1.8,0.7,2.7c0,0.9-0.1,1.8-0.3,2.6c-0.3,0.8-0.6,1.7-1.2,2.4
				c-0.6,0.7-1.4,1.3-2.5,1.5c-0.4,0.1-0.7-0.2-0.8-0.5l0-0.1c-0.2-0.6-0.2-1-0.2-1.4c0-0.4,0-0.8,0-1.1c0.1-0.7,0.3-1.3,0.4-1.9
				l0.4-1.8c0.2-0.6,0.3-1.3,0.6-1.8l0.3-0.5c0.4-0.7,1.2-1,2-0.7C20.4,137.6,20.7,137.8,20.8,138.1z"/>
		</g>
		<g>
			<path class="st15" d="M23.9,140.1c0.4,1.1,0.4,2,0.3,3c-0.1,0.9-0.3,1.9-0.7,2.7c-0.4,0.9-0.8,1.7-1.4,2.4
				c-0.6,0.7-1.5,1.2-2.6,1.4c-0.4,0.1-0.7-0.2-0.8-0.5l0-0.1c-0.1-0.6-0.1-1.1-0.1-1.5c0-0.5,0.1-0.8,0.1-1.2
				c0.2-0.7,0.4-1.4,0.7-2.1l0.7-2c0.3-0.6,0.5-1.4,0.8-2l0.3-0.4c0.4-0.7,1.3-0.9,2-0.5C23.6,139.4,23.8,139.7,23.9,140.1z"/>
		</g>
		<g>
			<path class="st8" d="M16.5,149.3c-1.1,0.4-2.1,0.4-3.1,0.2c-1-0.2-2-0.5-2.9-1c-0.9-0.5-1.7-1.1-2.3-2c-0.6-0.9-0.9-1.9-0.7-3.2
				c0-0.3,0.4-0.6,0.7-0.5l0,0c1.3,0.2,2,0.5,2.8,0.9c0.7,0.4,1.3,0.9,1.9,1.4l1.8,1.5c0.6,0.6,1.3,1.1,2,1.8l0.1,0.1
				c0.2,0.2,0.2,0.5,0,0.7C16.6,149.2,16.5,149.3,16.5,149.3z"/>
		</g>
		<g>
			<path class="st18" d="M17.6,150.5c-0.8,0.5-1.7,0.7-2.5,0.8c-0.8,0-1.6-0.1-2.4-0.3c-0.8-0.3-1.5-0.6-2.1-1.3
				c-0.5-0.7-0.9-1.6-0.8-2.8c0-0.4,0.3-0.6,0.6-0.7l0.1,0c1.2-0.3,1.9-0.3,2.5-0.2c0.6,0.1,1.1,0.4,1.6,0.7c0.5,0.3,1,0.7,1.5,1.1
				c0.5,0.4,1,1,1.6,1.6l0.1,0.1C17.9,149.9,17.9,150.3,17.6,150.5C17.6,150.5,17.6,150.5,17.6,150.5z"/>
		</g>
		<g>
			<path class="st9" d="M17,142.2c0.8-0.2,1.4,0,2,0.4c0.5,0.3,0.8,0.8,1.1,1.2c0.5,0.9,0.8,1.8,0.8,2.7c0,0.9-0.2,1.8-0.5,2.6
				c-0.4,0.8-0.8,1.6-1.6,2.3c-0.2,0.2-0.5,0.1-0.7-0.1c0,0,0,0,0,0l0,0c-0.6-0.9-0.9-1.6-1.2-2.4c-0.3-0.7-0.4-1.4-0.6-2
				c-0.2-0.6-0.1-1.2-0.1-1.8c0-0.3,0-0.6,0.2-1c0.1-0.4,0.3-0.8,0.5-1.5l0.1-0.2C16.8,142.3,16.9,142.2,17,142.2z"/>
		</g>
	</g>
	<g id="_x35_">
		<g>
			<path class="st1" d="M21.7,126.7c0.4,1.1,0.5,1.9,0.5,2.9c0,0.9-0.2,1.9-0.4,2.8c-0.3,0.9-0.6,1.8-1.2,2.5
				c-0.6,0.7-1.4,1.4-2.5,1.7c-0.4,0.1-0.7-0.1-0.8-0.5l0-0.1c-0.2-0.6-0.2-1-0.2-1.5c0-0.5,0-0.8,0-1.2c0.1-0.8,0.3-1.4,0.5-2.1
				c0.2-0.7,0.4-1.4,0.6-2.1c0.2-0.7,0.4-1.4,0.7-2l0.2-0.4c0.4-0.7,1.3-1,2-0.7C21.3,126.1,21.5,126.4,21.7,126.7z"/>
		</g>
		<g>
			<path class="st1" d="M14.7,138.2c-1.3,0.1-2.5-0.1-3.6-0.4c-1.1-0.4-2.2-0.9-3.2-1.6c-1-0.7-1.9-1.5-2.5-2.6
				c-0.6-1.1-0.9-2.4-0.6-3.8c0.1-0.4,0.5-0.6,0.8-0.5c0,0,0,0,0,0l0.1,0c1.4,0.4,2.2,0.9,3,1.5c0.8,0.5,1.4,1.2,2.1,1.9
				c0.7,0.7,1.4,1.4,2.1,2.1c0.7,0.8,1.4,1.6,2.1,2.5l0,0c0.2,0.3,0.1,0.6-0.1,0.8C14.9,138.2,14.8,138.2,14.7,138.2z"/>
		</g>
		<g>
			<path class="st19" d="M16.6,126.4c0.7,0.8,1.1,1.5,1.4,2.4c0.3,0.8,0.4,1.7,0.5,2.6c0,0.9,0,1.8-0.4,2.6
				c-0.3,0.8-0.9,1.6-1.9,2.1c-0.3,0.2-0.7,0.1-0.9-0.2l0-0.1c-0.3-0.5-0.5-0.9-0.7-1.3c-0.2-0.4-0.3-0.7-0.3-1.1
				c-0.1-0.7-0.1-1.3-0.2-2c0-0.6-0.1-1.3-0.1-1.9c0-0.6-0.1-1.4,0-2l0.1-0.6c0.1-0.8,0.9-1.4,1.7-1.2
				C16.1,126,16.4,126.1,16.6,126.4z"/>
		</g>
		<g>
			<path class="st20" d="M19.1,128.9c0.4,1.1,0.5,1.9,0.5,2.9c0,0.9-0.2,1.9-0.4,2.8c-0.3,0.9-0.6,1.8-1.2,2.5
				c-0.6,0.7-1.4,1.4-2.5,1.7c-0.4,0.1-0.7-0.1-0.8-0.5l0-0.1c-0.2-0.6-0.2-1-0.2-1.5c0-0.5,0-0.8,0-1.2c0.1-0.8,0.3-1.4,0.5-2.1
				c0.2-0.7,0.4-1.4,0.6-2.1c0.2-0.7,0.4-1.4,0.7-2l0.2-0.4c0.4-0.7,1.3-1,2-0.7C18.7,128.3,18.9,128.6,19.1,128.9z"/>
		</g>
		<g>
			<path class="st40" d="M14.9,138.7c-1.1,0.5-2.3,0.7-3.4,0.7c-1.1,0-2.2-0.2-3.3-0.5c-1.1-0.3-2.1-0.8-3-1.6
				c-0.9-0.8-1.6-1.8-1.7-3.3c0-0.4,0.2-0.7,0.6-0.7l0,0l0,0c1.4-0.1,2.3,0,3.2,0.2c0.9,0.2,1.6,0.7,2.5,1.1
				c0.8,0.4,1.6,0.8,2.5,1.3c0.8,0.5,1.7,1.1,2.6,1.8l0,0c0.2,0.2,0.3,0.6,0.1,0.8C15,138.6,15,138.6,14.9,138.7z"/>
		</g>
		<g>
			<path class="st41" d="M14.7,139.2c-1,0.5-1.9,0.6-2.9,0.5c-0.9-0.1-1.8-0.3-2.7-0.7c-0.8-0.4-1.7-0.9-2.2-1.7
				c-0.6-0.8-0.9-1.8-0.6-3.1c0.1-0.4,0.4-0.6,0.7-0.6l0.1,0c1.3-0.1,2,0.1,2.7,0.3c0.7,0.2,1.1,0.7,1.7,1c0.5,0.4,1.1,0.8,1.6,1.3
				c0.5,0.5,1.1,1.1,1.7,1.8l0.1,0.1c0.2,0.3,0.2,0.6-0.1,0.8C14.8,139.2,14.7,139.2,14.7,139.2z"/>
		</g>
		<g>
			<path class="st6" d="M14.1,139.2c-0.9-0.6-1.5-1.3-2-1.9c-0.5-0.7-0.8-1.4-1-2.1c-0.2-0.7-0.4-1.4-0.1-2.2
				c0.2-0.8,0.7-1.6,1.9-2.5c0.3-0.2,0.7-0.3,1-0.1c1.4,0.5,2.1,1.2,2.5,1.9c0.4,0.7,0.4,1.4,0.5,2.2c0,0.7-0.1,1.5-0.4,2.3
				c-0.3,0.8-0.7,1.6-1.4,2.4C14.8,139.4,14.4,139.5,14.1,139.2z"/>
		</g>
	</g>
	<g id="_x36_">
		<g>
			<path class="st8" d="M3,122.2c0.6,0.3,1.3,0.7,2,1.1l1.9,1.2c0.6,0.4,1.3,0.8,1.9,1.3c0.6,0.5,1.2,1.1,1.8,2.1l0,0
				c0.2,0.3,0.1,0.7-0.2,0.9c0,0,0,0,0,0c-1.1,0.6-2.1,0.6-3.1,0.5c-1-0.1-1.9-0.6-2.7-1.1c-0.8-0.5-1.6-1.1-2.3-1.8
				c-0.7-0.7-1.2-1.5-1.6-2.5c-0.3-0.8,0.1-1.6,0.8-1.9c0.4-0.2,0.8-0.1,1.1,0L3,122.2z"/>
		</g>
		<g>
			<path class="st1" d="M11.9,128.6c-0.1-1.2-0.1-2.2-0.1-3.2c0-1,0-2,0.1-2.9c0.1-0.9,0-1.8,0.2-2.8c0.2-0.9,0.5-1.9,1.2-3.1l0,0
				c0.2-0.3,0.6-0.4,0.9-0.2c0,0,0,0,0,0c1.2,0.8,1.9,2,2.2,3.1c0.3,1.2,0.2,2.4,0,3.6c-0.2,1.2-0.6,2.3-1.2,3.3
				c-0.6,1-1.3,2-2.4,2.7c-0.3,0.2-0.6,0.1-0.8-0.1C12,128.9,11.9,128.8,11.9,128.6L11.9,128.6z"/>
		</g>
		<g>
			<path class="st26" d="M7.6,120.5c0.2,0.2,0.4,0.6,0.6,0.9c0.2,0.3,0.4,0.6,0.5,0.9c0.4,0.6,0.7,1.2,1.1,1.8
				c0.3,0.6,0.7,1.2,1.1,1.8c0.1,0.4,0.3,0.7,0.4,1.1c0.1,0.4,0.3,0.9,0.3,1.5l0,0.1c0,0.4-0.2,0.7-0.6,0.7c-1.2,0.1-2.2-0.2-3-0.7
				c-0.8-0.5-1.4-1.3-2-2.1c-0.5-0.8-1-1.7-1.2-2.7c-0.2-1-0.3-1.9-0.1-3.1c0.1-0.8,0.9-1.3,1.7-1.2c0.3,0.1,0.6,0.2,0.8,0.5
				L7.6,120.5z"/>
		</g>
		<g>
			<path class="st20" d="M5.8,122.6c0.6,0.3,1.3,0.8,1.8,1.2c0.6,0.4,1.1,0.9,1.7,1.4c0.5,0.5,1.1,0.9,1.5,1.5
				c0.5,0.6,0.9,1.3,1.2,2.4l0,0c0.1,0.4-0.1,0.7-0.5,0.9c-1.1,0.4-2.1,0.3-2.9,0c-0.9-0.3-1.6-0.8-2.3-1.4
				c-0.7-0.6-1.3-1.2-1.8-1.9c-0.5-0.7-0.9-1.5-1.2-2.5c-0.2-0.8,0.2-1.7,1-1.9c0.4-0.1,0.8-0.1,1.1,0.1L5.8,122.6z"/>
		</g>
		<g>
			<path class="st22" d="M11.5,129.6c-0.4-0.9-0.6-1.8-0.8-2.6c-0.2-0.8-0.3-1.6-0.4-2.4c-0.1-0.8-0.2-1.5-0.2-2.3
				c0.1-0.8,0.3-1.6,0.9-2.8l0,0c0.2-0.3,0.6-0.5,0.9-0.3c1.2,0.5,2,1.4,2.4,2.3c0.5,0.9,0.5,2,0.5,3c0,1-0.2,2-0.6,2.9
				c-0.4,0.9-0.9,1.8-1.8,2.6c-0.2,0.2-0.6,0.2-0.8-0.1C11.6,129.8,11.6,129.7,11.5,129.6L11.5,129.6z"/>
		</g>
	</g>
	<g id="_x31_">
		<g>
			<path class="st3" d="M48.6,221.6c-0.4,1-1,1.8-1.9,2.5c-0.9,0.7-2,1.1-3.1,1.5c-1.1,0.3-2.2,0.7-3.3,0.8
				c-1.1,0.1-2.2-0.1-3.1-0.9c-0.2-0.2-0.3-0.6,0-0.8c0.1-0.1,0.1-0.1,0.2-0.1c1.1-0.5,2.1-0.3,3-0.2c0.9,0.2,1.9,0.4,2.9,0.2
				c0.9-0.2,1.6-0.9,2.2-1.6c0.6-0.7,1.3-1.5,2.4-2c0.3-0.1,0.6,0,0.7,0.3C48.7,221.3,48.7,221.4,48.6,221.6L48.6,221.6z"/>
		</g>
		<g>
			<path class="st42" d="M35.5,208.6c0.3,0.3,0.6,0.8,0.9,1.2c0.3,0.4,0.6,0.8,0.9,1.2c0.6,0.8,1.3,1.5,2,2.2
				c0.7,0.7,1.5,1.4,2.3,2.1c0.4,0.4,0.8,0.7,1.2,1.2c0.4,0.4,0.8,0.9,1.2,1.5l0,0c0.2,0.3,0.1,0.6-0.2,0.8c-0.1,0-0.1,0.1-0.2,0.1
				c-1.4,0.3-2.8,0.2-4-0.3c-0.3-0.1-0.6-0.3-0.9-0.4c-0.3-0.2-0.6-0.3-0.8-0.5c-0.6-0.4-1.1-0.8-1.6-1.3c-1-0.9-1.8-2-2.4-3.2
				c-0.3-0.6-0.6-1.2-0.8-1.9c-0.2-0.7-0.3-1.3-0.3-2.1c0-0.8,0.6-1.5,1.4-1.5c0.5,0,0.9,0.2,1.2,0.5L35.5,208.6z"/>
		</g>
		<g>
			<path class="st42" d="M42.2,219.6c-0.4-1.2-0.7-2.4-0.9-3.5c-0.2-1.1-0.4-2.3-0.5-3.4c-0.1-1.1-0.3-2.2-0.3-3.3
				c0-1.1,0.1-2.2,0.5-3.5l0-0.1c0.1-0.5,0.6-0.7,1.1-0.6c0.1,0,0.2,0.1,0.2,0.1c1.3,0.8,2,2.1,2.4,3.3c0.4,1.2,0.5,2.5,0.5,3.8
				c0,1.3-0.2,2.5-0.5,3.7c-0.3,1.2-0.8,2.4-1.5,3.5c-0.2,0.3-0.5,0.3-0.8,0.2C42.3,219.9,42.3,219.8,42.2,219.6L42.2,219.6z"/>
		</g>
		<g>
			<path class="st11" d="M31.5,210.7c1.4,0.6,2.4,1.4,3.3,2.2c1,0.8,2,1.6,3,2.4c1,0.8,2.1,1.6,3.2,2.4c0.6,0.4,1.1,0.8,1.7,1.3
				c0.6,0.4,1.2,0.9,1.8,1.4l0,0c0.2,0.2,0.2,0.4,0,0.6c-0.1,0.1-0.1,0.1-0.2,0.1c-1.6,0.3-3.2,0.3-4.7-0.1
				c-0.8-0.2-1.5-0.4-2.3-0.7c-0.8-0.3-1.5-0.6-2.2-1c-1.4-0.8-2.7-1.9-3.7-3.1c-1.1-1.2-2-2.7-1.9-4.7c0-0.6,0.5-1.1,1.2-1.1
				c0.2,0,0.3,0,0.4,0.1L31.5,210.7z"/>
		</g>
		<g>
			<path class="st24" d="M41.8,221.6c0.3-1.3,0.6-2.5,0.8-3.7c0.2-1.2,0.5-2.3,0.6-3.5c0.2-1.2,0.3-2.3,0.5-3.5
				c0.2-1.2,0.5-2.3,1.1-3.6l0-0.1c0.2-0.5,0.8-0.7,1.3-0.5c0.2,0.1,0.3,0.2,0.4,0.3c0.9,1.2,1.3,2.6,1.3,4c0.1,1.4-0.2,2.8-0.6,4.2
				c-0.4,1.4-1,2.6-1.8,3.8c-0.8,1.2-1.7,2.2-3,3c-0.2,0.1-0.5,0.1-0.7-0.1C41.8,221.9,41.7,221.7,41.8,221.6L41.8,221.6z"/>
		</g>
		<g>
			<path class="st43" d="M30.3,215.5c1.1,0.3,2.2,0.7,3.1,1.1c1,0.4,1.9,0.8,2.9,1.3c0.9,0.5,1.9,0.8,2.8,1.5
				c0.5,0.3,0.9,0.7,1.4,1.2c0.5,0.5,0.9,1,1.4,1.8l0,0c0.2,0.3,0.1,0.7-0.2,0.9c-1.4,1-2.9,1.3-4.2,1.2c-0.7,0-1.3-0.2-2-0.4
				c-0.6-0.2-1.3-0.5-1.9-0.8c-1.2-0.6-2.3-1.4-3.3-2.3c-1-1-1.8-2-2.3-3.5c-0.3-0.8,0.1-1.7,0.9-2c0.3-0.1,0.6-0.1,0.9-0.1
				L30.3,215.5z"/>
		</g>
		<g>
			<path class="st44" d="M42.6,222.6c0.3-1.4,0.7-2.6,1.2-3.7c0.4-1.1,0.9-2.2,1.3-3.3c0.5-1.1,0.9-2.1,1.5-3.1c0.7-1,1.3-1.9,2.7-3
				l0,0c0.3-0.2,0.7-0.2,0.9,0.1c0,0,0,0,0,0.1c0.9,1.5,1.1,3,0.9,4.4c-0.2,1.4-0.8,2.7-1.5,3.9c-0.7,1.2-1.6,2.3-2.6,3.2
				c-1,0.9-2.2,1.7-3.6,2.1c-0.3,0.1-0.6-0.1-0.7-0.4C42.6,222.9,42.6,222.8,42.6,222.6L42.6,222.6z"/>
		</g>
		<g>
			<path class="st14" d="M41.5,222c-0.9-0.9-1.6-1.8-2.2-2.7c-0.6-0.9-1.1-1.8-1.5-2.6c-0.4-0.9-0.9-1.7-1.1-2.6
				c-0.2-0.9-0.2-1.9,0-3.5l0-0.1c0.1-0.5,0.6-0.9,1.1-0.9c1.7,0.1,2.8,0.9,3.7,1.8c0.8,1,1.2,2.1,1.6,3.3c0.3,1.2,0.4,2.4,0.3,3.5
				c-0.1,1.2-0.3,2.4-1,3.6c-0.2,0.3-0.5,0.4-0.8,0.3C41.6,222.1,41.5,222.1,41.5,222L41.5,222z"/>
		</g>
		<g>
			<path class="st45" d="M38.7,216c1.1,0.6,1.6,1,2,1.5c0.5,0.5,1.1,0.9,1.4,1.4c0.2,0.3,0.4,0.6,0.5,1c0.2,0.4,0.3,0.8,0.4,1.2
				c0.1,0.4,0.2,0.9,0.2,1.5c0.1,0.5,0.1,1.1,0,1.9l0,0c0,0.3-0.2,0.5-0.5,0.5c-1.4,0.2-2.5,0-3.5-0.4c-1-0.5-1.8-1.1-2.4-2
				c-0.6-0.9-0.9-2.1-1-3.3c-0.1-1.2,0-2.6,1.4-3.7c0.2-0.1,0.4-0.1,0.6,0L38.7,216z"/>
		</g>
		<g>
			<path class="st6" d="M44.5,213.7c1.8,0.3,2.6,1.5,3,2.5c0.4,1.1,0.6,2.2,0.4,3.2c-0.2,1-0.6,2-1.2,2.8c-0.6,0.8-1.4,1.5-2.6,2
				c-0.2,0.1-0.5,0-0.7-0.2l0,0c-0.3-0.6-0.6-1.1-0.7-1.6c-0.2-0.5-0.3-0.9-0.4-1.3c-0.1-0.4-0.2-0.8-0.2-1.2
				c-0.1-0.4-0.1-0.7-0.1-1.1c0-0.7,0.2-1.3,0.4-1.9c0.1-0.6,0.4-1.1,1.1-2.2l0.6-0.9C44.2,213.7,44.4,213.7,44.5,213.7z"/>
		</g>
		<g id="Layer_18_copy_9">
		</g>
	</g>
	<g id="bud_1_">
		<g>
			<path class="st1" d="M5.9,99.3c0.7,0.8,1.1,1.5,1.3,2.3c0.3,0.8,0.4,1.6,0.4,2.4c0,0.8,0,1.6-0.3,2.4c-0.3,0.8-0.8,1.5-1.8,2.1
				c-0.3,0.2-0.7,0.1-0.9-0.2l0,0c-0.4-0.4-0.6-0.8-0.7-1.2c-0.2-0.4-0.3-0.7-0.4-1c-0.2-0.6-0.2-1.2-0.3-1.9c0-0.6-0.1-1.2-0.1-1.8
				c0-0.6,0-1.3,0.1-1.8l0.1-0.6c0.2-0.8,1-1.3,1.8-1.1C5.4,99,5.7,99.1,5.9,99.3z"/>
		</g>
		<g>
			<path class="st24" d="M3.1,101.5c0.4,0.4,0.7,1,1,1.4c0.3,0.5,0.5,1,0.7,1.5c0.2,0.5,0.4,1,0.5,1.6c0.1,0.6,0.1,1.2-0.1,2.3
				l0,0.1c-0.1,0.4-0.4,0.6-0.7,0.6c-1.1,0-1.8-0.3-2.4-0.8c-0.6-0.5-1-1.2-1.3-1.8c-0.3-0.7-0.6-1.4-0.7-2.1
				c-0.1-0.8-0.1-1.5,0.1-2.3c0.2-0.8,1-1.3,1.8-1.1c0.3,0.1,0.5,0.2,0.7,0.4L3.1,101.5z"/>
		</g>
		<g>
			<path class="st24" d="M6.4,116.4c0-1,0.1-1.9,0.2-2.7c0.1-0.8,0.3-1.6,0.5-2.3c0.2-0.7,0.4-1.5,0.8-2.1c0.4-0.7,1-1.3,2.1-2l0,0
				c0.3-0.2,0.7-0.2,1,0.1c0.9,1,1.2,2,1.2,3c0,1-0.4,1.9-0.8,2.8c-0.4,0.9-1,1.6-1.7,2.3c-0.7,0.7-1.5,1.3-2.5,1.6
				c-0.3,0.1-0.6-0.1-0.8-0.4C6.4,116.6,6.4,116.6,6.4,116.4L6.4,116.4z"/>
		</g>
		<g>
			<path class="st8" d="M3.1,108.5c0.5,0.2,1,0.6,1.4,0.9c0.4,0.3,0.8,0.7,1.2,1c0.4,0.4,0.8,0.7,1.1,1.1c0.3,0.5,0.6,1,0.8,2l0,0.1
				c0.1,0.4-0.1,0.7-0.4,0.9c-0.9,0.5-1.8,0.5-2.5,0.3c-0.8-0.2-1.4-0.6-1.9-1.1c-0.6-0.5-1.1-1-1.5-1.6c-0.4-0.6-0.7-1.3-0.8-2.1
				c-0.1-0.8,0.4-1.6,1.3-1.7c0.3,0,0.5,0,0.8,0.1L3.1,108.5z"/>
		</g>
		<g>
			<path class="st20" d="M2.3,114.5c0.6,0.1,1.2,0.4,1.8,0.7c0.6,0.3,1.1,0.6,1.6,0.8c0.5,0.3,1.1,0.6,1.5,1c0.5,0.4,1,0.9,1.5,1.8
				l0,0.1c0.2,0.3,0.1,0.7-0.2,0.9c-0.8,0.7-1.8,0.9-2.6,0.9c-0.9,0-1.6-0.4-2.4-0.7c-0.7-0.4-1.4-0.8-2-1.4c-0.6-0.6-1.1-1.2-1.5-2
				c-0.4-0.8,0-1.7,0.7-2c0.3-0.1,0.7-0.2,1-0.1L2.3,114.5z"/>
		</g>
		<g>
			<path class="st24" d="M6.6,111.2c-0.3-0.9-0.4-1.6-0.5-2.4C6,108,6,107.3,6,106.7c0-0.7,0-1.3,0.3-2c0.3-0.7,0.6-1.3,1.4-2.2l0,0
				c0.2-0.2,0.6-0.3,0.9-0.1c1,0.7,1.4,1.5,1.6,2.3c0.2,0.8,0.1,1.7-0.1,2.5c-0.2,0.8-0.5,1.6-0.9,2.3c-0.5,0.7-1,1.4-1.8,1.9
				c-0.2,0.2-0.6,0.1-0.8-0.1C6.6,111.3,6.6,111.3,6.6,111.2L6.6,111.2z"/>
		</g>
		<g>
			<path class="st30" d="M5.6,110.8c-0.7-0.7-1.1-1.3-1.5-1.9c-0.4-0.6-0.7-1.2-1-1.8c-0.3-0.6-0.5-1.2-0.6-1.9c0-0.7,0-1.4,0.5-2.6
				l0,0c0.1-0.3,0.5-0.5,0.8-0.5c1.3,0.1,2.1,0.7,2.6,1.4c0.6,0.7,0.8,1.5,1,2.3c0.2,0.8,0.2,1.7,0.1,2.5c-0.1,0.9-0.4,1.7-1,2.5
				c-0.2,0.3-0.6,0.3-0.9,0.2C5.7,110.9,5.7,110.9,5.6,110.8L5.6,110.8z"/>
		</g>
		<g>
			<path class="st22" d="M8.2,119.7c0-0.9,0.2-1.8,0.3-2.5c0.2-0.8,0.4-1.4,0.6-2.1c0.2-0.7,0.5-1.3,0.9-1.9
				c0.5-0.6,1.1-1.2,2.3-1.7l0,0c0.3-0.2,0.7,0,0.9,0.2c0.8,1,0.9,2,0.9,2.9c-0.1,0.9-0.5,1.7-0.9,2.5c-0.5,0.8-1,1.5-1.8,2
				c-0.7,0.6-1.5,1.1-2.6,1.3c-0.3,0.1-0.6-0.1-0.7-0.5c0,0,0-0.1,0-0.1L8.2,119.7z"/>
		</g>
		<g>
			<path class="st10" d="M8.4,112.5c0.4,0.5,0.7,1.2,1,1.8c0.3,0.6,0.4,1.2,0.6,1.8c0.1,0.6,0.3,1.2,0.3,1.9c0,0.7-0.1,1.4-0.6,2.3
				l0,0c-0.2,0.3-0.6,0.5-0.9,0.4c-1-0.3-1.7-0.9-2.1-1.5c-0.5-0.6-0.7-1.3-0.9-2c-0.2-0.7-0.4-1.4-0.4-2.1c0-0.7,0-1.4,0.2-2.2
				c0.2-0.9,1.1-1.4,2-1.1c0.4,0.1,0.6,0.3,0.9,0.6L8.4,112.5z"/>
		</g>
	</g>
	<g id="bloom_1_">
		<path class="st33" d="M12.2,148.5c-1.4,0.8-1.9-0.3-2.2-1.4c-0.1-0.6-0.7-0.9-1.3-0.8c-2.6,0.7-2.1-1.5-1.1-2.9
			c0.3-0.5,0.2-1.1-0.2-1.4c-1-0.8-0.6-2.6,0.7-3.4c0.5-0.3,1-0.1,1.3,0.3c0,0,0.1,0.1,0.1,0.1c0.5,0.6,1.2,1.8,1.8-0.2
			c1.2-3.6,3.9-0.1,3.6,2.1c-0.1,0.5,0.3,1,0.8,1.1c2.3,0.4,2.9,4.8-1.2,4.2c-0.5-0.1-1,0.2-1.2,0.7
			C13.1,147.7,12.7,148.2,12.2,148.5z"/>
		<ellipse transform="matrix(0.971 -0.2392 0.2392 0.971 -33.8937 6.908)" class="st32" cx="11.5" cy="143.1" rx="1.4" ry="1"/>
	</g>
	<g id="bloom">
		
			<ellipse transform="matrix(0.1149 -0.9934 0.9934 0.1149 -176.7844 231.4091)" class="st1" cx="41.5" cy="214.9" rx="2.5" ry="1.8"/>
		<path class="st46" d="M36.4,212.4c-0.1,1.2,1.9,1.3,2.8,1c0.5-0.1,1,0.1,1.1,0.5c0.4,1.9,3.2,1.3,2.7-0.4
			c-0.1-0.4,0.8-0.5,1.2-0.4c1.1,0.3,2.3-0.6,2.4-1.7c0-0.4-0.3-0.7-0.8-0.7c0,0-0.1,0-0.1,0c-0.7-0.1-1.9,0-0.6-1.2
			c2.4-2.1-1.2-4.2-3.1-1.5c-0.3,0.4-0.3,0.7-0.5,0.4c-1.9-4.6-5.6-0.4-3.6,1.9c0.3,0.3-0.6,0.5-1,0.8
			C36.7,211.5,36.5,211.9,36.4,212.4z"/>
		
			<ellipse transform="matrix(0.1149 -0.9934 0.9934 0.1149 -172.1713 227.833)" class="st32" cx="41.8" cy="210.5" rx="1.1" ry="1.4"/>
	</g>
	<g id="leaf">
		<g>
			<path class="st3" d="M66.2,252.8c1,1.9,1.4,4.1,1.4,6.3c0,2.2-0.3,4.3-0.8,6.4c-0.5,2.1-1.1,4.1-1.8,6l-2,5.8l-0.2,0.6l-0.6-0.3
				c-1.8-0.8-3.5-1.8-5.2-2.8c-1.7-1.1-3.3-2.3-4.8-3.6c-1.5-1.4-2.9-2.9-3.9-4.7c-1-1.8-1.8-3.7-2.1-5.7c0-0.3,0.2-0.5,0.4-0.6
				c0.2,0,0.4,0.1,0.5,0.2l0,0c1.2,1.6,2.3,3.1,3.4,4.5c1.2,1.4,2.3,2.9,3.6,4.2c1.3,1.3,2.7,2.6,4.1,3.8c1.4,1.3,2.9,2.5,4.4,3.9
				l-0.8,0.3c0.1-2.1,0.5-4.2,0.9-6.2c0.4-2,0.9-4,1.3-6c0.4-2,0.6-3.9,0.8-5.9c0.2-2,0.2-3.9,0.2-6l0,0c0-0.3,0.2-0.5,0.5-0.5
				C66,252.5,66.2,252.6,66.2,252.8z"/>
		</g>
	</g>
	<g>
		<path class="st3" d="M26.1,160.9c-0.4,0.7-1,1.2-1.8,1.5c-0.8,0.3-1.6,0.5-2.4,0.7c-0.8,0.2-1.5,0.7-2.3,0.9
			c-0.8,0.2-1.6,0.3-2.4-0.4c-0.3-0.2-0.3-0.7-0.1-0.9c0,0,0,0,0-0.1c0.7-0.7,1.4-0.7,2.2-0.7c0.7,0,1.5,0.2,2.2,0
			c0.7-0.2,1.3-0.6,1.8-1.1c0.6-0.4,1.2-0.8,2.1-0.9c0.3,0,0.6,0.2,0.6,0.5C26.2,160.7,26.1,160.8,26.1,160.9L26.1,160.9z"/>
	</g>
	<g>
		<path class="st3" d="M15.1,129c-0.3,0.6-0.8,1-1.5,1.2c-0.6,0.2-1.3,0.2-1.9,0.5c-0.6,0.2-1.2,0.6-1.8,0.9
			c-0.6,0.2-1.2,0.3-1.9-0.3c-0.3-0.3-0.3-0.7-0.1-1c0.5-0.8,1.1-0.8,1.7-0.8c0.6,0,1.2,0.2,1.8,0.1c0.6-0.1,1-0.5,1.5-0.9
			c0.5-0.3,1-0.6,1.7-0.5c0.3,0,0.6,0.3,0.5,0.6C15.2,128.8,15.2,128.9,15.1,129L15.1,129z"/>
	</g>
</g>
</svg>
