<?xml version="1.0" encoding="utf-8"?>
<!-- Generator: Adobe Illustrator 23.0.0, SVG Export Plug-In . SVG Version: 6.00 Build 0)  -->
<svg version="1.1" id="logo" xmlns="http://www.w3.org/2000/svg" xmlns:xlink="http://www.w3.org/1999/xlink" x="0px" y="0px"
	 viewBox="0 0 254.1 109.6" style="enable-background:new 0 0 254.1 109.6;" xml:space="preserve">
<style type="text/css">
	.st0{enable-background:new    ;}
	.st1{fill:#FFFFFF;}
</style>
<g class="st0">
	<path class="st1" d="M82,54.7c-0.3,0.6-0.7,1.4-1.3,2.4c-0.6,1-1.1,2.1-1.8,3.3s-1.3,2.4-1.9,3.7c-0.6,1.3-1.2,2.5-1.8,3.8
		s-1,2.4-1.3,3.5c-0.3,1.1-0.5,2-0.5,2.8s0.1,1.2,0.4,1.5c0.3,0.2,0.7,0.3,1.1,0.3c0.7,0,1.4-0.2,2.1-0.6c0.7-0.4,1.4-0.9,2.1-1.5
		c0.7-0.6,1.4-1.3,2-2.1c0.7-0.8,1.3-1.6,1.8-2.4c0.6-0.8,1.1-1.6,1.6-2.3c0.5-0.7,0.9-1.4,1.2-1.9l1.3,1c-0.4,0.8-0.9,1.6-1.4,2.4
		c-0.5,0.9-1.1,1.7-1.8,2.6c-0.6,0.9-1.3,1.7-2.1,2.5c-0.8,0.8-1.5,1.5-2.4,2.2c-0.8,0.6-1.7,1.1-2.6,1.5S75,77.8,74,77.8
		c-1.4,0-2.4-0.4-3.1-1.3c-0.7-0.8-1-1.9-1-3.3c0-0.1,0-0.3,0-0.6c0-0.3,0-0.6,0.1-0.8c-1.2,1.5-2.3,2.7-3.4,3.7
		c-1.1,1-2.1,1.7-3.1,2.3c-1,0.6-2,1-2.9,1.2c-0.9,0.2-1.8,0.3-2.7,0.3c-0.9,0-1.7-0.1-2.5-0.4c-0.8-0.3-1.5-0.7-2.1-1.3
		s-1.1-1.3-1.4-2.1c-0.3-0.8-0.5-1.8-0.5-2.8c0-1.3,0.3-2.9,0.9-4.6s1.7-3.6,3.2-5.6c1.3-1.7,2.6-3.2,4-4.3c1.4-1.2,2.8-2.1,4.1-2.8
		c1.3-0.7,2.6-1.2,3.8-1.5c1.2-0.3,2.3-0.5,3.3-0.5c2.2,0,3.8,0.4,4.9,1.1c1.1,0.7,1.8,1.8,2,3.3c0.5-0.6,1-1.2,1.5-1.8
		c0.5-0.6,1-1.2,1.6-1.8L82,54.7z M71.2,68.1c0.3-0.5,0.7-1.1,1.1-1.9c0.4-0.8,0.9-1.5,1.4-2.4s1-1.6,1.4-2.3
		c0.5-0.8,0.9-1.4,1.2-1.9c0-0.2,0-0.6-0.1-1c-0.1-0.5-0.2-0.9-0.5-1.4c-0.3-0.5-0.7-0.9-1.2-1.2c-0.6-0.4-1.3-0.5-2.4-0.5
		c-0.7,0-1.5,0.1-2.4,0.3c-0.9,0.2-1.9,0.6-2.9,1.1s-2.1,1.2-3.1,2.1c-1.1,0.9-2.2,1.9-3.2,3.2c-1.6,1.9-2.9,3.9-3.7,5.9
		s-1.3,3.7-1.3,5.3c0,1.3,0.3,2.4,0.9,3.1c0.6,0.7,1.5,1.1,2.6,1.1c1.3,0,2.5-0.3,3.6-0.9s2.2-1.3,3.2-2.2s1.9-1.9,2.8-3
		C69.5,70.2,70.3,69.2,71.2,68.1z"/>
	<path class="st1" d="M104.4,64.6c-0.4-0.8-0.7-1.7-0.9-2.6c-0.2-0.9-0.3-1.8-0.3-2.8c0-1.2,0.1-2.3,0.3-3.1
		c0.2-0.9,0.5-1.5,0.8-2.1c0.3-0.5,0.7-0.9,1.1-1.1s0.8-0.4,1.1-0.4c0.3,0,0.6,0.1,0.9,0.2c0.3,0.1,0.5,0.3,0.7,0.7s0.4,0.7,0.5,1.2
		c0.1,0.5,0.2,1.1,0.2,1.8c0,1.7-0.3,3.4-1,5.2s-1.6,3.5-2.7,5.2c-1.1,1.7-2.4,3.2-3.8,4.7c-1.5,1.5-3,2.8-4.5,3.9
		c-0.4,0.3-0.9,0.6-1.5,1c-0.6,0.3-1.1,0.7-1.8,0.9c-0.6,0.3-1.3,0.5-1.9,0.7s-1.3,0.3-2,0.3c-1.6,0-2.9-0.6-3.8-1.8s-1.5-2.8-1.5-5
		c0-1,0.1-2,0.4-3.2s0.7-2.3,1.2-3.5s1.1-2.4,1.7-3.6c0.7-1.2,1.4-2.3,2.1-3.4s1.5-2.1,2.3-3.1c0.8-1,1.6-1.8,2.4-2.5l1.5,1
		c-1.4,2.1-2.5,4.1-3.5,6s-1.8,3.8-2.4,5.5c-0.6,1.7-1.1,3.3-1.4,4.7s-0.5,2.6-0.5,3.7c0,1.2,0.2,2,0.5,2.5s0.8,0.8,1.4,0.8
		c0.6,0,1.3-0.2,2.3-0.6c1-0.4,2.1-1.1,3.5-2c1.7-1.2,3.3-2.6,4.8-4.2S103.4,66.5,104.4,64.6z M105.6,62.9c0.5-1.1,0.8-2.2,1.1-3.3
		c0.3-1.1,0.4-2.2,0.4-3.2c0-0.7-0.1-1.2-0.2-1.5c-0.1-0.3-0.2-0.5-0.3-0.5c0,0-0.1,0.1-0.3,0.2c-0.2,0.1-0.3,0.4-0.5,0.8
		c-0.2,0.4-0.4,0.9-0.5,1.5c-0.2,0.6-0.2,1.5-0.2,2.5c0,0.6,0,1.2,0.1,1.9C105.3,61.8,105.4,62.4,105.6,62.9z"/>
	<path class="st1" d="M113.7,70.1c0,0.3-0.1,0.6-0.1,0.8c0,0.3,0,0.6,0,0.8c0,0.8,0.1,1.6,0.4,2.4s0.6,1.4,1.1,2
		c0.5,0.6,1.1,1,1.8,1.4c0.7,0.3,1.5,0.5,2.4,0.5c3.1,0,6-1,8.9-3.1c2.9-2.1,5.7-5.4,8.5-9.9l1.2,1.1c-1.5,2.6-3.1,4.8-4.7,6.5
		c-1.6,1.8-3.2,3.2-4.8,4.3s-3.1,1.9-4.7,2.4c-1.5,0.5-3,0.7-4.4,0.7c-1,0-2.1-0.1-3.2-0.4s-2.2-0.8-3.1-1.4s-1.7-1.5-2.4-2.6
		s-0.9-2.5-0.9-4.1c0-1.8,0.3-3.5,0.9-5.1s1.4-3.1,2.3-4.6c1-1.4,2.1-2.7,3.3-3.8c1.2-1.2,2.5-2.2,3.8-3c1.3-0.8,2.5-1.5,3.7-1.9
		c1.2-0.5,2.3-0.7,3.2-0.7c0.6,0,1.2,0.1,1.9,0.3s1.2,0.5,1.7,0.9c0.5,0.4,0.9,0.9,1.2,1.6s0.5,1.4,0.5,2.4c0,1.2-0.3,2.4-0.9,3.5
		c-0.6,1.1-1.3,2.1-2.3,3c-1,0.9-2.1,1.8-3.3,2.5s-2.6,1.4-4,1.9c-1.4,0.5-2.8,0.9-4.2,1.2S115,70.1,113.7,70.1z M114,68.6
		c1.6-0.2,3-0.5,4.4-1c1.4-0.5,2.6-1.1,3.8-1.8c1.1-0.7,2.2-1.5,3.1-2.3c0.9-0.8,1.7-1.7,2.3-2.6c0.6-0.9,1.1-1.7,1.4-2.5
		c0.3-0.8,0.5-1.5,0.5-2.1c0-0.6-0.2-1.1-0.5-1.5c-0.3-0.4-0.7-0.6-1.2-0.6c-1,0-2.2,0.4-3.5,1.1c-1.3,0.7-2.6,1.8-3.9,3.1
		c-1.3,1.3-2.5,2.8-3.6,4.6C115.6,64.7,114.7,66.5,114,68.6z"/>
	<path class="st1" d="M166,59.8c0,1-0.2,2-0.5,3.1s-0.8,2.1-1.3,3.1s-1.1,2.1-1.7,3.1s-1.2,2-1.7,2.9s-1,1.8-1.3,2.7
		s-0.5,1.6-0.5,2.3c0,0.5,0.1,0.9,0.4,1.1s0.5,0.3,0.8,0.3c0.9,0,1.9-0.4,3-1.3s2.2-2,3.4-3.3s2.3-2.8,3.4-4.4s2.1-3.1,3.1-4.5
		l1.3,1c-0.2,0.3-0.5,0.8-1,1.7s-1.1,1.8-1.8,2.8s-1.5,2.2-2.4,3.3s-1.9,2.2-2.9,3.2s-2.1,1.8-3.2,2.4s-2.2,0.9-3.3,0.9
		c-0.6,0-1.2-0.1-1.7-0.3s-1-0.5-1.3-0.9s-0.7-0.8-0.9-1.3s-0.3-1-0.3-1.6c0-0.9,0.2-1.9,0.6-3s0.9-2.2,1.5-3.3s1.3-2.3,2-3.4
		s1.4-2.2,2-3.3s1.1-2,1.5-2.9s0.6-1.6,0.6-2.3c0-0.7-0.2-1.3-0.6-1.8c-0.4-0.5-0.9-0.7-1.6-0.7c-0.8,0-1.6,0.3-2.6,0.9
		c-1,0.6-2.1,1.5-3.3,2.7s-2.5,2.7-4,4.4s-3,3.7-4.7,6c-1,1.3-1.9,2.5-2.8,3.7c-0.4,0.5-0.8,1-1.2,1.6c-0.4,0.5-0.8,1.1-1.2,1.6
		c-0.4,0.5-0.8,1-1.1,1.5s-0.7,0.9-0.9,1.2l-3.1-1.3l4.1-5.7c0.6-0.8,1.2-1.7,1.8-2.6c0.6-0.9,1.2-1.9,1.8-2.8s1.2-2,1.7-2.9
		c0.5-1,1-1.9,1.5-2.9c0.7-1.4,1.1-2.6,1.4-3.5c0.3-0.9,0.4-1.7,0.4-2.2c0-0.6-0.1-1-0.4-1.2c-0.2-0.2-0.6-0.3-1-0.3
		c-0.4,0-1,0.2-1.5,0.7c-0.6,0.5-1.2,1-1.8,1.8c-0.6,0.7-1.2,1.5-1.8,2.4c-0.6,0.9-1.2,1.8-1.8,2.7s-1.1,1.7-1.6,2.5
		s-0.9,1.4-1.2,1.9l-1.3-1c1.2-1.9,2.3-3.6,3.3-5.2c1-1.6,1.9-2.9,2.8-4c0.9-1.1,1.8-2,2.6-2.6c0.9-0.6,1.8-0.9,2.7-0.9
		c0.5,0,1,0.1,1.5,0.3c0.5,0.2,0.9,0.5,1.3,0.9c0.4,0.4,0.7,0.9,0.9,1.5s0.3,1.3,0.3,2c0,0.6-0.1,1.2-0.2,1.9c1-1,2-1.8,2.9-2.5
		c0.9-0.7,1.7-1.2,2.5-1.6s1.4-0.7,2.1-0.8s1.2-0.2,1.7-0.2c0.4,0,1,0.1,1.5,0.2s1.1,0.5,1.7,0.9s1,1.1,1.3,1.8S166,58.6,166,59.8z"
		/>
	<path class="st1" d="M212,31.9c-0.3,0.4-0.7,1-1.3,1.9s-1.3,1.9-2,3.1s-1.6,2.5-2.5,4s-1.8,3-2.7,4.5s-1.8,3.1-2.6,4.7
		s-1.6,3.1-2.3,4.6c-1,2.3-1.9,4.3-2.5,6s-1.2,3.3-1.6,4.7s-0.7,2.6-0.8,3.6s-0.2,1.9-0.2,2.6c0,1.3,0.2,2.3,0.6,2.8s1,0.8,1.7,0.8
		c0.7,0,1.4-0.2,2.1-0.6s1.3-0.9,1.9-1.4s1.2-1.3,1.8-2s1.1-1.5,1.5-2.2s0.9-1.5,1.3-2.1s0.8-1.3,1.1-1.7l1.3,1
		c-0.3,0.4-0.6,1-1,1.7s-0.8,1.4-1.3,2.3s-1.1,1.6-1.7,2.5s-1.3,1.6-2.1,2.3s-1.6,1.2-2.5,1.7s-1.9,0.7-3,0.7
		c-0.5,0-1.1-0.1-1.6-0.2s-1.1-0.4-1.6-0.7s-0.9-0.8-1.3-1.5s-0.6-1.4-0.7-2.4c-1.8,1.9-3.5,3.3-5.1,4.3s-3.2,1.5-4.7,1.5
		c-0.8,0-1.6-0.1-2.5-0.4s-1.8-0.7-2.5-1.3s-1.5-1.5-2-2.5s-0.8-2.3-0.8-3.9c0-1.7,0.3-3.4,0.8-5s1.3-3,2.2-4.4s2-2.6,3.1-3.7
		c1.2-1.1,2.4-2,3.7-2.8s2.6-1.4,3.9-1.8s2.5-0.6,3.7-0.6c1.5,0,2.7,0.2,3.6,0.6s1.5,0.8,2,1.1c0.3-0.7,0.8-1.5,1.3-2.5
		s1.2-2.2,2-3.4s1.6-2.6,2.5-4s1.9-2.8,2.9-4.3s2.1-2.9,3.3-4.3s2.3-2.7,3.5-3.9L212,31.9z M189.7,69.5c0.1-1.7,0.5-3.8,1.2-6.1
		s1.8-5.1,3.2-8.1c-0.3-0.5-0.8-0.9-1.4-1.1s-1.3-0.4-2-0.4c-1.1,0-2.3,0.2-3.5,0.7s-2.3,1.1-3.4,1.9c-1.1,0.8-2.1,1.7-3.1,2.8
		s-1.8,2.3-2.5,3.5s-1.3,2.5-1.7,3.9s-0.6,2.7-0.6,4c0,1.8,0.4,3.1,1.1,4.1s1.7,1.5,3,1.5c0.6,0,1.2-0.1,1.9-0.4s1.5-0.6,2.3-1.1
		s1.7-1.2,2.6-2S188.7,70.7,189.7,69.5z"/>
	<path class="st1" d="M208.1,70.1c0,0.3-0.1,0.6-0.1,0.8s0,0.6,0,0.8c0,0.8,0.1,1.6,0.4,2.4s0.6,1.4,1.1,2s1.1,1,1.8,1.4
		s1.5,0.5,2.4,0.5c3.1,0,6-1,8.9-3.1s5.7-5.4,8.5-9.9l1.2,1.1c-1.5,2.6-3.1,4.8-4.7,6.5s-3.2,3.2-4.8,4.3s-3.1,1.9-4.7,2.4
		s-3,0.7-4.4,0.7c-1,0-2.1-0.1-3.2-0.4s-2.2-0.8-3.1-1.4s-1.7-1.5-2.4-2.6s-0.9-2.5-0.9-4.1c0-1.8,0.3-3.5,0.9-5.1s1.4-3.1,2.3-4.6
		s2.1-2.7,3.3-3.8s2.5-2.2,3.8-3s2.5-1.5,3.7-1.9s2.3-0.7,3.2-0.7c0.6,0,1.2,0.1,1.9,0.3s1.2,0.5,1.7,0.9s0.9,0.9,1.2,1.6
		s0.5,1.4,0.5,2.4c0,1.2-0.3,2.4-0.9,3.5s-1.3,2.1-2.3,3s-2.1,1.8-3.3,2.5s-2.6,1.4-4,1.9s-2.8,0.9-4.2,1.2S209.3,70.1,208.1,70.1z
		 M208.3,68.6c1.6-0.2,3-0.5,4.4-1s2.6-1.1,3.8-1.8s2.2-1.5,3.1-2.3s1.7-1.7,2.3-2.6s1.1-1.7,1.4-2.5s0.5-1.5,0.5-2.1
		c0-0.6-0.2-1.1-0.5-1.5s-0.7-0.6-1.2-0.6c-1,0-2.2,0.4-3.5,1.1s-2.6,1.8-3.9,3.1s-2.5,2.8-3.6,4.6S209,66.5,208.3,68.6z"/>
	<path class="st1" d="M253.2,66c-0.4,0.5-0.8,1.2-1.2,2.1s-1,1.8-1.7,2.8S249,73,248.2,74s-1.6,2-2.5,2.8s-1.9,1.5-2.9,2.1
		s-2.2,0.8-3.4,0.8c-0.7,0-1.3-0.1-1.9-0.3s-1.1-0.5-1.5-0.9s-0.8-0.9-1.1-1.6s-0.4-1.4-0.4-2.2c0-1.1,0.2-2.3,0.7-3.6
		s1-2.5,1.6-3.6s1.2-2.2,1.8-3.2s1.1-1.8,1.3-2.3s0.4-1.1,0.4-1.5c0-0.3-0.1-0.6-0.3-0.8s-0.4-0.5-0.7-0.7s-0.6-0.5-0.9-0.7
		s-0.6-0.5-0.8-0.9c-0.6,0.9-1.2,1.9-1.8,2.8c-0.5,0.8-1.1,1.7-1.8,2.8s-1.2,2-1.8,3l-1.3-1l7.5-11.8l1,0.5c0,0.1-0.1,0.4-0.2,0.7
		s-0.2,0.6-0.2,1c0,0.3,0,0.5,0.1,0.8c0.1,0.2,0.3,0.5,0.5,0.7c0.9,0.8,1.7,1.5,2.2,2s0.9,0.8,1.2,1.1s0.4,0.5,0.5,0.7
		s0.1,0.4,0.1,0.7s0,0.6-0.1,1s-0.3,0.9-0.5,1.4s-0.5,1.2-0.9,2s-0.9,1.6-1.5,2.7c-0.4,0.6-0.7,1.2-1,1.8s-0.6,1.2-0.9,1.9
		s-0.5,1.3-0.7,1.9s-0.2,1.2-0.2,1.8c0,0.4,0.1,0.8,0.2,1.1s0.3,0.5,0.5,0.6s0.4,0.2,0.7,0.3s0.5,0.1,0.7,0.1c0.8,0,1.5-0.2,2.3-0.7
		s1.5-1,2.2-1.8s1.5-1.6,2.1-2.5s1.4-1.9,2-2.8s1.2-1.9,1.8-2.8s1-1.6,1.4-2.3L253.2,66z"/>
</g>
<g class="st0">
	<path class="st1" d="M157.9,92.4h3.9c0.5,0,1,0,1.6,0.1s1,0.3,1.4,0.5c0.4,0.3,0.8,0.7,1,1.2c0.3,0.5,0.4,1.1,0.4,2
		c0,0.7-0.2,1.4-0.6,1.9s-1,0.9-1.8,1.1v0c0.4,0,0.9,0.2,1.2,0.3c0.4,0.2,0.7,0.4,1,0.7s0.5,0.7,0.6,1.1c0.1,0.4,0.2,0.9,0.2,1.4
		c0,0.8-0.2,1.5-0.5,2s-0.7,0.9-1.1,1.2c-0.5,0.3-1,0.5-1.5,0.6c-0.5,0.1-1,0.2-1.5,0.2h-4.4V92.4z M159.2,98.6h2.6
		c0.7,0,1.2-0.1,1.6-0.3c0.4-0.2,0.7-0.4,1-0.6c0.2-0.2,0.4-0.5,0.5-0.8s0.1-0.5,0.1-0.8c0-0.5-0.1-0.9-0.2-1.2s-0.4-0.6-0.6-0.8
		c-0.3-0.2-0.6-0.3-0.9-0.4c-0.4-0.1-0.7-0.1-1.1-0.1h-2.8V98.6z M159.2,105.5h2.9c0.7,0,1.3-0.1,1.8-0.3s0.8-0.4,1-0.7
		c0.2-0.3,0.4-0.6,0.5-0.9c0.1-0.3,0.1-0.6,0.1-0.9c0-0.5-0.1-1-0.3-1.4c-0.2-0.4-0.4-0.7-0.8-0.9c-0.3-0.2-0.7-0.4-1-0.5
		s-0.8-0.2-1.2-0.2h-3.1V105.5z"/>
	<path class="st1" d="M169.2,99.6c0-1.1,0.2-2.1,0.5-3s0.8-1.7,1.4-2.4c0.6-0.7,1.4-1.2,2.2-1.6c0.9-0.4,1.8-0.6,2.9-0.6
		c1,0,2,0.2,2.9,0.6c0.9,0.4,1.6,0.9,2.2,1.6c0.6,0.7,1.1,1.5,1.4,2.4s0.5,1.9,0.5,3c0,1.1-0.2,2.1-0.5,3s-0.8,1.7-1.4,2.4
		s-1.4,1.2-2.2,1.6c-0.9,0.4-1.8,0.6-2.9,0.6c-1,0-2-0.2-2.9-0.6c-0.9-0.4-1.6-0.9-2.2-1.6s-1.1-1.5-1.4-2.4S169.2,100.7,169.2,99.6
		z M170.4,99.6c0,0.9,0.1,1.7,0.4,2.5c0.3,0.8,0.7,1.4,1.2,2c0.5,0.6,1.1,1,1.8,1.3c0.7,0.3,1.5,0.5,2.4,0.5c0.9,0,1.7-0.2,2.4-0.5
		c0.7-0.3,1.3-0.8,1.8-1.3c0.5-0.6,0.9-1.2,1.2-2c0.3-0.8,0.4-1.6,0.4-2.5s-0.1-1.7-0.4-2.5c-0.3-0.8-0.7-1.4-1.2-2
		c-0.5-0.6-1.1-1-1.8-1.3c-0.7-0.3-1.5-0.5-2.4-0.5c-0.9,0-1.7,0.2-2.4,0.5c-0.7,0.3-1.3,0.8-1.8,1.3c-0.5,0.6-0.9,1.2-1.2,2
		C170.6,97.9,170.4,98.7,170.4,99.6z"/>
	<path class="st1" d="M195.8,101.3c0,0.8-0.1,1.5-0.2,2.2s-0.4,1.3-0.8,1.9c-0.4,0.5-0.9,1-1.5,1.3c-0.6,0.3-1.4,0.5-2.3,0.5
		c-0.9,0-1.7-0.2-2.3-0.5c-0.6-0.3-1.1-0.8-1.5-1.3c-0.4-0.5-0.7-1.2-0.8-1.9s-0.2-1.4-0.2-2.2v-8.8h1.3v8.5c0,0.5,0,1.1,0.1,1.6
		s0.3,1.1,0.5,1.6c0.3,0.5,0.6,0.9,1.1,1.2s1.1,0.5,1.9,0.5c0.8,0,1.4-0.2,1.9-0.5s0.9-0.7,1.1-1.2c0.3-0.5,0.4-1,0.5-1.6
		s0.1-1.1,0.1-1.6v-8.5h1.3V101.3z"/>
	<path class="st1" d="M202.3,93.6h-4.7v-1.2h10.6v1.2h-4.7v13.1h-1.3V93.6z"/>
	<path class="st1" d="M210.3,92.4h1.3v14.3h-1.3V92.4z"/>
	<path class="st1" d="M229.1,106.7h-7.5c-1,0-1.9-0.2-2.7-0.5c-0.9-0.4-1.6-0.8-2.3-1.5c-0.7-0.6-1.2-1.4-1.6-2.3s-0.6-1.9-0.6-3
		c0-1,0.2-2,0.5-2.9c0.3-0.9,0.8-1.7,1.4-2.3c0.6-0.7,1.3-1.2,2.2-1.5c0.9-0.4,1.8-0.6,2.9-0.6c1.1,0,2,0.2,2.9,0.6
		c0.9,0.4,1.6,0.9,2.2,1.5c0.6,0.7,1.1,1.4,1.4,2.3c0.3,0.9,0.5,1.9,0.5,2.9c0,0.6-0.1,1.3-0.2,1.9c-0.2,0.6-0.4,1.2-0.7,1.8
		c-0.3,0.6-0.7,1-1.1,1.5c-0.4,0.4-0.9,0.7-1.4,1v0h4.3V106.7z M215.7,99.4c0,0.8,0.1,1.6,0.4,2.4c0.3,0.7,0.7,1.4,1.2,2
		c0.5,0.6,1.1,1,1.8,1.3c0.7,0.3,1.5,0.5,2.4,0.5c0.9,0,1.6-0.2,2.3-0.5s1.2-0.8,1.7-1.4c0.5-0.6,0.8-1.2,1-1.9
		c0.2-0.7,0.4-1.5,0.4-2.3c0-0.9-0.1-1.7-0.4-2.4c-0.3-0.7-0.6-1.4-1.1-2s-1.1-1-1.8-1.3c-0.7-0.3-1.5-0.5-2.4-0.5
		c-0.9,0-1.7,0.2-2.4,0.5c-0.7,0.3-1.3,0.7-1.8,1.3s-0.9,1.2-1.1,2C215.9,97.7,215.7,98.5,215.7,99.4z"/>
	<path class="st1" d="M241.1,101.3c0,0.8-0.1,1.5-0.2,2.2s-0.4,1.3-0.8,1.9c-0.4,0.5-0.9,1-1.5,1.3c-0.6,0.3-1.4,0.5-2.3,0.5
		c-0.9,0-1.7-0.2-2.3-0.5c-0.6-0.3-1.1-0.8-1.5-1.3c-0.4-0.5-0.7-1.2-0.8-1.9s-0.2-1.4-0.2-2.2v-8.8h1.3v8.5c0,0.5,0,1.1,0.1,1.6
		s0.3,1.1,0.5,1.6c0.3,0.5,0.6,0.9,1.1,1.2s1.1,0.5,1.9,0.5c0.8,0,1.4-0.2,1.9-0.5s0.9-0.7,1.1-1.2c0.3-0.5,0.4-1,0.5-1.6
		s0.1-1.1,0.1-1.6v-8.5h1.3V101.3z"/>
	<path class="st1" d="M244.6,92.4h8.3v1.2h-7.1v5.1h6.6v1.2h-6.6v5.6h7.4v1.2h-8.6V92.4z"/>
</g>
<g>
	<g>
		<path class="st1" d="M61.7,1.8c-4.8,9.1-9.2,18.4-13.4,27.8s-8,19-11.8,28.6s-7.4,19.3-11.1,28.9L24,90.7
			c-0.5,1.3-1.1,2.5-1.8,3.7c-1.3,2.4-3,4.6-4.9,6.5s-4.1,3.6-6.6,4.8c-1.3,0.6-2.6,1.1-3.9,1.3c-1.4,0.3-2.8,0.3-4.2,0.2H2.5
			c-0.1,0-0.2-0.1-0.3-0.1l0,0c-0.8-0.5-1.6-1.2-2.1-2.3c-0.4-1.1-0.1-2.3,0.3-3.1c0.9-1.7,2.2-2.9,3.5-4c2.7-2.2,5.9-3.8,9.2-4.7
			c3.3-0.9,6.8-1.2,10.2-1.1s6.8,0.5,10.1,1c6.6,1.1,13.1,2.8,19.5,4.5s12.8,3.4,19.3,4.9c3.2,0.7,6.5,1.4,9.7,1.9
			c3.3,0.5,6.6,1,9.8,1.4c6.6,0.8,13.2,1.4,19.8,1.6c6.6,0.2,13.3,0.1,19.8-0.6c3.3-0.4,6.5-0.9,9.7-1.8s6.3-2,9-3.8
			c0.2-0.1,0.4-0.1,0.5,0.1s0.1,0.4-0.1,0.5c-2.8,1.9-6,3.2-9.2,4.1s-6.5,1.6-9.8,2c-6.6,0.9-13.3,1-20,0.9
			c-6.7-0.2-13.3-0.7-20-1.4c-3.3-0.4-6.6-0.8-9.9-1.3s-6.6-1.1-9.9-1.9c-6.5-1.4-13-3.1-19.4-4.7S39.3,96,32.8,94.9
			s-13.1-1.6-19.3-0.1C10.4,95.6,7.5,97,5,99c-1.2,1-2.4,2.1-3.1,3.3c-0.3,0.6-0.4,1.2-0.3,1.7s0.6,1,1.2,1.4l0,0l-0.4-0.1
			c2.4,0,4.7-0.8,6.8-2.1c2.1-1.2,3.9-2.9,5.5-4.7c1.6-1.8,2.9-3.9,4-6.1c0.5-1.1,1-2.2,1.4-3.3l1.2-3.7c3.3-9.8,6.9-19.5,10.7-29.2
			S39.8,37,44.3,27.6S53.7,9,59.2,0.2c0.4-0.6,1.1-0.8,1.7-0.4C61.8,0.5,62,1.2,61.7,1.8L61.7,1.8z"/>
	</g>
</g>
</svg>
